<svg xmlns="http://www.w3.org/2000/svg" fill="none" viewBox="0 0 450.741 373.12" preserveAspectRatio="none">
  <g clip-path="url(#clip)">
  <path clip-rule="evenodd" fill-rule="evenodd" d="M225.2 89.7301C223.622 89.5199 221.439 88.9695 220.005 88.4209C214.754 86.4094 212.034 82.4341 211.216 75.5717C211.022 73.9498 210.992 69.7511 210.994 44.7073C210.997 16.9505 211.009 15.6376 211.279 13.7635C211.622 11.3798 212.312 9.27743 213.38 7.35872C214.609 5.15215 216.258 3.52492 218.685 2.12292C219.707 1.53213 222.671 0.631797 224.705 0.292741C226.529 -0.0107834 227.082 -0.0348699 230.742 0.0283644C234.035 0.0855764 235.061 0.156036 236.356 0.414996C240.412 1.2256 242.635 2.33672 244.888 4.68C246.95 6.82514 248.282 9.72369 248.854 13.3118C248.977 14.0802 249.016 22.5964 248.998 44.7784C248.984 61.5053 248.935 75.5638 248.887 76.0191C248.786 77.0062 248.35 78.8285 247.844 80.3823C246.208 85.4061 242.599 88.2444 236.317 89.4458C235.06 89.6861 233.959 89.7512 230.427 89.7946C228.038 89.8235 225.686 89.7946 225.2 89.7301ZM230.938 75.4644C231.284 75.2958 231.559 74.9983 231.758 74.578C232.055 73.9498 232.057 73.7613 232.088 44.9837L232.12 16.0218L231.816 15.4196C231.327 14.4518 230.148 14.0206 229.254 14.4831C229.054 14.5867 228.739 14.9005 228.554 15.1805L228.219 15.69V44.9584C228.219 77.2952 228.143 74.7972 229.146 75.4229C229.725 75.7842 230.257 75.7963 230.938 75.4644ZM81.465 88.9954C80.7123 88.8864 80.7524 91.0405 80.7889 52.396C80.8107 29.8322 80.7712 16.1959 80.6835 15.9839C80.5445 15.6472 80.5244 15.6454 77.2898 15.6454C75.3285 15.6454 73.9226 15.5834 73.7513 15.4894C73.4756 15.3389 73.4662 15.098 73.4662 8.11754C73.4662 1.24548 73.4791 0.89437 73.7389 0.752244C73.9156 0.655285 79.5515 0.613736 89.7077 0.63361C102.375 0.658903 105.44 0.702861 105.595 0.861247C105.748 1.01783 105.777 2.45656 105.739 8.01274C105.694 14.615 105.678 14.9806 105.413 15.213C105.175 15.4238 104.633 15.4623 101.633 15.484C99.5217 15.4991 98.0717 15.5689 97.9828 15.6599C97.885 15.7598 97.819 28.1008 97.7884 52.1165C97.7589 74.9351 97.6894 88.522 97.6005 88.6919C97.4674 88.9454 96.9862 88.9641 89.6223 89.002C85.3122 89.0243 81.6411 89.0213 81.465 88.9954ZM129.523 88.9761C121.204 88.8822 121.691 88.9544 121.827 87.8379C121.867 87.5067 121.934 86.7611 121.977 86.1818C122.14 83.9553 122.529 79.438 122.794 76.6966C122.946 75.1236 123.142 72.9212 123.23 71.8035C123.317 70.6857 123.453 69.1609 123.531 68.4159C123.812 65.7155 124.266 60.7947 124.637 56.4466C124.846 54.0039 125.409 47.9063 125.889 42.8964C126.37 37.8864 126.798 33.4149 126.84 32.9596C126.882 32.5043 127.048 30.8102 127.208 29.1956C127.505 26.1995 127.896 22.1923 128.024 20.8397C128.063 20.4259 128.224 18.7999 128.381 17.2263C128.538 15.6527 128.807 12.7397 128.979 10.7523C129.151 8.76494 129.419 6.1127 129.576 4.85886C129.732 3.60501 129.86 2.29638 129.86 1.9507C129.86 1.60562 129.929 1.19188 130.013 1.03169C130.162 0.746836 130.466 0.740206 143.467 0.740206C153.933 0.740206 156.801 0.780562 156.916 0.928109C157.07 1.12624 157.466 4.83297 157.62 7.51531C157.67 8.38493 157.773 9.51952 157.85 10.0374C157.927 10.5554 158.084 12.1477 158.2 13.5756C158.481 17.0414 158.825 20.8246 159.093 23.3992C159.213 24.5584 159.38 26.4477 159.461 27.5973C159.543 28.747 159.67 30.1357 159.744 30.6837C159.817 31.2318 159.919 32.3911 159.97 33.2607C160.021 34.1303 160.155 35.7563 160.268 36.8741C160.38 37.9918 160.512 39.5504 160.561 40.3369C160.61 41.1234 160.742 42.5465 160.856 43.4986C160.969 44.4507 161.134 46.2123 161.222 47.4131C161.311 48.614 161.445 50.0027 161.521 50.4996C161.596 50.9964 161.728 52.6224 161.816 54.1129C161.902 55.6035 162.032 57.2975 162.105 57.8769C162.177 58.4562 162.277 59.7438 162.327 60.7375C162.377 61.7312 162.51 63.3235 162.622 64.2756C162.734 65.2277 162.866 66.6171 162.914 67.362C162.962 68.107 163.099 69.6993 163.219 70.9001C163.413 72.8568 163.527 74.1805 164.035 80.3853C164.113 81.3374 164.274 83.1682 164.393 84.4539C164.645 87.1718 164.67 88.7605 164.464 88.8912C164.383 88.9418 160.737 89.0062 156.361 89.0333C149.164 89.0785 148.377 89.0598 148.121 88.837C147.879 88.6256 147.816 88.2504 147.681 86.1818C147.594 84.8568 147.428 82.316 147.31 80.5358C147.194 78.7556 147.058 76.5196 147.01 75.5674C146.852 72.4714 146.486 68.2684 146.363 68.1419C146.154 67.9269 139.976 68.0197 139.76 68.2413C139.571 68.434 139.481 69.5614 138.916 78.8044C138.784 80.9574 138.594 84.0577 138.492 85.6945C138.391 87.3308 138.24 88.7394 138.157 88.8243C137.927 89.0592 137.538 89.0664 129.523 88.9761ZM145.606 53.1524C145.705 52.9639 145.707 52.3207 145.612 51.2325C145.533 50.3327 145.402 48.1394 145.32 46.3592C145.237 44.579 145.102 42.3773 145.02 41.4661C144.938 40.5549 144.775 38.2857 144.659 36.4224C144.543 34.5591 144.35 31.8153 144.231 30.3248C144.112 28.8343 143.971 26.3953 143.92 24.9047C143.798 21.4491 143.604 19.0227 143.422 18.6909C143.266 18.4067 143.296 18.3669 143.036 19.204C142.993 19.3389 142.894 20.7752 142.815 22.3958C142.736 24.0158 142.574 26.5308 142.456 27.9839C142.096 32.3941 141.32 42.9897 141.121 46.2087C141.072 46.9952 140.937 48.8512 140.82 50.3321C140.661 52.3388 140.65 53.0783 140.773 53.2307C140.901 53.3872 141.473 53.4354 143.199 53.4354C145.26 53.4354 145.47 53.4108 145.606 53.1524ZM166.877 88.899C166.632 88.7166 166.62 86.4672 166.636 44.9373C166.65 11.5388 166.695 1.1178 166.828 0.954593C166.974 0.773321 168.393 0.740206 175.957 0.740206H184.913L185.142 1.07505C185.268 1.25873 185.371 1.6014 185.371 1.83566C185.371 2.06993 185.498 2.95221 185.654 3.79654C185.81 4.64147 186.05 5.94168 186.188 6.68724C186.326 7.4328 186.523 8.51682 186.626 9.09616C186.729 9.67551 186.892 10.5903 186.988 11.1287C187.083 11.6671 187.289 12.6957 187.444 13.4148C187.6 14.1338 187.727 14.8433 187.727 14.9908C187.727 15.1383 187.856 15.8032 188.014 16.4687C188.34 17.8394 188.702 19.6581 188.914 20.9902C188.993 21.4871 189.154 22.3681 189.271 22.9475C189.835 25.7238 190.08 27.0089 190.375 28.744C190.552 29.7792 190.798 31.1679 190.922 31.8304C191.047 32.4928 191.237 33.5094 191.344 34.0888C191.664 35.8196 191.985 37.4865 192.214 38.6055C192.333 39.1848 192.482 39.9178 192.545 40.2333C192.912 42.0707 192.952 39.9171 192.903 21.098C192.858 3.23885 192.874 1.44903 193.091 1.11118L193.329 0.740206H200.463H207.598L207.811 1.07867C208.058 1.47192 208.088 8.37108 208.062 58.4129C208.049 83.1917 208.012 88.5058 207.85 88.7322C207.664 88.993 207.209 89.0062 198.993 88.9978C188.967 88.9876 189.894 89.155 189.644 87.3109C189.56 86.69 189.385 85.5717 189.257 84.8267C188.601 81.0303 188.283 79.2699 188.008 77.9011C187.363 74.7002 187.115 73.5024 186.917 72.6315C186.655 71.4801 186.085 68.5689 185.442 65.1037C184.661 60.8911 184.651 60.8429 183.665 56.1455C183.464 55.1933 183.203 53.8775 183.083 53.2216C182.964 52.5658 182.805 51.7865 182.731 51.4902C182.658 51.1939 182.556 50.5784 182.506 50.1232C182.456 49.6679 182.317 48.8205 182.196 48.2412C182.075 47.6618 181.895 46.7519 181.796 46.2201C181.698 45.6883 181.533 45.2252 181.432 45.1915C181.167 45.1023 181.192 47.3752 181.487 50.1846C181.699 52.2033 181.715 54.4616 181.632 70.4051C181.58 80.2763 181.5 88.4546 181.453 88.5792C181.407 88.7033 181.258 88.84 181.124 88.8834C180.99 88.9261 177.787 88.9906 174.007 89.0267C168.575 89.0785 167.081 89.0514 166.877 88.899ZM258.955 88.9875C258.39 88.8183 258.404 89.7223 258.404 52.2322C258.404 24.2573 258.363 15.9658 258.227 15.8261C258.1 15.696 257.082 15.6454 254.575 15.6454C252.069 15.6454 251.051 15.5948 250.924 15.4648C250.669 15.2046 250.669 1.18103 250.924 0.920868C251.18 0.658897 282.707 0.658897 282.964 0.920868C283.096 1.05637 283.14 2.87813 283.14 8.19282C283.14 13.5075 283.096 15.3293 282.964 15.4648C282.836 15.5948 281.834 15.646 279.393 15.6478C277.512 15.649 275.901 15.7135 275.778 15.793C275.583 15.9188 275.553 20.1712 275.52 52.3315C275.498 72.5358 275.425 88.7858 275.355 88.858C275.235 88.9803 259.352 89.1056 258.955 88.9875ZM286.28 88.9972C286.103 88.9707 285.891 88.8653 285.808 88.7635C285.57 88.469 285.553 1.25813 285.792 0.964241C285.949 0.770925 287.068 0.740206 293.97 0.740206C301.043 0.740206 301.993 0.767309 302.198 0.976886C302.406 1.18887 302.429 2.97086 302.429 18.3362C302.429 31.4528 302.47 35.501 302.606 35.6395C302.721 35.7575 303.329 35.8202 304.355 35.8202C305.637 35.8202 305.964 35.7744 306.129 35.5715C306.298 35.3637 306.335 32.4724 306.352 18.2296C306.372 1.95791 306.385 1.12684 306.638 0.938346C307.016 0.655297 322.786 0.645663 323.007 0.928109C323.18 1.14792 323.254 22.9144 323.216 62.2521C323.196 82.952 323.152 88.51 323.007 88.7057C322.84 88.9291 322.046 88.9574 314.838 88.9954C307.457 89.0345 306.834 89.0183 306.6 88.7792C306.364 88.5389 306.345 87.2585 306.306 69.9058C306.275 56.2069 306.219 51.2361 306.096 51.0837C305.873 50.8097 302.87 50.7868 302.606 51.0566C302.47 51.1951 302.429 55.5926 302.429 69.9329C302.429 84.7081 302.39 88.6611 302.245 88.7822C302.077 88.9219 287.124 89.123 286.28 88.9972ZM326.541 88.7792C326.296 88.5292 326.283 86.2408 326.283 44.8771C326.283 2.792 326.292 1.22982 326.552 0.98953C326.799 0.761285 327.965 0.740206 340.315 0.740206H353.81L354.017 1.07867C354.186 1.3563 354.222 2.61254 354.22 8.00491C354.218 12.5849 354.167 14.6602 354.054 14.8131C353.917 14.9986 353.066 15.0366 348.664 15.0516C344.396 15.0661 343.376 15.1094 343.105 15.2859L342.774 15.5021V25.731C342.774 35.6901 342.781 35.9641 343.059 36.1159C343.237 36.2134 345.02 36.2718 347.834 36.2718C351.719 36.2718 352.355 36.3038 352.555 36.5085C352.759 36.7169 352.786 37.5738 352.786 43.6546C352.786 50.3321 352.777 50.5694 352.501 50.72C352.323 50.8175 350.54 50.8759 347.726 50.8759C343.841 50.8759 343.206 50.9079 343.005 51.1126C342.799 51.3234 342.774 52.6025 342.774 62.926C342.774 74.2178 342.781 74.5069 343.059 74.6587C343.24 74.758 345.251 74.8146 348.577 74.8146H353.81L354.031 75.1585C354.219 75.4524 354.248 76.4575 354.228 82.0179C354.212 86.5618 354.155 88.6033 354.04 88.7641C353.894 88.9689 352.318 88.9978 340.336 89.0189C327.621 89.0411 326.783 89.0261 326.541 88.7792ZM356.825 88.8599C356.644 88.6738 356.615 82.6503 356.615 44.947C356.615 10.085 356.652 1.19729 356.8 0.990725C356.973 0.748628 357.764 0.73479 368.837 0.782366C381.581 0.837772 381.995 0.86066 384.664 1.67066C385.717 1.99045 387.699 2.93413 388.493 3.49421C389.772 4.39695 391.256 6.08079 392.14 7.63214C392.744 8.69207 393.175 9.89231 393.573 11.6237C393.869 12.9095 393.877 13.2588 393.829 23.9695C393.781 34.65 393.77 35.0367 393.46 36.4194C392.957 38.6639 392.162 40.1568 390.635 41.722C389.648 42.7332 389.108 43.1541 388.267 43.5667C387.666 43.8605 387.066 44.1008 386.932 44.1008C386.635 44.1008 386.299 44.4845 386.42 44.685C386.469 44.7651 386.847 44.9458 387.261 45.0861C389.313 45.7829 391.743 47.8287 392.669 49.6366C392.934 50.1557 393.291 51.0362 393.461 51.5938C393.764 52.5875 393.772 52.9127 393.864 68.2654C393.947 82.1871 393.986 84.0902 394.213 85.429C394.502 87.1267 394.688 88.0252 394.822 88.3829C394.874 88.5202 394.808 88.737 394.669 88.8779C394.446 89.1068 393.752 89.1243 386.705 89.0761C377.891 89.0165 378.607 89.1411 378.272 87.6121C378.042 86.5654 377.693 84.2829 377.524 82.7189C377.453 82.0565 377.39 75.3103 377.385 67.7276L377.376 53.9413L376.971 53.1313C376.748 52.6863 376.398 52.1966 376.192 52.0443C375.693 51.6751 373.836 51.4987 373.596 51.798C373.475 51.9485 373.416 57.0319 373.379 70.328C373.341 83.4976 373.281 88.6979 373.163 88.8183C373.048 88.9357 370.62 88.999 365.018 89.0303C358.249 89.0682 357.004 89.0424 356.825 88.8599ZM374.807 38.0659C375.936 37.8647 376.554 37.3757 376.982 36.3435C377.286 35.6118 377.295 35.3697 377.341 25.9875L377.388 16.3813L377.058 15.7063C376.636 14.8421 376.067 14.4934 374.873 14.3687C373.25 14.1995 373.405 12.9396 373.395 26.3218C373.388 35.716 373.423 38.0008 373.578 38.1008C373.817 38.2556 373.727 38.2586 374.807 38.0659ZM12.802 88.8503C11.1953 88.781 11.3461 90.2582 11.3337 74.4557L11.3225 60.7122L10.8137 57.8642C10.5339 56.2978 10.1746 54.3051 10.0156 53.4354C9.85659 52.5658 9.55916 50.9398 9.35538 49.822C9.151 48.7043 8.84651 47.112 8.67865 46.2839C8.51079 45.4559 8.30995 44.4056 8.2328 43.9503C8.15564 43.495 7.75808 41.4625 7.34993 39.4336C6.94236 37.4046 6.50711 35.2029 6.38342 34.5404C5.77619 31.2848 5.58301 30.267 5.08474 27.6901C4.78907 26.158 4.45395 24.4645 4.34087 23.9261C3.74542 21.0986 3.50688 19.8984 3.15703 17.9791C2.94618 16.8198 2.6782 15.3967 2.56217 14.8174C2.44614 14.238 2.24943 13.2214 2.12515 12.559C2.00088 11.8965 1.67047 10.1687 1.3907 8.71977C-0.220135 0.376458 -0.154759 0.829943 0.224539 0.681192C0.352935 0.630605 4.12177 0.589648 8.59973 0.589648C15.3252 0.589648 16.7705 0.625774 16.9095 0.796205C17.002 0.910027 17.1722 2.01152 17.2877 3.24308C17.6681 7.2961 17.9538 10.4247 18.1034 12.1826C18.3407 14.9649 18.8272 20.2097 19.0669 22.5711C19.1889 23.7719 19.3231 25.0932 19.365 25.507C19.4074 25.9207 19.5322 28.0893 19.643 30.3248C19.8444 34.3959 19.9168 34.9758 20.2113 34.8759C20.5017 34.7765 20.6071 33.9593 20.7502 30.7012C20.9004 27.2697 21.179 23.6551 21.5506 20.3127C21.6749 19.195 21.8805 17.0944 22.0077 15.6454C22.1343 14.1965 22.3705 11.5539 22.5319 9.77367C23.0449 4.11511 23.1096 3.39906 23.2074 2.25903C23.3647 0.431263 22.5372 0.589648 31.9254 0.589648C38.5231 0.589648 40.0361 0.62699 40.1704 0.792603C40.2941 0.944968 40.2211 1.57489 39.8783 3.31413C39.6268 4.58966 39.3005 6.27712 39.1538 7.06363C39.0072 7.85015 38.7469 9.17144 38.5761 9.99951C38.1302 12.1591 36.8622 18.7295 36.4988 20.7644C36.3285 21.7165 36.0971 22.936 35.9846 23.4744C35.8721 24.0128 35.4757 26.0791 35.1029 28.0664C34.7301 30.0538 33.8231 34.7289 33.0874 38.4549C32.3512 42.1809 31.6309 45.8738 31.486 46.6603C30.7987 50.4008 29.9671 54.8224 29.4758 57.3499L28.9346 60.1353L28.8563 74.3178C28.7938 85.6704 28.7396 88.5395 28.5865 88.6961C28.4345 88.8514 26.8838 88.8918 21.0771 88.8918C17.0521 88.8918 13.3286 88.8731 12.802 88.8503ZM42.3172 88.7123C42.1364 88.5275 42.1005 87.2435 42.0828 80.3371C42.0345 61.4029 42.1146 0.84379 42.1882 0.72214C42.233 0.647463 48.396 0.589648 56.3159 0.589648C70.0678 0.589648 70.367 0.595661 70.5166 0.881721C70.7069 1.24547 70.6868 14.3952 70.4948 14.7794C70.3735 15.0233 69.9612 15.0432 65.0239 15.0432C61.0671 15.0432 59.6383 15.0902 59.5075 15.2239C59.3739 15.3606 59.3309 17.8556 59.3309 25.5316C59.3309 35.0246 59.3468 35.6678 59.5888 35.7955C59.7302 35.8702 61.9259 35.9394 64.4673 35.949C67.6742 35.9617 69.1496 36.0189 69.2892 36.1376C69.4541 36.2779 69.4906 37.5793 69.4906 43.3613C69.4906 49.9262 69.473 50.4231 69.2327 50.5477C69.0913 50.6218 66.8597 50.6748 64.2741 50.6658C60.5577 50.6537 59.5317 50.6917 59.378 50.8489C59.1065 51.1271 59.0888 73.7541 59.3603 74.0317C59.4911 74.1654 60.9146 74.2124 64.8525 74.2124C68.7903 74.2124 70.2139 74.2594 70.3446 74.3931C70.4772 74.5286 70.5213 76.3214 70.5213 81.5337C70.5213 87.4573 70.4889 88.5268 70.3046 88.7153C69.9807 89.0472 42.6411 89.0442 42.3172 88.7123Z" fill="#FBF9F6"/>
  <path clip-rule="evenodd" fill-rule="evenodd" d="M12.0742 185.376C9.299 184.939 6.44249 183.55 4.49535 181.691C2.99111 180.254 2.13533 178.865 1.12525 176.221C0.705898 175.121 0.305398 172.757 0.154032 170.484C-0.0485745 167.433 -0.0526973 111.769 0.149909 109.523C0.549232 105.097 1.71599 102.184 4.11723 99.6192C6.02491 97.5818 7.53444 96.714 10.9699 95.6788C14.8536 94.5092 23.2788 94.5159 27.5141 95.692C32.2371 97.0037 35.4965 99.7246 37.1221 103.715C38.5444 107.205 38.737 109.27 38.6245 119.801C38.5715 124.761 38.482 127.964 38.3931 128.08C38.1857 128.347 21.936 128.355 21.6745 128.087C21.5414 127.951 21.4978 125.887 21.4978 119.723C21.4978 114.29 21.4436 111.319 21.3364 110.884C21.0372 109.667 19.9877 108.966 18.8504 109.222C18.2143 109.365 17.415 110.221 17.2719 110.914C17.2071 111.225 17.1541 124.455 17.1541 140.313V169.144L17.4769 169.761C17.921 170.61 18.4534 170.937 19.3958 170.938C20.261 170.94 20.7651 170.648 21.314 169.824L21.645 169.326V159.441C21.645 151.954 21.602 149.513 21.4683 149.376C21.3712 149.277 21.0549 149.195 20.7651 149.195C20.4753 149.195 20.0807 149.083 19.8881 148.945L19.5383 148.694L19.6231 141.762C19.7014 135.364 19.7279 134.815 19.9682 134.635C20.175 134.481 22.0885 134.441 29.1721 134.441C37.1062 134.441 38.1416 134.467 38.3465 134.677C38.6316 134.969 38.6475 136.913 38.5921 164.628C38.558 181.475 38.5232 184.231 38.3395 184.426C38.0138 184.77 28.1208 184.861 27.8457 184.522C27.6655 184.3 27.2839 182.798 27.1319 181.716C26.9894 180.698 26.5895 180.618 26.0559 181.5C25.6159 182.229 23.6593 183.788 22.4549 184.371C20.5678 185.284 18.6254 185.632 15.5345 185.61C14.4007 185.602 12.8434 185.497 12.0742 185.376ZM152.851 185.461C150.111 185.272 147.2 184.472 145.273 183.379C142.157 181.611 139.825 178.586 138.861 175.059C138.098 172.269 138.114 173.168 138.114 133.449C138.114 100.058 138.137 96.5183 138.346 96.3406C138.644 96.0877 154.563 96.1256 154.862 96.3798C155.01 96.5056 155.048 103.865 155.05 132.841C155.054 167.855 155.063 169.166 155.326 169.759C155.705 170.61 156.266 171.026 157.035 171.026C157.804 171.026 158.366 170.61 158.744 169.759C159.007 169.166 159.016 167.857 159.02 132.926C159.022 104.194 159.061 96.655 159.207 96.4515C159.376 96.2166 160.059 96.1901 167.382 96.1389L175.373 96.0829L175.591 96.4002C175.781 96.6779 175.808 101.288 175.805 133.418C175.803 156.164 175.748 170.562 175.66 171.287C174.949 177.113 172.513 181.278 168.597 183.361C165.93 184.779 163.738 185.29 159.465 185.483C156.041 185.639 155.405 185.637 152.851 185.461ZM192.668 185.526C188.283 184.942 185.054 183.571 182.676 181.284C181.104 179.771 179.833 177.323 179.01 174.222C178.712 173.102 178.699 172.661 178.648 162.372C178.598 152.378 178.611 151.672 178.849 151.494C179.047 151.346 180.871 151.303 187.022 151.303C194.699 151.303 194.944 151.312 195.092 151.595C195.192 151.785 195.246 154.861 195.248 160.515C195.251 168.566 195.269 169.185 195.521 169.747C195.945 170.689 196.323 170.951 197.26 170.951C197.981 170.951 198.111 170.9 198.487 170.47C198.718 170.205 198.978 169.731 199.063 169.416C199.162 169.051 199.219 166.246 199.22 161.683C199.221 151.32 199.41 151.812 193.76 147.516C192.187 146.32 190.47 144.971 189.944 144.516C189.417 144.062 188.192 143.085 187.22 142.345C186.189 141.56 184.561 140.089 183.312 138.812C181.394 136.852 181.108 136.491 180.563 135.344C179.776 133.69 179.43 132.72 179.028 131.053C178.711 129.736 178.7 129.418 178.646 119.573C178.611 113.074 178.646 109.084 178.743 108.432C179.477 103.528 180.921 100.656 183.725 98.5297C185.952 96.8399 188.703 95.6812 191.582 95.2199C193.726 94.8766 198.787 94.7538 201.031 94.991C206.423 95.5608 211.064 97.8673 213.105 100.992C214.403 102.979 215.049 104.63 215.585 107.327C215.889 108.856 215.902 109.287 215.893 117.858C215.889 122.779 215.827 126.855 215.756 126.928C215.591 127.097 199.521 127.13 199.357 126.963C199.29 126.894 199.215 123.247 199.191 118.858C199.147 111.022 199.141 110.868 198.83 110.273C198.432 109.513 197.702 109.121 196.99 109.286C196.182 109.472 195.881 109.705 195.553 110.397C195.255 111.028 195.245 111.256 195.245 117.589C195.245 123.565 195.269 124.215 195.525 125.13C195.679 125.681 195.98 126.437 196.193 126.809C196.96 128.148 199.594 130.427 204.668 134.144C212.386 139.798 214.529 142.357 215.578 147.171C215.893 148.62 215.906 149.007 215.966 159.014C216.041 171.37 215.945 172.793 214.814 176.134C212.947 181.648 208.397 184.857 201.569 185.475C199.984 185.619 193.634 185.655 192.668 185.526ZM42.1118 184.59C41.9163 184.454 41.891 179.384 41.891 140.476C41.891 104.817 41.9269 96.4786 42.0806 96.3214C42.371 96.0245 69.3471 96.0335 69.6975 96.3304C69.9172 96.5171 69.9408 97.185 69.9408 103.195C69.9408 109.454 69.9249 109.868 69.6716 110.102C69.4319 110.324 68.84 110.352 64.2872 110.352C61.0432 110.352 59.0683 110.409 58.8881 110.508C58.6107 110.659 58.6031 110.931 58.6031 120.67C58.6031 130.476 58.6089 130.683 58.8975 130.978C59.1797 131.266 59.3899 131.279 63.8673 131.282C66.4382 131.283 68.635 131.344 68.7487 131.418C68.9207 131.528 68.966 132.75 69.0155 138.547C69.0697 144.868 69.0526 145.566 68.8353 145.788C68.6226 146.005 68.0425 146.034 63.8478 146.034C60.1079 146.034 59.0436 146.076 58.8304 146.236C58.5824 146.422 58.5548 146.79 58.4888 150.79C58.4493 153.184 58.467 158.381 58.5277 162.339C58.6195 168.321 58.6743 169.572 58.8522 169.754C59.0312 169.937 59.9247 169.972 64.3332 169.972C69.2493 169.972 69.6168 169.991 69.8442 170.248C70.0639 170.496 70.088 171.217 70.088 177.465C70.088 182.033 70.0368 184.441 69.9372 184.503C69.6698 184.673 42.3545 184.757 42.1118 184.59ZM73.1801 184.593L72.812 184.487L72.7773 140.532C72.7566 114.691 72.7973 96.4876 72.875 96.3617C72.9869 96.1817 74.437 96.1419 82.0913 96.107L91.1744 96.0666L91.5154 96.4147C91.7339 96.6381 91.8906 97.0272 91.9524 97.4975C92.0567 98.2961 92.6551 101.557 92.9849 103.125C93.3453 104.841 93.6563 106.483 93.81 107.491C93.8925 108.029 94.0274 108.691 94.1104 108.962C94.1929 109.232 94.3495 110.011 94.4585 110.693C94.7895 112.767 95.2589 115.383 95.3367 115.591C95.3773 115.699 95.4792 116.241 95.5628 116.796C95.6465 117.351 95.812 118.244 95.9303 118.783C96.0493 119.321 96.2861 120.574 96.4569 121.568C97.0382 124.952 97.4852 127.288 97.6955 128.042C97.8109 128.456 98.1019 129.987 98.3422 131.445C98.8098 134.278 99.1785 135.796 99.4 135.796C99.4748 135.796 99.5419 135.779 99.5484 135.758C99.5543 135.737 99.5896 126.914 99.6261 116.149C99.6797 100.23 99.7286 96.5406 99.8865 96.3792C100.183 96.0751 113.842 96.0064 114.261 96.3063C114.554 96.5165 114.555 96.6984 114.555 140.378C114.555 180.988 114.537 184.254 114.312 184.445C114.113 184.614 112.526 184.658 105.608 184.686C100.231 184.707 97.0482 184.665 96.8745 184.57C96.5399 184.387 96.3815 183.727 95.3402 178.178C94.965 176.18 94.7701 175.206 94.2394 172.682C93.8165 170.672 93.5114 169.131 93.3453 168.166C93.2664 167.71 93.1056 166.965 92.9878 166.51C92.87 166.054 92.6657 165.14 92.5337 164.477C92.4024 163.815 92.1645 162.629 92.0054 161.842C91.6638 160.152 91.1903 157.67 90.9288 156.196C90.5978 154.334 90.2568 152.606 90.0359 151.68C89.9181 151.183 89.7514 150.307 89.666 149.734C89.5806 149.161 89.4817 148.645 89.4463 148.587C89.4116 148.529 89.2838 147.846 89.163 147.07C88.7319 144.301 88.3267 142.033 88.13 141.291C88.0199 140.877 87.8897 140.352 87.8408 140.125C87.7919 139.896 87.6865 139.71 87.607 139.71C87.3879 139.71 87.4374 142.322 87.683 143.7C87.9975 145.471 88.1854 183.913 87.8809 184.319C87.693 184.57 87.1918 184.592 80.6135 184.643C76.7275 184.673 73.3827 184.651 73.1801 184.593ZM118.082 184.544C117.924 184.484 117.794 184.315 117.794 184.168C117.793 184.02 117.794 164.253 117.795 140.241C117.797 101.561 117.822 96.5586 118.019 96.3575C118.211 96.1612 119.323 96.1304 126.314 96.1274C132.944 96.1244 134.431 96.1606 134.631 96.3304C134.857 96.5219 134.875 99.777 134.875 140.388C134.875 181.029 134.857 184.254 134.631 184.445C134.431 184.614 132.95 184.652 126.377 184.652C121.972 184.652 118.239 184.603 118.082 184.544Z" fill="#FBF9F6"/>
  <path clip-rule="evenodd" fill-rule="evenodd" d="M275.058 281.976C269.355 281.454 264.76 278.71 262.368 274.398C261.666 273.134 261.418 272.466 260.915 270.484C260.576 269.149 260.516 268.518 260.391 264.913C260.309 262.567 260.273 249.133 260.304 233.146C260.353 208.487 260.385 205.31 260.595 204.238C261.065 201.841 261.291 201.039 261.894 199.64C263.725 195.388 267.099 192.613 271.953 191.365C276.638 190.159 284.522 190.433 288.714 191.948C290.716 192.671 291.92 193.462 293.545 195.122C296.124 197.758 297.137 199.948 297.884 204.505L298.249 206.728L298.248 236.649L298.246 266.569L297.884 268.527C297.465 270.79 297.153 271.874 296.496 273.344C295.14 276.38 292.828 278.778 289.856 280.232C286.696 281.778 280.664 282.489 275.058 281.976ZM280.044 267.405C280.246 267.327 280.581 266.965 280.79 266.602L281.168 265.941V236.317C281.168 208.956 281.15 206.652 280.923 206.163C280.247 204.708 278.21 204.699 277.463 206.147L277.127 206.798L277.162 236.302L277.198 265.807L277.504 266.454C277.673 266.811 277.987 267.2 278.201 267.319C278.654 267.57 279.515 267.611 280.044 267.405ZM0.238767 280.833C-0.111083 280.539 -0.125805 280.918 0.529721 273.42C0.685209 271.64 0.882515 269.132 0.967327 267.849C1.05214 266.566 1.15108 265.346 1.18701 265.139C1.22294 264.932 1.32071 263.78 1.40434 262.58C1.48798 261.379 1.65466 259.414 1.77422 258.213C1.89437 257.013 2.12937 254.472 2.29723 252.567C2.46508 250.663 2.6989 248.122 2.8167 246.922C2.93449 245.721 3.12827 243.553 3.24724 242.104C3.3668 240.655 3.49932 239.232 3.54231 238.942C3.58531 238.652 3.75081 236.891 3.90983 235.027C4.06944 233.164 4.33095 230.251 4.49232 228.554C4.65311 226.856 4.85572 224.587 4.94171 223.51C5.0277 222.433 5.19438 220.604 5.31276 219.445C5.53716 217.247 5.78041 214.546 6.26808 208.83C7.38771 195.703 7.75405 192.253 8.06267 191.937C8.37542 191.617 7.62978 191.631 23.5668 191.664C31.8583 191.681 34.6512 191.731 34.7749 191.865C34.9646 192.07 35.2885 194.774 35.7155 199.722C36.0447 203.531 36.4411 207.969 36.8858 212.82C37.1797 216.021 37.4547 219.158 37.8499 223.811C37.9695 225.218 38.0997 226.54 38.1385 226.747C38.178 226.954 38.2787 228.105 38.3635 229.306C38.6751 233.748 39.671 245.685 39.7665 246.121C39.8348 246.437 40.3478 252.725 40.7954 258.74C40.912 260.313 41.0428 261.838 41.0846 262.128C41.1564 262.621 41.3237 264.627 42.0464 273.646C42.206 275.633 42.3685 277.462 42.4086 277.711C42.5564 278.636 42.5258 280.83 42.3638 280.933C42.2749 280.989 38.5797 281.02 34.1518 281.002C27.7049 280.976 26.064 280.93 25.9127 280.77C25.6924 280.538 25.1941 273.838 24.4673 261.319C24.4296 260.67 24.3324 260.234 24.2076 260.154C23.873 259.937 17.9598 259.988 17.7866 260.208C17.6382 260.398 17.3949 263.892 16.8672 273.42C16.5121 279.83 16.4432 280.607 16.2064 280.849C16.0591 280.999 14.3358 281.047 8.28472 281.067C1.13872 281.092 0.526774 281.074 0.238767 280.833ZM23.5444 244.785C23.694 244.543 23.2705 235.429 22.8989 230.887C22.8247 229.976 22.6951 227.741 22.6115 225.919C22.5278 224.097 22.3959 221.76 22.3187 220.725C22.2416 219.689 22.1079 217.42 22.0213 215.681C21.7233 209.675 21.5354 208.287 21.1585 209.301C21.0071 209.708 20.4988 216.315 19.5211 230.586C19.3621 232.905 19.1919 235.513 19.1418 236.383C19.0924 237.252 18.9587 239.115 18.845 240.523C18.6171 243.343 18.5799 244.859 18.736 245.018C18.792 245.075 19.8616 245.103 21.1125 245.081C23.0603 245.046 23.4101 245.003 23.5444 244.785ZM44.9329 280.918C44.7144 280.792 44.695 277.145 44.6967 236.607C44.6985 208.584 44.7509 192.291 44.841 192.049L44.9836 191.667H53.2769C59.5312 191.667 61.6138 191.711 61.7469 191.848C62.0108 192.117 62.0037 280.728 61.7398 280.898C61.4789 281.065 45.2245 281.084 44.9329 280.918ZM88.1635 280.919C87.9049 280.654 87.9043 192.111 88.1623 191.848C88.2966 191.71 91.0636 191.667 99.7156 191.667C112.041 191.667 112.706 191.702 115.888 192.518C118.425 193.17 120.827 194.623 122.53 196.537C124.376 198.612 125.413 201.459 125.831 205.593C125.951 206.791 125.981 215.624 125.94 237.512L125.881 267.774L125.559 269.204C125.117 271.161 124.703 272.413 124.117 273.57C122.78 276.207 120.01 278.536 116.97 279.581C112.829 281.003 112.991 280.989 99.685 281.049C90.9693 281.089 88.2995 281.058 88.1635 280.919ZM107.866 266.671C108.184 266.501 108.504 266.147 108.71 265.736L109.041 265.075V236.119C109.041 207.612 109.037 207.153 108.752 206.581C108.315 205.707 107.669 205.368 106.44 205.368C105.842 205.368 105.346 205.442 105.243 205.548C104.985 205.811 104.985 266.502 105.243 266.765C105.525 267.054 107.267 266.992 107.866 266.671ZM129.157 280.775C128.939 280.459 128.919 276.658 128.919 236.339C128.919 206.235 128.967 192.157 129.072 191.958C129.221 191.673 129.531 191.667 143.03 191.667C153.572 191.667 156.878 191.71 157.013 191.848C157.146 191.983 157.19 193.76 157.19 198.915V205.802L156.862 206.037C156.581 206.238 155.81 206.271 151.405 206.271C148.15 206.271 146.17 206.328 145.99 206.427C145.713 206.579 145.705 206.853 145.705 216.861C145.705 224.653 145.748 227.182 145.882 227.319C146.011 227.451 147.227 227.5 150.437 227.5C152.925 227.5 154.978 227.563 155.193 227.647L155.57 227.793V234.868C155.57 241.708 155.561 241.948 155.285 242.098C155.107 242.196 153.303 242.254 150.442 242.254C146.421 242.254 145.873 242.283 145.794 242.492C145.745 242.623 145.705 247.971 145.705 254.376C145.705 264.761 145.73 266.047 145.936 266.257C146.138 266.464 146.839 266.494 151.394 266.494C154.715 266.494 156.724 266.551 156.905 266.65C157.18 266.801 157.19 267.037 157.19 273.622C157.19 279.27 157.154 280.489 156.981 280.731C156.777 281.016 156.434 281.024 143.083 281.073L129.394 281.122L129.157 280.775ZM167.582 280.863C167.454 280.732 167.349 280.579 167.348 280.523C167.348 280.466 167.284 280.014 167.206 279.517C167.128 279.02 166.994 277.564 166.908 276.28C166.821 274.997 166.658 273.167 166.543 272.215C166.43 271.263 166.294 269.806 166.241 268.978C166.188 268.15 166.087 267.159 166.018 266.775C165.948 266.392 165.82 265.206 165.732 264.141C165.645 263.075 165.511 261.83 165.435 261.375C165.359 260.92 165.225 259.632 165.139 258.515C165.052 257.397 164.889 255.804 164.778 254.976C164.667 254.148 164.533 252.861 164.482 252.116C164.43 251.371 164.326 250.388 164.25 249.933C164.173 249.477 164.013 248.122 163.894 246.922C163.774 245.721 163.61 244.196 163.529 243.534C163.448 242.872 163.316 241.517 163.236 240.523C163.064 238.403 162.581 233.663 162.363 231.941C162.279 231.279 162.17 230.059 162.12 229.231C162.069 228.403 161.968 227.353 161.894 226.897C161.82 226.442 161.656 224.856 161.531 223.374C161.405 221.891 161.277 220.637 161.246 220.586C161.216 220.535 161.116 219.456 161.025 218.186C160.933 216.917 160.793 215.529 160.714 215.102C160.635 214.675 160.47 213.215 160.349 211.858C160.227 210.502 160.102 209.35 160.072 209.299C160.042 209.248 159.942 208.191 159.848 206.948C159.755 205.706 159.617 204.351 159.541 203.937C159.464 203.524 159.335 202.405 159.255 201.453C159.174 200.501 159.008 198.909 158.886 197.915C158.239 192.634 158.194 192.106 158.374 191.885C158.525 191.699 159.798 191.667 166.923 191.667H175.294L175.501 192.005C175.641 192.235 175.74 193.074 175.805 194.603C175.858 195.845 175.963 197.505 176.037 198.291C176.111 199.078 176.244 201.009 176.331 202.582C176.419 204.155 176.552 206.019 176.625 206.723C176.7 207.427 176.829 209.357 176.915 211.014C176.999 212.67 177.137 214.939 177.218 216.057C177.301 217.175 177.465 219.885 177.583 222.08C177.906 228.073 178.228 233.249 178.393 235.103C178.475 236.014 178.607 238.283 178.687 240.146C178.768 242.01 178.867 243.873 178.908 244.287C178.948 244.701 179.051 246.835 179.136 249.029C179.289 253.011 179.353 253.697 179.57 253.697C179.783 253.697 179.867 252.72 180.015 248.516C180.096 246.214 180.19 244.283 180.225 244.225C180.26 244.167 180.361 242.192 180.448 239.837C180.536 237.482 180.67 234.708 180.748 233.672C180.825 232.637 180.958 230.334 181.044 228.554C181.13 226.773 181.262 224.673 181.337 223.886C181.411 223.1 181.542 220.965 181.627 219.144C181.712 217.322 181.845 215.154 181.924 214.326C182.003 213.498 182.135 211.262 182.218 209.357C182.301 207.453 182.465 204.573 182.583 202.959C182.702 201.344 182.872 198.905 182.961 197.539C183.258 193.009 183.347 192.138 183.539 191.901C183.707 191.695 184.655 191.667 191.584 191.667C200.711 191.667 199.823 191.465 199.596 193.495C199.519 194.187 199.286 196.549 199.078 198.743C198.706 202.667 198.323 206.401 197.897 210.261C197.525 213.635 197.231 216.381 197.082 217.864C196.698 221.716 196.324 225.176 196.133 226.672C196.016 227.583 195.848 229.172 195.76 230.204C195.672 231.236 195.576 232.119 195.547 232.167C195.518 232.215 195.386 233.606 195.255 235.259C195.124 236.912 194.989 238.366 194.955 238.49C194.922 238.614 194.79 239.969 194.663 241.501C194.536 243.034 194.403 244.389 194.368 244.513C194.332 244.637 194.199 245.822 194.071 247.147C193.943 248.472 193.809 249.692 193.772 249.857C193.736 250.023 193.604 251.269 193.481 252.627C193.357 253.984 193.231 255.136 193.2 255.187C193.169 255.238 193.069 256.092 192.978 257.085C192.886 258.079 192.717 259.636 192.602 260.547C192.383 262.292 191.894 267.087 191.652 269.882C191.573 270.793 191.409 272.453 191.287 273.57C191.165 274.688 190.96 276.653 190.831 277.936C190.702 279.22 190.514 280.439 190.415 280.646L190.235 281.023L179.024 281.061C168.979 281.096 167.79 281.075 167.582 280.863ZM201.155 280.763C200.962 280.462 200.933 275.119 200.912 236.268C200.893 201.423 200.926 192.068 201.069 191.891C201.228 191.695 203.021 191.667 215.119 191.667C225.708 191.667 229.027 191.71 229.162 191.848C229.295 191.983 229.339 193.745 229.339 198.848C229.339 205.468 229.33 205.678 229.044 205.97C228.764 206.257 228.533 206.272 224.296 206.3C221.846 206.317 219.504 206.334 219.092 206.338C217.746 206.353 217.854 205.437 217.854 216.795C217.854 225.634 217.881 226.87 218.083 227.165C218.312 227.498 218.328 227.5 222.851 227.5C226.51 227.5 227.421 227.539 227.556 227.706C227.674 227.851 227.732 229.945 227.755 234.872C227.785 241.58 227.776 241.839 227.504 242.043C227.276 242.213 226.35 242.254 222.714 242.254C219.405 242.254 218.16 242.302 218.031 242.435C217.775 242.696 217.775 266.052 218.031 266.313C218.161 266.447 219.587 266.494 223.534 266.494C227.733 266.494 228.895 266.536 229.02 266.69C229.126 266.82 229.212 269.167 229.276 273.674C229.37 280.38 229.368 280.466 229.07 280.771C228.771 281.076 228.668 281.079 215.072 281.093L201.375 281.107L201.155 280.763ZM232.028 280.918C231.776 280.604 231.876 192.214 232.129 191.902C232.298 191.694 233.246 191.667 240.309 191.667C247.528 191.667 248.316 191.69 248.498 191.913C248.665 192.12 248.698 198.187 248.7 229.078C248.701 260.145 248.733 266.035 248.903 266.245C249.084 266.467 249.603 266.494 253.662 266.494C256.521 266.494 258.324 266.552 258.502 266.65C258.778 266.801 258.788 267.038 258.788 273.708C258.788 279.943 258.764 280.63 258.544 280.816C258.192 281.116 232.266 281.214 232.028 280.918ZM301.488 280.797C301.195 280.497 301.194 280.295 301.194 236.262C301.194 202.059 301.234 191.987 301.37 191.848C301.66 191.551 323.663 191.594 326.082 191.896C330.226 192.412 332.907 193.736 335.409 196.498C336.825 198.061 337.671 199.954 338.354 203.085C338.847 205.338 338.903 208.133 338.755 222.757C338.62 235.913 338.59 237 338.325 238.189C337.862 240.261 337.561 241.199 336.921 242.555C336.438 243.58 336.068 244.093 335.063 245.13C333.029 247.229 331.322 248.136 327.889 248.943C326.327 249.31 325.261 249.398 320.587 249.545C319.41 249.582 318.623 249.673 318.489 249.787C318.303 249.945 318.274 252.028 318.274 265.199C318.274 278.74 318.248 280.466 318.045 280.763L317.816 281.098H309.799C301.979 281.098 301.775 281.091 301.488 280.797ZM320.594 235.576C321.451 235.118 321.833 234.314 321.98 232.653C322.051 231.848 322.091 225.768 322.069 219.144C322.024 205.643 322.097 206.52 320.944 205.739C320.207 205.241 318.788 205.158 318.475 205.595C318.308 205.829 318.274 208.395 318.276 220.715C318.277 228.877 318.327 235.632 318.386 235.725C318.631 236.111 319.73 236.036 320.594 235.576ZM341.828 280.793C341.508 280.465 341.512 281.142 341.515 222.757C341.516 190.53 341.503 192.176 341.77 191.904C341.976 191.692 343.454 191.667 355.826 191.667C369.344 191.667 369.655 191.673 369.804 191.958C369.902 192.146 369.956 194.638 369.956 199.011C369.956 205.26 369.937 205.79 369.698 206.01C369.476 206.214 368.71 206.252 364.091 206.288C360.167 206.32 358.676 206.38 358.496 206.515C358.271 206.684 358.25 207.542 358.248 216.761C358.247 222.295 358.292 226.965 358.347 227.14C358.446 227.453 358.525 227.459 363.221 227.53C365.846 227.569 368.071 227.651 368.165 227.71C368.415 227.868 368.409 241.818 368.16 242.074C368.03 242.207 366.732 242.254 363.236 242.254C359.6 242.254 358.46 242.298 358.369 242.442C358.223 242.675 358.169 265.465 358.314 266.019L358.419 266.419L364.025 266.425C368.468 266.43 369.68 266.473 369.867 266.632C370.077 266.81 370.103 267.59 370.103 273.796C370.103 279.507 370.067 280.791 369.902 280.931C369.754 281.057 365.999 281.101 355.909 281.096C342.387 281.09 342.113 281.084 341.828 280.793ZM372.903 280.799C372.612 280.502 372.611 280.2 372.608 236.321C372.605 196.28 372.626 192.12 372.837 191.904C373.045 191.692 374.26 191.667 384.217 191.667C393.297 191.667 395.699 191.709 397.171 191.896C401.556 192.45 404.698 194.005 406.909 196.711C408.169 198.252 409.269 201.1 409.643 203.787C409.901 205.636 409.952 223.207 409.706 225.715C409.335 229.512 408.149 231.944 405.697 233.936C405.111 234.412 404.217 235.003 403.711 235.248C403.167 235.512 402.792 235.789 402.794 235.925C402.795 236.066 403.312 236.414 404.108 236.812C407.171 238.342 408.876 240.589 409.607 244.061C409.69 244.454 409.794 251.164 409.855 260.02C409.965 276.163 409.96 276.047 410.681 279.458C410.883 280.415 410.896 280.684 410.745 280.869C410.583 281.069 409.558 281.098 402.728 281.098C396.677 281.098 394.839 281.055 394.643 280.909C394.264 280.625 393.99 279.368 393.635 276.28C393.334 273.666 393.309 272.615 393.23 259.192C393.167 248.399 393.103 244.811 392.968 244.571C392.568 243.857 391.787 243.335 390.962 243.229C389.986 243.105 389.598 243.214 389.488 243.646C389.441 243.826 389.401 252.208 389.398 262.272L389.392 280.571L389.081 280.834C388.794 281.078 388.183 281.098 380.983 281.098C373.409 281.098 373.187 281.09 372.903 280.799ZM391.839 228.987C392.091 228.831 392.489 228.416 392.722 228.064L393.147 227.424V217.082V206.74L392.631 206.191C391.965 205.483 391.836 205.419 390.843 205.292C389.343 205.101 389.473 203.996 389.414 217.348C389.354 230.595 389.248 229.542 390.621 229.366C391.038 229.313 391.587 229.142 391.839 228.987ZM66.3315 247.054C66.2107 246.824 66.1783 244.564 66.216 238.961C66.2631 231.801 66.2873 231.168 66.5246 230.925C66.7644 230.68 67.3698 230.661 75 230.661C81.3503 230.661 83.2709 230.704 83.4529 230.849C83.6614 231.017 83.6932 231.924 83.7385 238.956C83.7804 245.503 83.7544 246.918 83.5872 247.124C83.4034 247.351 82.6218 247.373 74.9416 247.373H66.4987L66.3315 247.054Z" fill="#FBF9F6"/>
  <path clip-rule="evenodd" fill-rule="evenodd" d="M31.2272 373.042C31.19 373.004 30.4426 372.904 29.5657 372.819C27.8376 372.652 26.9153 372.422 25.209 371.737C23.5293 371.063 22.5999 370.442 21.2941 369.122C19.2616 367.066 18.1708 364.504 17.5436 360.311C17.2255 358.184 17.2196 357.92 17.3156 349.475C17.3898 342.978 17.4593 340.774 17.5936 340.639C17.7962 340.437 32.2325 340.302 32.5453 340.5C32.6748 340.582 32.7184 342.766 32.7184 349.172C32.7184 354.856 32.7708 357.878 32.8751 358.159C32.9611 358.392 33.2055 358.769 33.4181 358.997C34.1549 359.787 35.433 359.408 35.9018 358.261C36.065 357.863 36.105 356.34 36.105 350.548C36.105 342.403 36.085 342.228 34.9636 340.586C34.2026 339.473 28.9467 334.871 25.0394 331.899C23.0163 330.359 20.3235 327.287 19.344 325.402C18.4995 323.776 17.7456 321.469 17.5577 319.935C17.3574 318.301 17.3557 301.857 17.5553 300.29C18.1796 295.399 19.9089 292.075 23.0004 289.825C25.7803 287.803 29.4856 287.037 35.7369 287.194C39.9375 287.299 42.5342 287.924 44.9691 289.418C46.4097 290.303 47.0198 290.876 48.199 292.448C49.9093 294.729 50.6732 296.82 51.0319 300.201C51.3441 303.139 51.2928 317.152 50.9695 317.465C50.8005 317.629 49.8169 317.683 46.2648 317.724C38.9509 317.808 36.608 317.748 36.3365 317.47C36.1327 317.261 36.105 316.373 36.105 309.979C36.105 305.711 36.0461 302.513 35.9613 302.212C35.5037 300.58 33.6838 300.416 33.0047 301.945C32.7449 302.531 32.7249 303.009 32.7214 308.703L32.7184 314.83L33.0895 316.032C33.7267 318.094 34.642 319.129 38.5345 322.193C39.7496 323.149 41.3728 324.483 42.142 325.157C42.9112 325.832 44.2034 326.928 45.0132 327.594C46.7436 329.017 48.3562 330.714 49.1549 331.953C50.1791 333.542 50.5843 334.555 51.0149 336.601C51.3176 338.044 51.3335 338.54 51.3812 348.458C51.4301 358.449 51.4206 358.87 51.1209 360.578C50.4966 364.135 49.5713 366.378 47.8444 368.52C46.832 369.775 46.0039 370.443 44.5738 371.153C42.5066 372.181 40.9528 372.645 38.7554 372.889C36.9349 373.092 31.3862 373.205 31.2272 373.042ZM77.6417 372.87C76.2482 372.611 75.1156 372.208 73.6125 371.435C71.0075 370.096 68.8713 367.139 67.9148 363.551C67.1833 360.805 67.1792 360.604 67.1792 330.353C67.1792 300.23 67.1851 299.956 67.8942 297.231C68.8401 293.597 70.6983 290.922 73.2839 289.47C73.4459 289.379 73.7109 289.228 73.8729 289.134C74.9354 288.521 76.5992 287.962 78.511 287.574C80.0341 287.265 80.6331 287.23 84.4744 287.227C88.4346 287.223 88.851 287.248 90.2168 287.573C92.6699 288.157 93.9798 288.681 95.5176 289.692C98.198 291.454 99.7971 293.97 100.739 297.908C101.026 299.109 101.078 299.897 101.197 304.834C101.363 311.744 101.348 318.448 101.166 318.798C101.038 319.043 100.532 319.061 93.7507 319.061C86.6359 319.061 86.4692 319.055 86.3155 318.762C86.2095 318.559 86.1706 315.938 86.1947 310.594C86.2289 302.943 86.2218 302.707 85.9285 302.048C85.5433 301.184 85.2865 300.975 84.4985 300.884C83.6392 300.785 83.0167 301.132 82.6103 301.939L82.2899 302.575L82.2775 330.203L82.2657 357.83L82.6044 358.382C83.062 359.128 83.5291 359.411 84.3018 359.411C85.0981 359.411 85.6529 359.006 86.0357 358.143C86.2913 357.567 86.3084 356.963 86.3119 348.486C86.3143 341.481 86.2737 339.388 86.1311 339.197C86.0198 339.047 85.6841 338.931 85.2842 338.904L84.6216 338.86L84.5297 336.074C84.4797 334.542 84.4296 331.511 84.4196 329.337C84.4019 325.632 84.4184 325.367 84.6823 325.097C84.952 324.821 85.2954 324.808 92.912 324.79C100.079 324.774 100.884 324.796 101.1 325.017C101.321 325.243 101.337 327.188 101.296 348.594C101.257 368.92 101.224 371.942 101.034 372.064C100.764 372.239 92.2034 372.25 91.9337 372.076C91.8253 372.006 91.608 371.278 91.4507 370.46C91.2929 369.642 91.0732 368.879 90.9613 368.765C90.7893 368.589 90.7045 368.645 90.3977 369.141C89.655 370.339 88.0235 371.646 86.4621 372.295C84.5998 373.068 80.2432 373.353 77.6417 372.87ZM116.275 372.883C111.291 372.306 108.109 370.321 105.85 366.381C104.967 364.841 104.329 362.803 103.975 360.39C103.695 358.49 103.688 357.593 103.741 330.127C103.8 299.787 103.778 300.733 104.52 297.689C105.677 292.947 108.683 289.522 112.932 288.104C113.522 287.907 114.176 287.745 114.385 287.745C114.593 287.745 115.171 287.629 115.669 287.486C117.022 287.097 124.068 287.112 126.071 287.507C129.059 288.098 131.316 289.037 132.682 290.259C133.675 291.147 135.353 293.276 135.923 294.369C136.616 295.697 137.227 297.759 137.555 299.876C137.853 301.797 137.857 302.198 137.813 330.73C137.769 359.456 137.766 359.646 137.457 361.218C136.875 364.179 136.518 365.262 135.608 366.828C133.691 370.126 130.067 372.393 125.997 372.839C123.755 373.085 118.234 373.11 116.275 372.883ZM121.837 358.997C122.05 358.769 122.304 358.379 122.403 358.131C122.542 357.781 122.575 351.451 122.551 329.915C122.517 299.933 122.564 301.648 121.769 301.079C121.588 300.95 121.219 300.844 120.948 300.844C120.034 300.844 119.425 301.394 119.16 302.457C118.955 303.276 118.973 357.649 119.178 358.206C119.254 358.414 119.49 358.769 119.703 358.997C120.015 359.332 120.218 359.411 120.77 359.411C121.321 359.411 121.525 359.332 121.837 358.997ZM301.29 372.88C299.301 372.659 297.888 372.253 296.063 371.382C293.607 370.209 291.96 368.594 290.845 366.261C289.4 363.24 289.222 361.469 289.219 349.997C289.216 342.194 289.243 341.069 289.445 340.775L289.674 340.441H296.872C301.833 340.441 304.1 340.491 304.167 340.602C304.221 340.691 304.281 344.57 304.301 349.221C304.327 355.444 304.384 357.799 304.516 358.131C305.154 359.739 306.793 359.864 307.386 358.351C307.745 357.431 307.9 344.599 307.571 343.029C307.086 340.726 306.377 339.888 301.503 335.858C292.025 328.02 290.149 325.489 289.43 319.561C289.116 316.966 289.123 302.4 289.441 299.859C290.11 294.505 292.244 290.952 295.918 289.074C297.063 288.489 298.548 287.96 299.449 287.817C299.773 287.765 300.535 287.612 301.142 287.475C302.011 287.28 303.033 287.229 305.928 287.235C309.082 287.241 309.833 287.288 311.174 287.564C313.94 288.133 316.184 289.059 317.702 290.259C319.298 291.52 321.001 294.145 321.736 296.478C322.477 298.831 322.541 299.747 322.602 308.834C322.653 316.388 322.633 317.374 322.431 317.546C322.252 317.698 320.712 317.734 315.176 317.715C311.013 317.701 308.08 317.633 307.981 317.549C307.862 317.447 307.79 315.244 307.733 309.904C307.657 302.705 307.641 302.377 307.349 301.792C307.013 301.119 306.812 300.994 306.053 300.994C305.345 300.994 305.021 301.207 304.677 301.897C304.395 302.461 304.382 302.782 304.382 308.889V315.291L304.744 316.274C305.433 318.145 306.133 318.914 310.179 322.242C315.009 326.215 315.356 326.506 317.055 328.02C320.566 331.146 321.577 332.79 322.193 336.376C322.638 338.964 322.654 339.441 322.654 349.36C322.652 359.51 322.595 360.541 321.878 363.401C321.258 365.877 319.677 368.438 317.806 370.004C316.578 371.032 314.54 372.083 313.143 372.411C310.274 373.083 304.986 373.293 301.29 372.88ZM338.235 373.053C338.202 373.02 337.479 372.918 336.628 372.825C333.45 372.479 331.402 371.678 329.375 369.99C327.074 368.073 325.735 365.656 325.099 362.271C324.824 360.809 324.797 359.949 324.743 350.822C324.687 341.451 324.698 340.942 324.951 340.71C325.187 340.494 326.01 340.461 332.237 340.421C338.733 340.378 339.279 340.394 339.54 340.636C339.812 340.887 339.823 341.204 339.822 349.063C339.822 353.554 339.871 357.517 339.932 357.87C340.069 358.675 340.741 359.411 341.34 359.411C341.881 359.411 342.6 358.789 342.809 358.14C342.919 357.801 342.983 355.195 343.003 350.277L343.033 342.922L342.598 341.794C342.21 340.79 342 340.501 340.679 339.161C339.863 338.333 338.204 336.843 336.991 335.851C332.28 331.994 328.564 328.436 327.591 326.851C326.788 325.541 325.948 323.761 325.659 322.75C324.728 319.492 324.67 318.598 324.737 308.598C324.803 298.902 324.856 298.247 325.784 295.72C327.236 291.767 329.912 289.275 333.904 288.156C337.351 287.189 340.064 286.952 343.917 287.28C347.244 287.563 349.524 288.123 351.308 289.095C353.621 290.355 355.266 292.086 356.428 294.482C357.15 295.971 357.465 297.205 357.842 300.016C358.119 302.079 358.142 302.917 358.111 309.727C358.092 313.826 358.025 317.287 357.961 317.418C357.863 317.623 357.352 317.67 354.415 317.739C352.528 317.783 349.306 317.777 347.254 317.726C343.937 317.641 343.504 317.602 343.336 317.367C343.192 317.166 343.131 315.373 343.077 309.67C343.007 302.36 343 302.227 342.685 301.705C342.319 301.099 342.123 300.994 341.353 300.994C340.745 300.994 340.294 301.368 340.025 302.096C339.816 302.66 339.815 313.673 340.024 314.996C340.344 317.025 341.957 319.428 344.036 320.972C345.791 322.275 348.91 324.816 350.837 326.509C351.971 327.506 353.22 328.589 353.613 328.916C355.27 330.297 356.874 332.831 357.428 334.945C358.07 337.393 358.127 338.544 358.126 348.98C358.126 357.193 358.086 359.236 357.897 360.573C357.142 365.934 355.251 369.053 351.436 371.228C349.224 372.489 345.822 373.109 341.107 373.111C339.561 373.111 338.269 373.085 338.235 373.053ZM427.183 372.87C423.067 372.209 420.319 370.166 418.436 366.367C417.87 365.224 417.083 361.895 416.88 359.787C416.751 358.445 416.721 350.619 416.765 329.375C416.828 298.431 416.782 300.212 417.598 297.171C418.259 294.707 419.409 292.648 421.041 291.008C422.884 289.154 424.901 288.234 428.729 287.5C430.85 287.094 437.276 287.09 439.109 287.494C441.634 288.051 442.068 288.198 443.94 289.132C445.429 289.875 447.164 291.477 448.198 293.064C449.392 294.894 449.851 296.17 450.321 298.962C450.601 300.625 450.629 301.48 450.67 309.727C450.699 315.709 450.664 318.748 450.562 318.873C450.445 319.019 448.812 319.061 443.31 319.061C436.715 319.061 436.193 319.043 435.975 318.796C435.769 318.563 435.729 317.539 435.648 310.328C435.559 302.477 435.542 302.104 435.26 301.638C434.615 300.57 433.103 300.649 432.366 301.788L431.968 302.402L431.929 330.157C431.887 360.852 431.814 358.487 432.822 359.116C433.504 359.542 434.273 359.499 434.848 359.004C435.754 358.224 435.74 358.382 435.82 348.96C435.86 344.233 435.835 340.094 435.765 339.763C435.644 339.19 435.608 339.158 435.029 339.115C434.694 339.09 434.341 338.972 434.245 338.854C434.117 338.695 434.071 336.885 434.073 331.907C434.075 325.623 434.093 325.163 434.339 324.979C434.546 324.824 436.224 324.783 442.427 324.783C449.823 324.783 450.267 324.798 450.498 325.058C450.722 325.311 450.741 327.161 450.741 348.602C450.741 370.082 450.723 371.886 450.498 372.077C450.153 372.368 441.207 372.321 440.949 372.026C440.855 371.919 440.699 371.24 440.602 370.516C440.506 369.793 440.388 369.098 440.341 368.973C440.194 368.579 439.735 368.725 439.405 369.27C438.529 370.719 436.101 372.264 433.836 372.814C432.381 373.168 429.201 373.194 427.183 372.87ZM179.75 372.129L179.446 371.973V330.349C179.446 290.907 179.46 288.71 179.703 288.461C179.945 288.214 180.731 288.197 192.017 288.197C201.487 288.197 204.105 288.237 204.218 288.385C204.305 288.498 204.402 291.146 204.459 294.958C204.546 300.79 204.533 301.367 204.309 301.621C204.08 301.879 203.742 301.898 199.393 301.898C195.432 301.898 194.694 301.932 194.54 302.122C194.285 302.436 194.379 321.095 194.637 321.455C194.788 321.666 195.319 321.696 198.882 321.696C202.744 321.696 202.966 321.711 203.164 321.988C203.454 322.394 203.478 335.687 203.189 335.875C203.088 335.941 201.124 336.007 198.824 336.022C195.529 336.044 194.617 336.092 194.516 336.25C194.314 336.566 194.387 357.844 194.592 358.118C194.733 358.31 195.469 358.35 199.385 358.376C203.386 358.402 204.042 358.438 204.244 358.645C204.449 358.854 204.483 359.692 204.526 365.367C204.568 370.817 204.542 371.878 204.367 372.026C204.089 372.262 180.207 372.361 179.75 372.129ZM259.816 372.208C257.697 372.167 255.908 372.076 255.841 372.007C255.773 371.938 255.713 361.979 255.707 349.875C255.702 337.772 255.683 327.767 255.666 327.643C255.585 327.05 255.366 327.992 255.209 329.6C255.116 330.553 254.98 331.605 254.907 331.939C254.834 332.273 254.709 333.459 254.63 334.574C254.55 335.689 254.381 337.787 254.254 339.236C254.127 340.685 253.922 343.023 253.8 344.43C253.678 345.838 253.478 348.074 253.354 349.399C253.231 350.724 253.036 353.027 252.92 354.518C252.712 357.175 252.467 359.724 252.029 363.777C251.907 364.895 251.741 366.656 251.659 367.692C251.401 370.935 251.298 371.713 251.095 371.964C250.918 372.182 250.237 372.208 244.748 372.208C239.843 372.208 238.568 372.168 238.439 372.01C238.351 371.901 238.207 370.834 238.12 369.639C238.034 368.444 237.903 367.127 237.832 366.713C237.759 366.299 237.659 365.316 237.609 364.53C237.559 363.743 237.419 362.456 237.297 361.669C237.177 360.883 236.985 359.29 236.873 358.131C236.527 354.567 236.348 352.927 236.12 351.249C235.999 350.362 235.84 348.703 235.764 347.561C235.689 346.418 235.56 344.976 235.479 344.355C235.398 343.734 235.262 342.481 235.177 341.57C235.093 340.659 234.927 339.169 234.808 338.258C234.689 337.346 234.424 334.757 234.219 332.502C233.842 328.362 233.78 327.944 233.542 327.944C233.371 327.944 233.384 326.039 233.399 350.305C233.411 369.336 233.389 371.571 233.183 371.872L232.952 372.208H226.573C220.995 372.208 220.171 372.179 220.006 371.975C219.852 371.786 219.835 363.927 219.918 330.157C220.012 291.629 220.037 288.56 220.265 288.385C220.455 288.239 222.728 288.197 230.461 288.197C238.907 288.197 240.459 288.23 240.717 288.415C240.986 288.608 241.033 288.847 241.118 290.485C241.172 291.504 241.282 292.879 241.363 293.542C241.569 295.22 241.917 298.79 242.169 301.823C242.371 304.246 242.569 306.368 243.061 311.383C243.268 313.49 243.532 316.612 243.863 320.868C244.165 324.761 244.303 326 244.469 326.318C244.814 326.976 244.966 326.18 245.194 322.524C245.278 321.158 245.409 319.498 245.484 318.836C245.558 318.173 245.69 316.547 245.777 315.222C245.865 313.897 246.031 312.068 246.147 311.157C246.263 310.246 246.426 308.519 246.511 307.318C246.595 306.117 246.696 304.932 246.734 304.683C246.773 304.434 246.87 303.283 246.951 302.124C247.03 300.964 247.195 298.966 247.316 297.682C247.437 296.399 247.613 294.298 247.706 293.015C248.004 288.914 248.057 288.49 248.287 288.342C248.414 288.26 252.669 288.193 258.589 288.182C269.171 288.162 269.201 288.162 269.371 288.327C269.521 288.472 269.536 371.916 269.387 372.063C269.22 372.228 264.485 372.299 259.816 372.208ZM272.319 372.209L271.988 372.067V330.366V288.666L272.316 288.431C272.6 288.227 273.533 288.197 279.514 288.197C285.859 288.197 286.41 288.218 286.706 288.463L287.027 288.728L287.024 330.342C287.021 364.24 286.985 371.979 286.83 372.08C286.725 372.148 283.682 372.205 280.068 372.206C276.455 372.207 273.307 372.24 273.074 372.28C272.841 372.319 272.502 372.287 272.319 372.209ZM382.875 372.246C379.764 372.218 378.185 372.149 378.053 372.037C377.777 371.804 377.758 288.659 378.033 288.378C378.166 288.242 380.164 288.197 386.123 288.197H394.036L394.265 288.532C394.392 288.716 394.495 289.144 394.495 289.483C394.495 289.822 394.588 290.434 394.702 290.842C394.816 291.25 394.953 291.991 395.006 292.488C395.059 292.985 395.164 293.63 395.238 293.923C395.312 294.215 395.442 294.994 395.528 295.654C395.615 296.315 395.775 297.294 395.885 297.833C395.994 298.371 396.199 299.421 396.34 300.166C396.658 301.855 396.904 303.134 397.206 304.683C397.608 306.74 397.99 308.822 398.326 310.781C398.504 311.816 398.738 313.137 398.848 313.717C398.957 314.296 399.089 315.11 399.14 315.523C399.192 315.937 399.321 316.649 399.427 317.104C399.533 317.559 399.661 318.372 399.713 318.911C399.765 319.449 399.899 320.431 400.012 321.094C400.125 321.756 400.282 322.792 400.362 323.396C400.509 324.521 400.759 325.062 401.011 324.804C401.096 324.718 401.141 317.693 401.128 306.589C401.108 288.723 401.11 288.514 401.399 288.357C401.74 288.169 413.752 288.133 414.036 288.318C414.319 288.502 414.343 371.889 414.06 372.072C413.654 372.335 399.377 372.311 398.892 372.047C398.748 371.968 398.614 371.629 398.556 371.196C398.503 370.801 398.366 370.003 398.254 369.423C398.141 368.843 397.907 367.522 397.735 366.487C397.388 364.403 396.957 362.111 396.548 360.164C395.892 357.039 395.353 354.152 395.003 351.883C394.882 351.096 394.723 350.25 394.649 350.001C394.575 349.752 394.475 349.245 394.425 348.872C394.375 348.499 394.242 347.754 394.129 347.216C394.015 346.677 393.813 345.56 393.678 344.731C393.543 343.903 393.308 342.515 393.155 341.645C393.001 340.775 392.777 339.403 392.655 338.595C392.533 337.787 392.374 336.839 392.301 336.488C392.228 336.136 392.125 335.442 392.072 334.945C391.953 333.822 391.409 331.859 391.216 331.859C391.129 331.859 391.107 332.283 391.16 332.95C391.344 335.246 391.424 341.498 391.463 356.446L391.504 371.923L391.199 372.141C390.969 372.306 390.485 372.35 389.198 372.323C388.264 372.304 385.419 372.269 382.875 372.246ZM0.32496 372.061C0.130011 371.935 0.0952612 367.086 0.0304743 330.397C-0.0290119 296.946 -0.00663052 288.809 0.144146 288.536L0.332029 288.197L7.5063 288.199C11.4524 288.201 14.7618 288.254 14.8602 288.318C14.9998 288.409 15.0446 297.574 15.0634 330.121C15.0864 370.275 15.0775 371.815 14.819 372.008C14.6052 372.168 13.1481 372.208 7.5487 372.206C3.39292 372.205 0.456301 372.146 0.32496 372.061ZM140.383 372.028C140.246 371.888 140.206 362.405 140.206 330.259C140.206 292.652 140.228 288.648 140.437 288.434C140.642 288.225 141.57 288.197 148.429 288.197C157.093 288.197 156.844 288.168 156.844 289.185C156.844 289.726 157.247 292.024 157.727 294.219C157.881 294.923 158.048 295.77 158.098 296.101C158.148 296.433 158.283 297.178 158.399 297.757C158.903 300.3 159.379 302.843 159.849 305.511C160.241 307.738 160.54 309.368 160.744 310.404C160.858 310.984 161.09 312.305 161.259 313.34C161.428 314.375 161.804 316.475 162.095 318.007C162.387 319.54 162.709 321.39 162.812 322.119C163.006 323.49 163.263 324.331 163.488 324.331C163.562 324.331 163.617 316.645 163.617 306.498V288.666L163.945 288.431C164.228 288.228 165.101 288.197 170.488 288.197C174.154 288.197 176.739 288.254 176.789 288.337C176.836 288.414 176.903 307.213 176.938 330.113C176.995 367.262 176.978 371.774 176.778 371.979C176.583 372.178 175.569 372.208 169 372.208C163.133 372.208 161.412 372.166 161.296 372.02C161.215 371.917 161.103 371.595 161.048 371.305C160.993 371.015 160.858 370.338 160.747 369.799C160.637 369.261 160.478 368.347 160.395 367.767C160.133 365.959 159.663 363.451 158.983 360.239C158.714 358.966 158.215 356.131 158.096 355.195C158.048 354.822 157.916 354.078 157.803 353.539C157.56 352.394 157.055 349.662 156.924 348.797C156.874 348.465 156.736 347.754 156.617 347.216C156.262 345.608 155.946 343.908 155.745 342.533C155.641 341.82 155.484 341.007 155.397 340.726C155.309 340.445 155.163 339.641 155.073 338.939C154.981 338.238 154.881 337.62 154.848 337.566C154.815 337.511 154.716 336.798 154.629 335.98C154.468 334.497 153.977 331.959 153.789 331.648C153.576 331.296 153.494 332.585 153.609 334.476C153.676 335.567 153.746 344.441 153.766 354.197C153.796 369.371 153.772 371.953 153.593 372.069C153.257 372.286 140.597 372.247 140.383 372.028ZM360.636 371.991C360.5 371.824 360.457 362.264 360.448 330.4C360.443 307.644 360.483 288.879 360.539 288.701C360.594 288.523 360.788 288.339 360.969 288.293C361.474 288.163 374.961 288.183 375.159 288.313C375.292 288.401 375.344 298.268 375.379 330.069C375.42 365.194 375.395 371.749 375.225 371.96C375.041 372.185 374.347 372.208 367.917 372.208C361.911 372.208 360.785 372.175 360.636 371.991Z" fill="#BD3133"/>
  </g>
  <defs>
    <clipPath id="clip"><rect fill="white" width="450.741" height="373.12"/></clipPath>
  </defs>
</svg>
