<svg xmlns="http://www.w3.org/2000/svg" fill="none" viewBox="0 0 865.369 268.188" preserveAspectRatio="none">
  <g clip-path="url(#clip)">
  <path clip-rule="evenodd" fill-rule="evenodd" d="M191.575 267.441C185.519 266.996 179.089 265.99 175.496 264.925C170.529 263.452 167.801 262.436 165.601 261.242C164.845 260.832 163.856 260.31 163.402 260.081C161.46 259.106 157.053 256.011 155.376 254.443C153.272 252.478 150.225 248.953 148.359 246.329C147.07 244.516 145.63 241.759 144.176 238.316C143.76 237.333 143.183 235.973 142.891 235.293C141.909 232.988 140.639 227.586 139.889 222.512C139.378 219.049 139.361 216.343 139.357 135.178C139.351 53.115 139.362 51.3405 139.895 47.6343C141.364 37.438 144.005 29.8815 148.554 22.8615C150.898 19.2432 154.599 15.2159 158.41 12.1375C160.609 10.3608 165.197 7.57476 167.662 6.51929C168.645 6.0993 169.656 5.64081 169.911 5.50228C171.184 4.81073 176.667 3.28141 181.543 2.25893C186.548 1.21005 191.626 0.75596 199.821 0.626225C206.51 0.520678 208.478 0.588856 213.289 1.0924C222.156 2.02144 226.931 3.08568 234.041 5.71886C236.811 6.74465 242.741 10.1211 245.125 12.0308C248.218 14.5079 250.314 16.5089 251.878 18.4758C254.174 21.363 256.026 24.0907 257.456 26.6942C257.906 27.5133 258.411 28.4313 258.579 28.7337C259.248 29.9452 260.291 32.4344 260.291 32.8236C260.291 33.0501 260.401 33.304 260.535 33.3876C260.67 33.4701 260.858 33.8802 260.955 34.2969C261.051 34.7147 261.363 35.8592 261.646 36.8421C262.581 40.08 263.12 42.7099 263.476 45.7751C263.668 47.4386 263.964 49.8497 264.131 51.1349C264.351 52.816 264.409 76.1056 264.34 134.143C264.253 207.181 264.2 215.271 263.781 219.626C263.237 225.289 262.182 230.179 260.548 234.606C259.346 237.861 258.647 239.616 258.248 240.383C258.013 240.834 257.819 241.301 257.819 241.421C257.816 241.777 255.316 246.056 254.414 247.249C250.388 252.574 244.549 257.513 239.126 260.18C238.143 260.664 237.031 261.152 236.652 261.265C236.274 261.379 235.838 261.574 235.681 261.698C234.787 262.408 224.986 265.408 221.81 265.943C215.214 267.056 209.852 267.509 202.295 267.59C198.138 267.635 193.313 267.568 191.575 267.441ZM204.356 225.019C205.111 224.662 205.999 224.076 206.326 223.717C207.246 222.705 208.031 220.087 208.328 217.037C208.632 213.922 208.664 68.9724 208.363 56.2199C208.19 48.8899 208.15 48.4644 207.542 47.2869C206.636 45.5332 206.199 45.11 204.528 44.3689C201.494 43.0232 197.801 43.928 196.143 46.4227C194.528 48.8536 194.584 45.398 194.688 135.901C194.75 190.673 194.878 218.943 195.065 220.038C195.39 221.936 196.006 223.075 197.294 224.159C199.221 225.779 202.021 226.12 204.356 225.019ZM336.076 264.291C335.568 264.025 335.549 263.31 335.466 240.701C335.417 227.877 335.295 217.301 335.193 217.2C335.091 217.098 320.222 216.998 302.151 216.977C274.724 216.946 269.256 216.878 269.055 216.565C268.924 216.358 268.847 206.962 268.884 195.575L268.952 174.96L269.737 172.349C270.169 170.913 270.695 168.934 270.905 167.951C271.116 166.969 271.407 165.917 271.553 165.615C271.701 165.313 272.202 163.52 272.668 161.63C273.48 158.344 274.279 155.391 276.243 148.436C276.733 146.698 277.289 144.595 277.477 143.764C278.398 139.715 280.26 132.632 281.742 127.547C282.205 125.959 282.806 123.671 283.078 122.462C283.555 120.34 284.639 116.239 285.476 113.391C285.698 112.636 286.06 111.231 286.281 110.27C286.5 109.309 286.767 108.384 286.872 108.214C286.977 108.045 287.21 107.162 287.39 106.251C287.571 105.341 288.302 102.369 289.016 99.6482C289.73 96.927 290.486 93.9145 290.697 92.9536C290.907 91.9927 291.16 91.0758 291.258 90.9174C291.356 90.758 291.6 89.9367 291.799 89.0912C292.55 85.9028 294.114 79.8108 294.488 78.6212C294.919 77.2458 296.073 73.1096 296.557 71.1999C297.419 67.8048 298.013 65.4212 298.337 64.0535C298.534 63.2223 298.912 61.7996 299.177 60.8926C299.442 59.9855 299.82 58.6871 300.018 58.0065C300.216 57.3259 300.459 56.2749 300.558 55.6702C300.657 55.0655 300.913 54.0144 301.126 53.3338C301.341 52.6533 301.69 51.4164 301.905 50.5852C302.119 49.754 302.803 47.2187 303.424 44.9505C304.045 42.6824 304.738 39.9964 304.964 38.9816C305.188 37.9657 305.491 36.8531 305.639 36.5078C305.785 36.1626 306.349 34.1484 306.893 32.032C307.436 29.9156 308.116 27.3176 308.403 26.2599C308.688 25.2022 309.31 22.7285 309.782 20.7626C310.759 16.6991 311.593 13.6591 312.008 12.6542C312.164 12.276 312.518 10.9775 312.794 9.76815C313.731 5.6694 313.91 5.0955 314.365 4.75138C315.065 4.22144 386.804 4.25111 387.245 4.78214C387.474 5.05811 387.554 27.1428 387.55 89.0792C387.546 142.393 387.641 173.098 387.809 173.266C387.965 173.422 390.713 173.516 394.518 173.496C399.621 173.469 401.027 173.538 401.271 173.831C401.491 174.096 401.594 180.176 401.633 195.127C401.681 213.194 401.634 216.106 401.285 216.448C400.962 216.768 399.649 216.856 394.561 216.898C390.901 216.929 388.094 217.065 387.895 217.222C387.626 217.435 387.552 222.423 387.552 240.496C387.552 258.468 387.477 263.6 387.209 263.961C386.891 264.389 384.925 264.43 361.732 264.495C345.372 264.541 336.418 264.47 336.076 264.291ZM335.301 172.95C335.471 172.632 335.581 153.242 335.604 119.696C335.624 90.68 335.632 66.6988 335.622 66.403C335.609 66.0314 335.515 65.9555 335.316 66.1545C335.158 66.3129 334.914 67.5497 334.774 68.9042C334.489 71.6583 333.59 77.48 332.997 80.4078C332.783 81.4655 332.348 83.8776 332.03 85.7676C331.712 87.6576 331.216 90.4403 330.927 91.952C330.154 95.9936 329.643 98.8148 328.336 106.245C327.943 108.481 327.21 112.291 326.644 115.04C326.426 116.098 326.055 118.078 325.82 119.438C324.995 124.22 323.162 133.633 322.26 137.717C322.043 138.699 321.669 140.493 321.428 141.702C321.188 142.911 320.503 146.252 319.907 149.123C319.311 151.995 318.637 155.384 318.41 156.654C318.182 157.922 317.935 159.058 317.861 159.178C317.74 159.372 317.35 161.295 316.215 167.284C316.012 168.353 315.663 170.022 315.439 170.993C315.153 172.23 315.117 172.86 315.318 173.102C315.539 173.368 317.849 173.449 325.32 173.449C334.423 173.449 335.051 173.417 335.301 172.95ZM68.8534 264.16C68.7621 264.013 68.6951 253.511 68.705 240.822C68.7214 220.37 68.6753 217.704 68.2982 217.328C67.92 216.949 64.3292 216.903 35.5159 216.904C17.718 216.906 2.58956 216.9 1.89581 216.892C0.828243 216.879 0.58638 216.772 0.324711 216.2C0.105921 215.719 0.0124427 209.814 0.00364715 195.928C-0.00954625 174.836 -0.0634018 175.763 1.49892 170.15C1.89802 168.714 2.34 166.983 2.48073 166.302C2.7512 164.988 3.24265 163.093 4.97868 156.682C6.23755 152.03 6.7136 150.238 7.24133 148.161C7.45243 147.33 8.14947 144.671 8.79045 142.252C9.43143 139.833 10.1065 137.162 10.2923 136.317C10.4781 135.472 10.7134 134.644 10.8168 134.476C10.9817 134.209 13.6929 123.91 14.6659 119.851C14.866 119.019 15.2299 117.72 15.4751 116.964C15.8874 115.698 16.2788 114.196 17.4497 109.406C17.6894 108.423 18.1853 106.63 18.5503 105.42C18.9164 104.211 19.4672 102.232 19.7751 101.022C20.0829 99.8131 20.7239 97.4009 21.1989 95.6626C21.9916 92.7634 22.4907 90.7712 23.4813 86.5537C23.6814 85.7006 24.0475 84.3405 24.2949 83.5303C25.3647 80.0296 26.1508 77.1622 26.7819 74.4598C26.9809 73.6066 27.3305 72.3082 27.5603 71.5737C27.789 70.8393 28.2463 69.1868 28.5762 67.9015C28.906 66.6163 29.3975 64.7615 29.669 63.7786C29.9406 62.7957 30.2869 61.4973 30.4386 60.8926C30.5914 60.2879 31.1049 58.4331 31.5821 56.7696C32.0592 55.1062 32.6991 52.7566 33.0058 51.5472C33.3115 50.3378 33.7293 48.792 33.9327 48.1115C34.1361 47.4309 34.3823 46.4414 34.4802 45.9126C34.578 45.3837 34.8265 44.5174 35.0321 43.9885C35.4004 43.0441 36.4394 39.5533 37.0782 37.117C37.2563 36.4364 37.6345 35.0764 37.9193 34.0935C39.6015 28.2741 40.7503 24.1226 41.1 22.6009C41.3199 21.6477 41.6189 20.6428 41.7652 20.3701C41.9114 20.0964 42.3446 18.5264 42.7283 16.8816C43.5265 13.4579 44.0355 11.5086 44.9437 8.39384C45.2966 7.18444 45.666 5.90909 45.765 5.56056C45.8639 5.21204 46.252 4.80963 46.6269 4.6678C47.0403 4.50948 61.5245 4.40833 83.5564 4.40833C112.252 4.40833 119.85 4.47981 120.026 4.75138C120.148 4.94048 120.31 42.944 120.386 89.2034L120.523 173.311L127.12 173.379C133.091 173.442 133.756 173.495 134.129 173.943C134.487 174.374 134.54 177.159 134.531 195.379C134.526 208.447 134.422 216.418 134.256 216.582C134.047 216.79 129.31 216.986 120.592 217.149C120.478 217.15 120.386 227.471 120.386 240.085C120.386 254.321 120.285 263.286 120.117 263.723L119.849 264.428H94.4343C78.2218 264.428 68.9589 264.331 68.8534 264.16ZM68.396 173.086C68.6115 172.826 68.7006 158.035 68.7116 120.931C68.7204 92.4445 68.7236 68.8603 68.7193 68.5194C68.7149 68.1797 68.5983 67.9015 68.4598 67.9015C68.1256 67.9015 67.6132 70.3478 67.6077 71.9695C67.6055 72.6798 67.4263 74.0156 67.2086 74.9381C66.9909 75.8605 66.6897 77.5295 66.539 78.6487C66.3884 79.7668 66.0135 81.9195 65.7057 83.4313C64.8932 87.4212 64.6953 88.4755 63.907 93.0515C63.5167 95.3196 63.0153 98.0408 62.7943 99.0984C62.5723 100.156 62.2655 101.934 62.1127 103.048C61.9587 104.16 61.7686 105.176 61.6894 105.304C61.6102 105.431 61.2925 106.995 60.9824 108.777C59.7401 115.916 59.0672 119.502 58.3877 122.599C58.1722 123.582 57.9271 125.066 57.8446 125.898C57.761 126.729 57.517 128.09 57.3004 128.921C57.0849 129.752 56.732 131.299 56.5165 132.357C56.301 133.414 55.6094 136.693 54.9805 139.641C54.3516 142.588 53.6689 145.99 53.4633 147.199C53.2577 148.409 52.9026 150.14 52.6761 151.047C52.4485 151.954 51.9944 154.057 51.6668 155.72C51.3392 157.384 50.9038 159.486 50.6993 160.393C50.4948 161.3 50.2485 162.661 50.1529 163.416C50.0561 164.172 49.8098 165.347 49.6053 166.027C49.4008 166.708 49.1491 167.945 49.0468 168.776C48.9435 169.607 48.6785 170.825 48.4586 171.482C48.2376 172.138 48.1244 172.85 48.2057 173.062C48.419 173.617 67.9354 173.64 68.396 173.086ZM410.932 264.036C410.684 263.737 410.62 256.634 410.661 234.476L410.717 205.31L411.29 204.909C411.781 204.565 415.158 204.508 434.88 204.508C457.355 204.508 457.905 204.52 458.182 205.04C458.373 205.397 458.466 215.075 458.466 234.468C458.466 253.861 458.373 263.54 458.182 263.896C457.904 264.416 457.352 264.428 434.578 264.428C414.7 264.428 411.209 264.37 410.932 264.036ZM410.97 137.662C410.459 137.15 410.495 78.2594 411.007 77.835C411.546 77.3876 457.551 77.3788 458.089 77.8252C458.419 78.1 458.474 82.5704 458.459 107.714C458.447 128.379 458.352 137.387 458.145 137.635C457.729 138.137 411.472 138.163 410.97 137.662Z" fill="#BD3133"/>
  <path clip-rule="evenodd" fill-rule="evenodd" d="M652.34 268.126C652.007 268.069 651.32 267.666 650.813 267.232C649.275 265.916 649.157 265.257 649.157 258.038C649.157 252.424 649.201 251.682 649.588 250.789C650.129 249.542 650.844 248.875 652.119 248.424C653.512 247.934 654.593 247.988 655.93 248.616C658.27 249.715 658.51 250.562 658.553 257.874C658.595 265.006 658.287 266.415 656.442 267.554C655.69 268.019 653.492 268.325 652.34 268.126ZM654.796 264.966C655.214 264.66 655.245 264.27 655.309 258.332L655.376 252.025L654.761 251.541C654.042 250.974 653.548 250.932 652.931 251.383C652.509 251.692 652.486 252.039 652.486 258.12C652.486 265.08 652.523 265.292 653.733 265.292C654.072 265.292 654.55 265.145 654.796 264.966ZM483.61 267.693C483.37 267.403 483.387 266.929 483.706 265.11C483.921 263.884 484.296 261.538 484.539 259.896C485.607 252.693 486.249 249.302 486.63 248.843C486.966 248.438 489.818 248.419 490.319 248.818C490.554 249.006 490.777 249.859 490.964 251.287C491.121 252.486 491.343 253.713 491.457 254.012C491.57 254.312 491.815 255.655 491.999 256.997C492.184 258.339 492.549 260.78 492.812 262.422C493.652 267.67 493.65 267.538 492.89 267.828C492.05 268.147 490.825 267.921 490.627 267.41C490.543 267.192 490.377 266.508 490.26 265.889C489.978 264.409 489.721 264.144 488.57 264.144C487.231 264.144 486.874 264.496 486.588 266.095C486.453 266.853 486.175 267.603 485.97 267.761C485.446 268.163 483.965 268.121 483.61 267.693ZM489.101 261.077C489.286 260.854 489.302 259.944 489.156 257.852C488.876 253.823 488.619 253.66 487.951 257.082C487.458 259.602 487.407 261.075 487.808 261.236C488.341 261.452 488.841 261.391 489.101 261.077ZM503.134 267.822C502.839 267.637 502.78 266.298 502.724 258.526C502.68 252.405 502.739 249.299 502.904 248.99C503.103 248.618 503.385 248.531 504.405 248.531C505.786 248.531 506.578 249.042 506.578 249.933C506.578 250.198 506.88 251.317 507.249 252.418C507.617 253.519 508.071 255.154 508.256 256.049C508.987 259.58 509.324 258.728 509.329 253.342C509.332 250.339 509.414 249.001 509.608 248.807C509.76 248.655 510.307 248.531 510.825 248.531C511.343 248.531 511.89 248.655 512.042 248.807C512.247 249.012 512.317 251.415 512.317 258.204C512.317 268.584 512.403 268.123 510.51 268.001C509.543 267.939 509.411 267.857 509.04 267.098C508.816 266.64 508.472 265.71 508.277 265.032C508.082 264.354 507.714 263.076 507.46 262.192C507.206 261.309 506.863 259.934 506.698 259.138C506.372 257.558 506.272 257.363 505.904 257.591C505.743 257.69 505.659 259.423 505.659 262.657C505.659 267.281 505.633 267.586 505.215 267.809C504.663 268.105 503.591 268.111 503.134 267.822ZM516.391 267.805C516.012 267.578 515.996 266.981 516.123 258.334C516.21 252.502 516.347 249 516.498 248.818C516.827 248.422 523.356 248.412 523.751 248.807C523.903 248.958 524.027 249.53 524.027 250.075C524.027 251.287 523.747 251.432 521.286 251.497C520.346 251.523 519.494 251.595 519.392 251.658C519.289 251.721 519.205 252.689 519.205 253.809C519.205 256.376 519.395 256.625 521.212 256.457C522.775 256.313 523.109 256.55 523.105 257.801C523.1 259.188 522.918 259.344 521.292 259.367C519.338 259.395 519.205 259.569 519.205 262.109C519.205 265 519.256 265.062 521.578 265.062C522.749 265.062 523.581 265.168 523.751 265.338C524.192 265.779 524.101 267.533 523.625 267.781C523.052 268.08 516.885 268.099 516.391 267.805ZM526.926 267.884C526.558 267.789 526.517 267.625 526.637 266.745C526.776 265.735 527.652 262.972 528.627 260.47C529.62 257.924 529.624 257.884 529.135 256.782C528.885 256.222 528.444 255.04 528.154 254.157C527.864 253.273 527.372 251.801 527.059 250.887C526.365 248.852 526.518 248.531 528.184 248.531C529.254 248.531 529.317 248.568 529.77 249.457C530.03 249.966 530.373 251.025 530.532 251.809C530.999 254.121 531.7 253.797 532.279 251.002C532.427 250.29 532.761 249.438 533.02 249.108C533.436 248.58 533.631 248.518 534.671 248.577C535.682 248.636 535.861 248.718 535.922 249.146C535.961 249.42 535.795 250.144 535.554 250.753C534.806 252.634 533.211 257.623 533.211 258.079C533.211 258.316 533.405 259.029 533.642 259.662C534.144 260.999 534.329 261.539 535.447 264.922C536.243 267.329 536.258 267.434 535.846 267.735C535.389 268.069 533.96 268.152 533.516 267.869C533.215 267.678 532.668 266.281 532.145 264.374C531.955 263.679 531.605 262.911 531.368 262.668C530.941 262.231 530.931 262.234 530.695 262.855C530.563 263.202 530.456 263.646 530.456 263.844C530.456 264.041 530.183 265.008 529.849 265.992C529.161 268.027 528.684 268.335 526.926 267.884ZM541.748 267.768C541.55 267.569 541.476 265.432 541.476 259.869C541.476 255.675 541.414 252.079 541.337 251.879C541.236 251.618 540.889 251.516 540.102 251.516C539.465 251.516 538.9 251.387 538.75 251.208C538.34 250.712 538.194 249.547 538.477 249.019C538.727 248.549 538.891 248.531 542.969 248.531C546.917 248.531 547.216 248.561 547.437 248.976C547.789 249.632 547.726 250.744 547.314 251.155C547.086 251.385 546.546 251.516 545.836 251.516C545.22 251.516 544.652 251.622 544.572 251.752C544.492 251.882 544.438 255.37 544.452 259.503C544.471 265.308 544.41 267.104 544.182 267.391C543.801 267.873 542.114 268.133 541.748 267.768ZM560.836 267.533C560.437 267.25 559.896 266.576 559.634 266.034C559.181 265.103 559.155 264.674 559.155 258.059C559.155 250.148 559.143 250.207 561.006 248.956C563.184 247.493 566.06 247.968 567.466 250.024C568.011 250.821 568.095 251.171 568.102 252.676C568.11 254.663 567.928 254.96 566.702 254.96C565.533 254.96 565.125 254.484 565.125 253.123C565.125 252.193 565.024 251.93 564.519 251.533C563.764 250.938 563.41 250.935 562.829 251.516C562.392 251.952 562.369 252.281 562.369 258.123C562.369 264.819 562.454 265.292 563.645 265.292C564.714 265.292 565.125 264.564 565.125 262.667C565.125 261.043 565.092 260.938 564.453 260.483C563.692 259.94 563.365 258.889 563.74 258.188C563.965 257.769 564.209 257.715 565.928 257.715C567.644 257.715 567.893 257.769 568.115 258.185C568.279 258.492 568.342 260.156 568.296 262.999C568.233 266.778 568.172 267.395 567.82 267.746C567.435 268.131 567.379 268.129 566.603 267.711C565.833 267.297 565.755 267.294 565.135 267.66C564.124 268.257 561.757 268.188 560.836 267.533ZM572.144 267.686C571.828 267.37 571.783 266.19 571.783 258.204C571.783 251.415 571.854 249.012 572.058 248.807C572.443 248.422 578.929 248.422 579.314 248.807C579.677 249.171 579.668 250.98 579.303 251.21C579.145 251.31 578.137 251.445 577.064 251.511L575.112 251.631L575.047 253.72C574.969 256.204 575.121 256.421 576.979 256.477C578.5 256.523 578.9 256.829 578.9 257.945C578.9 259.044 578.504 259.362 577.132 259.357C576.526 259.355 575.798 259.504 575.513 259.688C575.04 259.994 574.997 260.197 574.997 262.098C574.997 265.001 575.047 265.062 577.37 265.062C578.54 265.062 579.373 265.168 579.543 265.338C579.695 265.489 579.819 266.061 579.819 266.606C579.819 267.926 579.461 268.047 575.573 268.047C573.09 268.047 572.436 267.978 572.144 267.686ZM583.164 267.686C582.849 267.37 582.803 266.19 582.803 258.204C582.803 251.415 582.874 249.012 583.079 248.807C583.447 248.439 585.897 248.448 586.185 248.818C586.387 249.079 586.716 250.081 587.71 253.468C587.896 254.099 588.159 255.224 588.294 255.968C588.534 257.288 588.855 257.945 589.261 257.945C589.371 257.945 589.462 255.99 589.462 253.599C589.462 248.755 589.528 248.531 590.954 248.531C592.38 248.531 592.345 248.298 592.4 257.971C592.455 267.772 592.441 267.876 591.089 268.007C589.308 268.177 589.051 267.804 587.89 263.34C586.829 259.256 586.152 257.026 585.975 257.026C585.727 257.026 585.724 257.112 585.784 262.45C585.843 267.772 585.776 268.047 584.419 268.047C583.913 268.047 583.368 267.891 583.164 267.686ZM596.549 267.558C596.145 267.153 596.12 266.613 596.12 258.106C596.12 251.394 596.191 249.012 596.396 248.807C596.775 248.428 603.6 248.419 603.834 248.798C604.142 249.295 603.944 250.93 603.539 251.23C603.306 251.4 602.436 251.516 601.381 251.516C599.981 251.516 599.584 251.591 599.474 251.879C599.253 252.456 599.319 255.728 599.559 256.108C599.714 256.352 600.188 256.454 601.185 256.457C602.79 256.463 603.238 256.818 603.238 258.087C603.238 259.249 602.69 259.631 601.242 259.481C599.507 259.302 599.334 259.541 599.334 262.109C599.334 265.01 599.378 265.062 601.758 265.062C603.598 265.062 603.721 265.094 603.96 265.619C604.284 266.332 604.027 267.729 603.537 267.918C603.329 267.997 601.769 268.045 600.069 268.025C597.387 267.992 596.922 267.93 596.549 267.558ZM607.731 267.686C607.415 267.37 607.37 266.188 607.37 258.186C607.37 250.421 607.421 249.004 607.708 248.766C607.948 248.567 608.928 248.509 611.094 248.566C613.995 248.643 614.183 248.677 614.955 249.267C616.058 250.111 616.557 251.573 616.555 253.956C616.554 255.932 616.186 257.206 615.357 258.103C614.844 258.659 614.852 258.902 615.501 261.963C616.743 267.836 616.688 267.38 616.196 267.749C615.727 268.1 613.935 268.048 613.564 267.671C613.455 267.562 613.195 266.44 612.983 265.177C612.047 259.581 612.139 259.904 611.461 259.826C611.046 259.777 610.778 259.89 610.64 260.17C610.527 260.398 610.41 262.135 610.381 264.029C610.335 266.897 610.263 267.521 609.952 267.761C609.431 268.161 608.163 268.119 607.731 267.686ZM612.651 256.567C613.041 256.177 613.11 255.802 613.11 254.07C613.11 251.832 613.003 251.621 611.734 251.367C610.605 251.141 610.355 251.637 610.355 254.101C610.355 255.221 610.462 256.338 610.593 256.582C610.909 257.172 612.054 257.164 612.651 256.567ZM619.567 267.737C619.208 267.304 619.344 265.429 620.003 261.733C620.758 257.491 621.332 253.99 621.486 252.683C621.636 251.397 622.165 249.157 622.411 248.758C622.646 248.378 625.866 248.476 626.196 248.875C626.352 249.063 626.579 250.019 626.7 250.998C626.904 252.669 627.141 254.06 628.237 260.011C629.245 265.485 629.493 267.368 629.241 267.621C629.104 267.758 628.545 267.918 627.996 267.976C626.57 268.13 626.194 267.761 625.988 266.007C625.796 264.381 625.58 264.152 624.232 264.148C622.921 264.142 622.54 264.506 622.373 265.923C622.294 266.586 622.111 267.29 621.967 267.488C621.58 268.017 619.941 268.187 619.567 267.737ZM624.928 261.018C625.203 260.743 625.267 260.387 625.174 259.64C625.105 259.086 624.991 258.143 624.922 257.543C624.754 256.116 624.609 255.649 624.333 255.649C623.661 255.649 622.887 260.377 623.449 261.054C623.816 261.495 624.467 261.48 624.928 261.018ZM633.774 267.823C633.482 267.638 633.412 266.382 633.315 259.618L633.2 251.631L632.396 251.569C630.797 251.445 630.588 251.329 630.426 250.464C630.339 250.002 630.383 249.401 630.526 249.088L630.779 248.531H635.024C639.123 248.531 639.277 248.548 639.53 249.022C639.842 249.603 639.655 251.055 639.235 251.321C639.073 251.425 638.507 251.511 637.977 251.512C637.448 251.514 636.95 251.622 636.87 251.751C636.79 251.881 636.736 255.437 636.749 259.654L636.774 267.322L636.256 267.684C635.684 268.085 634.311 268.162 633.774 267.823ZM642.754 267.733C642.566 267.508 642.51 264.771 642.554 258.033L642.613 248.646L643.722 248.575C644.342 248.536 644.974 248.624 645.156 248.776C645.429 249.002 645.483 250.581 645.483 258.309C645.483 267.232 645.467 267.581 645.039 267.809C644.406 268.148 643.061 268.103 642.754 267.733ZM662.53 267.81L662.014 267.603V258.305C662.014 247.68 661.847 248.444 664.137 248.577L665.328 248.646L665.83 250.139C666.106 250.96 666.558 252.406 666.833 253.353C667.935 257.142 668.52 258.863 668.705 258.863C668.812 258.863 668.88 256.665 668.856 253.977C668.832 251.29 668.891 248.965 668.986 248.811C669.197 248.47 670.604 248.443 671.213 248.769C671.641 248.998 671.657 249.344 671.657 258.068C671.657 266.823 671.642 267.144 671.198 267.588C670.669 268.117 668.869 268.232 668.511 267.761C668.203 267.356 667.606 265.651 667.204 264.029C666.371 260.667 666.154 259.924 665.666 258.745C665.38 258.055 665.087 257.551 665.015 257.622C664.943 257.695 664.922 259.868 664.968 262.451C665.044 266.694 665.013 267.193 664.645 267.598C664.216 268.073 663.389 268.155 662.53 267.81ZM681.217 267.754C680.777 267.433 680.764 267.562 681.984 260.011C682.239 258.432 682.656 255.746 682.91 254.042C683.456 250.387 683.69 249.167 683.916 248.801C684.144 248.431 687.299 248.445 687.786 248.818C688.04 249.014 688.27 249.875 688.507 251.516C689.187 256.245 689.575 258.527 689.793 259.093C689.915 259.409 690.123 260.597 690.256 261.733C690.389 262.869 690.667 264.596 690.873 265.568C691.323 267.703 691.16 268.047 689.696 268.047C688.319 268.047 687.988 267.705 687.713 265.997C687.583 265.186 687.424 264.437 687.36 264.333C687.295 264.229 686.732 264.144 686.108 264.144C684.645 264.144 684.174 264.599 683.985 266.198C683.906 266.863 683.722 267.551 683.576 267.727C683.244 268.128 681.751 268.144 681.217 267.754ZM686.687 261.021C686.89 260.818 687.003 260.481 686.939 260.274C686.876 260.066 686.723 258.824 686.602 257.512C686.274 253.976 685.878 253.843 685.309 257.078C684.894 259.433 684.876 261.081 685.26 261.236C685.818 261.461 686.323 261.385 686.687 261.021ZM694.387 267.821C694.091 267.633 694.043 266.35 694.043 258.584C694.043 253.623 694.118 249.332 694.209 249.048C694.352 248.604 694.536 248.531 695.513 248.531C697.469 248.531 697.372 248.025 697.372 258.191C697.372 266.823 697.356 267.144 696.913 267.588C696.42 268.081 695.003 268.212 694.387 267.821ZM707.75 267.772C707.545 267.567 707.474 265.144 707.474 258.289C707.474 251.434 707.545 249.012 707.75 248.807C707.933 248.623 708.943 248.531 710.777 248.531C714.056 248.531 715.153 248.92 716.157 250.437L716.773 251.367V258.043V264.718L716.199 265.751C715.764 266.534 715.322 266.938 714.379 267.415C713.241 267.992 712.908 268.047 710.578 268.047C708.899 268.047 707.931 267.952 707.75 267.772ZM712.746 264.837C712.977 264.714 713.28 264.285 713.42 263.885C713.76 262.911 713.76 253.441 713.421 252.468C713.151 251.692 712.582 251.428 711.463 251.556L710.803 251.631L710.742 258.057C710.709 261.591 710.731 264.612 710.792 264.772C710.925 265.116 712.149 265.157 712.746 264.837ZM720.846 267.781C720.442 267.377 720.433 249.21 720.837 248.807C721.025 248.619 722.144 248.531 724.379 248.531C728.157 248.531 728.485 248.665 728.233 250.104C728.027 251.285 727.616 251.516 725.729 251.516C724.766 251.516 723.984 251.629 723.821 251.792C723.652 251.961 723.546 252.791 723.546 253.944C723.546 256.226 723.719 256.431 725.655 256.443C727.174 256.453 727.679 256.827 727.679 257.945C727.679 259.038 727.204 259.385 725.621 259.452C724.83 259.485 724.104 259.599 724.008 259.704C723.912 259.81 723.776 260.84 723.707 261.993C723.534 264.83 723.698 265.062 725.87 265.062C727.911 265.062 728.367 265.295 728.367 266.333C728.367 267.791 727.951 267.964 724.327 268.018C722.037 268.052 721.05 267.985 720.846 267.781ZM734.394 267.817C733.783 267.563 733.833 268.288 733.793 259.047C733.77 253.753 733.691 251.927 733.476 251.712C733.318 251.554 732.803 251.436 732.331 251.449C730.91 251.49 730.629 251.211 730.709 249.837L730.778 248.646H735.255H739.732L739.801 249.837C739.859 250.84 739.797 251.068 739.405 251.278C739.148 251.415 738.687 251.465 738.381 251.388C738.075 251.31 737.607 251.364 737.343 251.505C736.87 251.758 736.862 251.88 736.862 259.661C736.862 264.006 736.784 267.609 736.689 267.669C736.276 267.924 734.869 268.015 734.394 267.817ZM743.062 267.588C742.618 267.144 742.602 266.823 742.602 258.106C742.602 251.394 742.673 249.012 742.878 248.807C743.263 248.422 749.978 248.422 750.363 248.807C750.689 249.133 750.723 250.567 750.416 251.053C750.261 251.298 749.604 251.427 748.066 251.512L745.932 251.631L745.864 253.808C745.786 256.391 745.914 256.567 747.881 256.567C749.391 256.567 749.72 256.817 749.72 257.962C749.72 259.051 749.395 259.296 747.802 259.409C745.928 259.543 745.817 259.694 745.817 262.121C745.817 265.027 745.847 265.062 748.342 265.062C750.661 265.062 750.985 265.286 750.723 266.708C750.494 267.949 750.197 268.047 746.691 268.047C743.827 268.047 743.477 268.003 743.062 267.588ZM755.642 267.577C755.147 267.316 754.545 266.709 754.206 266.132L753.623 265.137V258.131V251.126L754.326 250.156C755.154 249.013 756.956 248.077 758.33 248.077C758.835 248.077 759.775 248.322 760.42 248.622C761.973 249.346 762.807 250.886 762.807 253.035C762.807 255.12 762.755 255.19 761.187 255.19C759.6 255.19 759.387 254.956 759.536 253.388C759.617 252.538 759.536 252.19 759.139 251.689C758.525 250.911 757.906 250.886 757.183 251.609L756.631 252.161L756.747 258.209C756.876 264.89 756.959 265.292 758.208 265.292C759.126 265.292 759.592 264.557 759.592 263.111C759.592 261.622 760.054 260.93 761.047 260.93C761.453 260.93 762.029 261.099 762.325 261.307C762.824 261.657 762.855 261.801 762.753 263.316C762.609 265.421 761.902 266.907 760.732 267.565C759.565 268.222 756.873 268.227 755.642 267.577ZM768.565 267.839C768.293 267.662 768.241 266.326 768.253 259.831C768.26 255.543 768.181 251.897 768.077 251.729C767.969 251.554 767.518 251.434 767.015 251.449C765.68 251.487 765.332 251.2 765.332 250.061C765.332 249.523 765.456 248.958 765.608 248.807C765.801 248.614 767.068 248.531 769.839 248.531C774.201 248.531 774.516 248.625 774.516 249.926C774.516 250.922 773.798 251.516 772.593 251.516C772.01 251.516 771.475 251.651 771.32 251.839C771.126 252.073 771.071 254.224 771.12 259.746C771.163 264.592 771.104 267.411 770.958 267.55C770.613 267.88 768.938 268.082 768.565 267.839ZM777.7 267.778C777.369 267.509 777.307 266.399 777.175 258.372C777.005 248.093 776.935 248.531 778.734 248.531C779.268 248.531 779.829 248.655 779.981 248.807C780.306 249.132 780.378 267.04 780.056 267.547C779.776 267.989 778.156 268.147 777.7 267.778ZM786.503 267.645C786.048 267.25 785.843 266.34 785.061 261.274C784.924 260.39 784.621 258.531 784.387 257.141C784.154 255.752 783.896 253.996 783.815 253.238C783.734 252.48 783.515 251.257 783.328 250.521C782.903 248.842 783.101 248.531 784.603 248.531C786.477 248.531 786.292 247.954 787.404 257.256C787.791 260.49 787.843 260.735 788.133 260.639C788.383 260.557 788.748 258.389 789.65 251.631C790.004 248.978 790.285 248.531 791.598 248.531C792.978 248.531 793.185 248.847 792.889 250.515C792.759 251.255 792.347 253.824 791.973 256.223C791.6 258.622 791.134 261.463 790.939 262.537C790.743 263.61 790.486 265.202 790.368 266.074C790.25 266.947 790.019 267.746 789.854 267.851C789.28 268.214 786.996 268.075 786.503 267.645ZM796.23 267.686C795.914 267.37 795.869 266.19 795.869 258.204C795.869 251.415 795.939 249.012 796.144 248.807C796.434 248.517 802.833 248.399 803.542 248.671C803.804 248.772 803.905 249.121 803.905 249.939C803.905 250.959 803.843 251.092 803.273 251.314C802.926 251.449 802.066 251.501 801.362 251.431C799.362 251.23 799.143 251.488 799.224 253.948C799.259 255.047 799.393 256.051 799.521 256.179C799.649 256.306 800.399 256.439 801.188 256.472C802.912 256.543 803.309 256.911 803.136 258.265C802.989 259.408 802.684 259.6 801.226 259.468C799.368 259.299 799.221 259.508 799.285 262.212C799.314 263.455 799.449 264.606 799.584 264.768C799.744 264.961 800.442 265.062 801.621 265.062C803.792 265.062 804.225 265.349 804 266.635C803.769 267.958 803.508 268.047 799.859 268.047C797.194 268.047 796.523 267.98 796.23 267.686ZM814.382 267.057C813.533 266.208 813.371 265.89 813.243 264.818C813.015 262.928 813.07 252.219 813.312 251.172C813.795 249.079 816.61 247.649 818.957 248.306C820.343 248.694 821.299 249.512 821.84 250.774C822.269 251.778 822.421 253.918 822.097 254.415C821.847 254.797 820.649 254.989 819.861 254.773C819.213 254.596 819.164 254.501 819.036 253.174C818.961 252.399 818.768 251.605 818.606 251.411C818.217 250.94 817.388 250.962 816.777 251.459C816.293 251.85 816.28 252.013 816.235 258.093C816.191 263.936 816.215 264.355 816.625 264.809C816.871 265.08 817.343 265.292 817.703 265.292C818.675 265.292 819.058 264.555 819.058 262.688C819.058 261.257 818.992 261.03 818.369 260.321C817.647 259.499 817.466 258.48 817.956 257.991C818.126 257.821 818.959 257.715 820.129 257.715C821.712 257.715 822.057 257.781 822.212 258.117C822.314 258.338 822.361 260.56 822.317 263.055C822.243 267.266 822.205 267.607 821.791 267.829C821.453 268.01 821.177 267.968 820.65 267.658C819.988 267.266 819.923 267.266 819.258 267.647C818.78 267.922 818.063 268.047 816.967 268.047C815.394 268.047 815.36 268.034 814.382 267.057ZM825.263 267.711C824.959 267.344 824.997 266.944 825.722 262.881C825.97 261.492 826.592 257.827 827.106 254.738C827.619 251.648 828.149 248.988 828.283 248.826C828.441 248.635 829.122 248.531 830.216 248.531C832.296 248.531 832.487 248.751 832.714 251.401C832.801 252.412 833.011 253.858 833.183 254.616C833.488 255.962 834.179 259.786 834.658 262.766C834.79 263.587 835.014 264.957 835.156 265.809C835.475 267.718 835.282 268.047 833.844 268.047C832.652 268.047 832.324 267.655 831.93 265.759C831.787 265.07 831.544 264.426 831.391 264.329C831.238 264.231 830.675 264.149 830.141 264.148C828.997 264.143 828.636 264.556 828.243 266.316C828.103 266.942 827.878 267.588 827.743 267.75C827.403 268.16 825.612 268.131 825.263 267.711ZM830.871 261.08C831.26 260.797 831.272 260.627 831.032 258.957C830.888 257.959 830.71 256.644 830.638 256.037C830.436 254.355 830.03 254.831 829.581 257.273C829.102 259.88 829.061 261.081 829.447 261.236C829.966 261.446 830.443 261.393 830.871 261.08ZM838.517 267.799C838.144 267.582 838.114 266.883 838.114 258.324C838.114 251.442 838.185 249.012 838.39 248.807C838.769 248.428 842.12 248.437 842.405 248.818C842.591 249.069 843.033 251.277 843.886 256.217C844.017 256.972 844.232 257.791 844.363 258.039C844.59 258.461 844.62 258.464 844.897 258.085C845.058 257.865 845.262 257.046 845.349 256.265C845.437 255.485 845.704 253.878 845.944 252.696C846.183 251.514 846.38 250.256 846.38 249.9C846.38 248.842 846.9 248.531 848.673 248.531C851.217 248.531 850.972 247.502 850.972 258.191C850.972 267.231 850.955 267.581 850.527 267.809C849.851 268.171 848.755 268.093 848.313 267.651C847.955 267.293 847.93 266.794 848.053 262.314C848.179 257.708 848.071 256.103 847.678 256.739C847.592 256.88 847.421 257.802 847.299 258.79C847.177 259.777 846.929 261.257 846.747 262.078C846.565 262.899 846.293 264.336 846.141 265.273C845.763 267.611 844.711 268.676 843.799 267.645C843.345 267.131 842.554 263.424 841.669 257.658C841.597 257.184 841.45 256.797 841.343 256.797C840.948 256.797 840.841 258.577 840.992 262.625C841.176 267.593 841.074 268.051 839.785 268.04C839.308 268.036 838.737 267.928 838.517 267.799ZM855.006 267.686C854.69 267.37 854.645 266.19 854.645 258.204C854.645 251.415 854.716 249.012 854.921 248.807C855.11 248.618 856.254 248.531 858.578 248.531C862.345 248.531 862.684 248.652 862.677 249.982C862.672 251.247 862.444 251.383 860.109 251.512L857.974 251.631L857.909 253.72C857.831 256.2 857.982 256.418 859.803 256.445C861.306 256.468 861.763 256.817 861.763 257.945C861.763 259.056 861.39 259.341 859.823 259.428C857.969 259.531 857.86 259.685 857.86 262.204C857.86 264.907 857.986 265.062 860.187 265.062C861.07 265.062 861.992 265.169 862.237 265.3C862.845 265.625 862.836 266.973 862.222 267.588C861.807 268.003 861.457 268.047 858.565 268.047C855.964 268.047 855.299 267.98 855.006 267.686ZM549.721 259.532C549.228 259.039 549.257 258.185 549.788 257.544C550.114 257.152 555.045 257.141 555.436 257.532C555.587 257.683 555.711 258.196 555.711 258.671C555.711 259.843 555.31 260.011 552.511 260.011C550.475 260.011 550.144 259.954 549.721 259.532ZM554.104 233.845C549.361 232.843 548.613 232.598 545.858 231.159C543.798 230.084 541.269 227.696 539.788 225.431C539.201 224.533 538.721 223.68 538.721 223.536C538.721 223.392 538.514 222.888 538.262 222.417C538.009 221.946 537.803 221.394 537.803 221.191C537.803 220.988 537.612 220.264 537.379 219.581C537.146 218.898 536.779 217.048 536.562 215.47C536.202 212.837 536.177 209.582 536.259 176.094C536.338 143.645 536.389 139.397 536.717 137.866C538.289 130.535 540.35 126.859 544.461 124.057C548.773 121.118 552.313 120.206 559.456 120.195C563.25 120.188 564.374 120.268 566.229 120.672C568.921 121.259 571.36 122.085 572.592 122.828C573.094 123.13 573.871 123.582 574.319 123.83C576.067 124.8 579.397 128.644 580.057 130.452C580.185 130.805 580.436 131.402 580.614 131.782C581.227 133.084 581.687 134.953 582.108 137.841C582.503 140.546 582.533 143.082 582.563 176.502C582.591 208.26 582.553 212.581 582.223 215.074C581.394 221.34 579.828 224.935 576.497 228.221C573.451 231.227 570.163 232.732 564.206 233.846C562.947 234.082 555.221 234.081 554.104 233.845ZM560.968 215.576L561.681 214.765V177.127V139.489L560.968 138.678C560.388 138.017 560.094 137.866 559.385 137.866C558.681 137.866 558.382 138.017 557.827 138.648L557.141 139.43L556.993 144.331C556.912 147.026 556.875 164.04 556.91 182.14L556.974 215.048L557.723 215.718C558.833 216.709 560.019 216.657 560.968 215.576ZM694.502 233.472C691.401 232.709 688.071 231.053 685.923 229.207C682.493 226.256 680.466 221.851 679.922 216.158C679.755 214.418 679.637 201.304 679.576 177.701C679.496 146.993 679.531 141.458 679.825 138.899C680.255 135.154 681.171 131.96 682.684 128.927C683.463 127.366 686.034 124.561 687.499 123.674C689.179 122.657 692.328 121.106 692.718 121.103C692.942 121.101 693.951 120.896 694.961 120.646C696.497 120.267 697.59 120.193 701.619 120.193C705.96 120.193 706.659 120.248 708.622 120.746C712.877 121.827 715.858 123.368 718.071 125.632C720.509 128.126 721.78 130.815 722.824 135.688L723.316 137.985L723.317 176.556C723.318 214.532 723.311 215.166 722.843 217.766C722.583 219.217 722.169 220.925 721.924 221.558C721.68 222.192 721.48 222.791 721.48 222.889C721.48 222.987 720.996 223.905 720.407 224.928C717.969 229.153 713.824 232.27 709.308 233.272C706.086 233.986 705.521 234.039 701.16 234.038C697.303 234.037 696.533 233.971 694.502 233.472ZM702.792 215.864C703.381 215.325 703.67 214.82 703.813 214.085C703.921 213.521 704.015 196.705 704.02 176.717C704.031 137.684 704.084 139.527 702.902 138.345C702.202 137.645 701.08 137.717 700.201 138.521C699.56 139.106 699.468 139.358 699.334 140.875C699.122 143.262 699.284 214.819 699.502 215.24C699.757 215.733 701.08 216.618 701.563 216.618C701.787 216.618 702.34 216.279 702.792 215.864ZM742.947 233.913C738.336 233.189 734.409 231.41 731.914 228.914C728.621 225.62 727.421 222.866 726.856 217.306C726.414 212.967 726.375 122.147 726.814 121.876C727.219 121.626 744.041 121.517 744.698 121.76L745.243 121.962L745.358 168.503L745.472 215.045L746.33 215.831C747.386 216.799 748.098 216.83 749.085 215.948L749.835 215.278L749.949 168.642C750.036 133.574 750.13 121.966 750.331 121.843C750.768 121.575 768.487 121.645 768.76 121.917C768.921 122.077 769.001 136.997 769.011 168.787C769.024 214.627 769.017 215.469 768.559 218.152C767.717 223.089 766.487 225.806 763.866 228.515C762.167 230.271 761.19 230.949 758.789 232.04C755.516 233.527 753.46 233.902 748.227 233.965C745.702 233.996 743.326 233.972 742.947 233.913ZM482.708 232.474C482.399 231.899 482.38 122.522 482.688 122.035C482.866 121.753 484.526 121.687 493.303 121.609C499.181 121.556 504.055 121.608 504.507 121.726C505.404 121.962 505.355 121.838 506.087 125.697C506.339 127.024 506.721 129.039 506.938 130.175C507.153 131.311 507.419 132.861 507.528 133.619C507.637 134.376 507.877 135.667 508.061 136.489C508.792 139.758 509.119 141.511 509.344 143.376C509.472 144.45 509.674 145.637 509.792 146.017C509.91 146.396 510.117 147.621 510.253 148.741C510.389 149.859 510.651 151.353 510.835 152.061C511.019 152.767 511.17 153.588 511.17 153.885C511.17 154.181 511.367 155.425 511.608 156.649C511.849 157.873 512.271 160.114 512.544 161.629C512.818 163.145 513.2 165.211 513.393 166.221C513.586 167.231 513.882 169.04 514.052 170.239C514.36 172.415 514.74 174.981 515.033 176.852C515.554 180.182 515.652 176.546 515.761 149.92L515.876 121.909L517.369 121.735C518.19 121.638 521.892 121.587 525.596 121.62C531.853 121.675 532.352 121.71 532.641 122.106C533.089 122.718 533.132 231.349 532.685 232.23L532.393 232.804L521.685 232.864C512.47 232.915 510.93 232.876 510.637 232.583C510.45 232.395 510.222 231.696 510.13 231.031C510.039 230.365 509.875 229.581 509.764 229.289C509.654 228.998 509.461 227.811 509.335 226.649C509.21 225.488 508.958 223.867 508.775 223.046C508.434 221.51 508.144 220.05 507.707 217.651C507.569 216.893 507.266 215.343 507.035 214.207C506.803 213.071 506.51 211.469 506.385 210.648C506.259 209.827 506.054 208.691 505.928 208.122C505.577 206.53 504.628 201.269 503.568 195.036C503.428 194.214 503.123 192.561 502.889 191.362C502.656 190.163 502.348 188.457 502.205 187.574C502.062 186.69 501.799 185.295 501.62 184.474C501.442 183.653 501.195 181.923 501.072 180.629C500.949 179.335 500.703 178.043 500.524 177.759C500.345 177.474 500.124 176.725 500.032 176.094C499.888 175.096 499.839 175.017 499.662 175.484C499.551 175.78 499.52 176.119 499.593 176.238C499.667 176.357 499.859 178.905 500.019 181.899C500.348 188.022 500.4 232.135 500.078 232.632C499.935 232.853 497.946 232.919 491.419 232.919C483.276 232.919 482.936 232.901 482.708 232.474ZM594.1 232.643C593.887 232.431 593.824 221.872 593.824 186.511C593.824 143.425 593.8 140.63 593.428 140.258C593.071 139.901 592.597 139.876 588.484 140.004C584.35 140.132 583.897 140.108 583.534 139.744C583.166 139.377 583.136 138.643 583.165 130.786C583.187 124.551 583.27 122.154 583.467 121.957C583.67 121.754 588.73 121.671 603.689 121.626C621.557 121.572 623.678 121.603 624 121.927C624.314 122.24 624.36 123.361 624.36 130.665C624.36 136.002 624.274 139.205 624.123 139.488C623.899 139.906 623.595 139.932 619.088 139.932C615.033 139.932 614.235 139.988 613.93 140.293C613.604 140.618 613.569 145.114 613.569 186.342C613.569 217.397 613.493 232.173 613.332 232.474C613.103 232.902 612.753 232.919 603.734 232.919C596.761 232.919 594.305 232.849 594.1 232.643ZM644.344 232.474C644.181 232.172 644.106 214.544 644.106 177.158C644.106 129.529 644.15 122.243 644.439 121.953C644.724 121.669 647.113 121.623 660.983 121.635C673.376 121.646 677.285 121.714 677.578 121.929C677.922 122.181 677.969 123.073 678.028 130.62C678.071 136.183 678.011 139.184 677.852 139.481C677.621 139.913 677.336 139.932 671.234 139.932C666.09 139.932 664.771 139.996 664.411 140.258C663.981 140.573 663.963 141.019 663.897 153.167C663.858 160.088 663.886 165.986 663.958 166.274L664.09 166.795H669.71C674.98 166.795 675.358 166.823 675.779 167.243C676.211 167.675 676.225 168.009 676.153 175.852C676.098 181.951 676.006 184.099 675.791 184.357C675.55 184.649 674.629 184.704 670.05 184.704C665.258 184.704 664.558 184.75 664.281 185.083C664.019 185.398 663.953 189.452 663.893 208.899C663.843 224.89 663.743 232.428 663.577 232.627C663.389 232.855 661.261 232.919 653.958 232.919C644.922 232.919 644.572 232.902 644.344 232.474ZM772.679 232.696C772.375 232.502 772.338 226.117 772.357 177.354C772.375 134.731 772.442 122.17 772.656 121.956C772.86 121.751 775.413 121.666 782.506 121.624C787.772 121.595 792.32 121.624 792.612 121.691C793.337 121.854 793.706 122.848 794.014 125.468C794.155 126.667 794.418 128.373 794.598 129.256C794.778 130.14 795.128 132.052 795.378 133.504C795.628 134.956 796.054 137.435 796.325 139.014C796.596 140.593 796.971 142.659 797.158 143.606C797.345 144.553 797.647 146.361 797.828 147.624C798.214 150.298 798.875 154.332 799.539 158.071C799.797 159.523 800.116 161.486 800.25 162.433C800.383 163.38 800.695 165.343 800.943 166.795C801.191 168.247 801.647 171.34 801.957 173.668C802.267 175.997 802.613 177.994 802.725 178.106C803.157 178.538 803.206 176.468 802.982 167.025C802.654 153.196 802.712 122.633 803.065 122.148C803.301 121.826 804.254 121.759 810.337 121.645C815.148 121.553 817.533 121.591 817.967 121.762L818.599 122.013V177.19C818.599 219.8 818.536 232.43 818.323 232.643C818 232.967 799.404 233.043 798.9 232.723C798.546 232.498 798.02 230.613 797.81 228.813C797.727 228.104 797.474 226.645 797.247 225.572C797.02 224.498 796.768 223.103 796.686 222.472C796.604 221.841 796.394 220.601 796.218 219.717C796.042 218.834 795.675 216.767 795.403 215.125C795.13 213.483 794.717 211.21 794.486 210.074C794.253 208.938 794 207.439 793.921 206.745C793.842 206.051 793.586 204.449 793.35 203.186C793.114 201.923 792.755 199.908 792.551 198.709C792.347 197.51 791.865 194.72 791.48 192.51C791.096 190.3 790.593 187.356 790.364 185.966C790.135 184.577 789.886 183.286 789.811 183.097C789.736 182.907 789.523 181.357 789.337 179.653C789.152 177.948 788.826 175.986 788.613 175.295C788.261 174.15 788.208 174.086 788.023 174.588C787.894 174.934 787.952 176.335 788.179 178.371C788.489 181.153 788.53 185.175 788.473 207.204L788.407 232.804L780.715 232.86C776.115 232.893 772.885 232.827 772.679 232.696ZM822.37 232.661C822.141 232.291 822.235 122.199 822.464 121.97C822.771 121.663 845.9 121.525 848.561 121.814C851.006 122.079 854.313 122.884 855.449 123.491C855.828 123.693 856.252 123.859 856.392 123.859C856.707 123.861 858.596 125.258 859.775 126.363C860.81 127.332 862.404 129.694 863.118 131.319C863.395 131.948 863.848 133.446 864.127 134.648L864.633 136.833V177.127V217.421L864.107 219.602C863.486 222.182 862.88 223.702 861.913 225.113C859.035 229.31 854.812 231.775 849.135 232.572C846.051 233.005 822.63 233.083 822.37 232.661ZM844.672 214.875C844.974 214.507 845.325 213.845 845.455 213.403C845.772 212.314 845.778 141.749 845.461 140.608C845.129 139.412 844.157 138.588 842.872 138.412C840.918 138.143 841.099 134.198 841.099 176.995C841.099 207.207 841.159 215.21 841.386 215.443C841.576 215.639 842.088 215.706 842.898 215.641C843.908 215.561 844.219 215.426 844.672 214.875ZM709.655 115.827C706.229 115.373 704.877 114.981 702.308 113.694C699.859 112.468 698.86 111.761 697.301 110.15C694.799 107.563 693.574 105.16 692.527 100.786L691.976 98.4904V58.1962V17.9021L692.699 15.2618C693.624 11.8858 693.914 11.1318 695.044 9.17472C696.739 6.23773 699.499 3.61113 702.237 2.32815C702.955 1.9911 703.658 1.71559 703.799 1.71559C703.94 1.71559 704.488 1.51998 705.018 1.28028C707.062 0.356385 709.621 0.00649703 714.362 6.83419e-05C720.32 -0.00636035 722.553 0.438097 726.72 2.46038C729.677 3.89581 732.545 6.82824 733.964 9.86625C734.318 10.6239 734.713 11.4404 734.84 11.681C735.4 12.7298 736.016 15.0937 736.311 17.3272C736.571 19.299 736.629 26.5561 736.631 57.0813C736.633 97.0788 736.587 98.8779 735.48 102.461C734.183 106.665 731.505 110.436 728.367 112.478C725.26 114.501 723.066 115.254 718.61 115.825C714.533 116.347 713.591 116.347 709.655 115.827ZM715.258 97.8126C715.669 97.6005 716.083 97.0614 716.399 96.3276L716.894 95.175L716.833 57.6865C716.776 22.3985 716.749 20.1549 716.369 19.4588C715.879 18.5634 715.336 18.2465 714.293 18.2465C713.13 18.2465 712.379 18.9528 712.084 20.3267C711.747 21.898 711.737 94.9096 712.074 96.1219C712.333 97.0577 713.457 98.146 714.162 98.146C714.411 98.146 714.905 97.9963 715.258 97.8126ZM482.746 114.401C482.532 114.188 482.47 101.354 482.47 58.03V1.93415L483.037 1.71834C483.377 1.58885 489.252 1.54112 497.789 1.5999C511.234 1.69082 512.057 1.72112 513.579 2.1647C514.463 2.42276 515.445 2.63398 515.761 2.63398C516.076 2.63398 517.213 3.06931 518.287 3.60197C523.716 6.29284 525.767 9.00667 527.222 15.4188C527.697 17.5118 527.7 17.8204 527.7 57.5525V97.5775L527.118 100.392C526.416 103.79 525.444 106.02 523.813 107.978C521.209 111.105 517.985 112.828 512.192 114.189C510.197 114.658 509.575 114.677 496.567 114.677C486.337 114.677 482.954 114.61 482.746 114.401ZM505.577 97.2221C505.964 97.0871 506.519 96.5764 506.874 96.0281L507.496 95.0694V57.8776V20.6857L506.98 19.9262C506.312 18.9463 505.218 18.4311 503.99 18.5202L503.019 18.5909L502.872 23.1828C502.632 30.6622 502.663 96.2467 502.906 96.8878C503.085 97.3589 503.276 97.4572 504.013 97.4572C504.501 97.4572 505.206 97.3516 505.577 97.2221ZM531.42 114.48C531.177 114.326 531.124 103.981 531.138 58.1816C531.15 20.1503 531.232 1.99572 531.391 1.83684C531.548 1.67979 537.336 1.60079 548.711 1.60079C567.748 1.60079 566.725 1.51353 566.271 3.09866C566.14 3.55326 566.043 7.15337 566.043 11.5129C566.043 18.1336 565.996 19.1796 565.682 19.4928C565.371 19.8041 564.424 19.8537 558.813 19.8537C555.234 19.8537 552.141 19.9161 551.941 19.9933C551.616 20.1182 551.578 21.5316 551.578 33.6083C551.578 43.7831 551.645 47.1508 551.854 47.3593C552.053 47.5586 553.677 47.6348 557.714 47.6348H563.299L563.518 48.2107C563.829 49.0271 563.524 64.8215 563.193 65.0364C563.055 65.1254 560.412 65.2503 557.318 65.3137L551.693 65.4285L551.634 80.6838C551.6 89.3873 551.663 96.0263 551.78 96.1429C551.892 96.255 555.032 96.3349 558.759 96.3193C564.703 96.2954 565.579 96.3367 565.903 96.6609C566.229 96.9879 566.273 98.022 566.273 105.49C566.273 110.144 566.21 114.114 566.133 114.314C566.008 114.64 564.274 114.677 548.856 114.673C539.43 114.671 531.584 114.585 531.42 114.48ZM578.267 114.39C578.002 114.062 577.63 110.976 577.29 106.297C577.161 104.529 576.957 102.514 576.836 101.819C576.715 101.125 576.507 99.1617 576.375 97.4572C576.243 95.7527 575.985 92.9112 575.803 91.1433C575.621 89.3754 575.361 86.7929 575.226 85.4034C574.478 77.7 574.056 73.6554 573.966 73.3496C573.911 73.1604 573.754 71.4035 573.617 69.4464C573.481 67.4894 573.273 65.3192 573.157 64.6249C573.039 63.9306 572.835 61.9671 572.704 60.2626C572.572 58.5581 572.311 55.9747 572.125 54.5227C571.938 53.0707 571.618 50.1255 571.413 47.9792C571.208 45.8329 570.96 43.3524 570.862 42.4689C570.363 38.0083 569.939 33.6625 569.728 30.8743C569.416 26.7379 568.681 19.4165 568.136 15.0322C567.894 13.0751 567.573 9.87177 567.425 7.91469C567.276 5.95761 567.052 3.89309 566.926 3.32736C566.525 1.51906 566.145 1.58424 577.399 1.54659C582.796 1.52914 587.444 1.60263 587.728 1.711C588.225 1.90018 588.249 2.04529 588.398 5.77209C588.484 7.89723 588.703 11.3412 588.887 13.425C589.29 17.9967 589.626 23.0295 589.93 29.0375C590.055 31.4997 590.261 35.2192 590.388 37.303C590.514 39.3868 590.722 42.8996 590.849 45.1093C591.237 51.8346 591.506 56.3016 591.749 60.033C591.877 61.9901 592.079 66.6803 592.2 70.4539C592.402 76.8064 592.639 78.7745 593 77.103C593.213 76.1176 593.82 67.0816 593.822 64.86C593.823 63.7901 593.974 61.3105 594.157 59.3497C594.34 57.389 594.602 52.5482 594.74 48.5918C594.878 44.6363 595.084 40.6064 595.199 39.6375C595.315 38.6695 595.519 35.3973 595.654 32.3667C595.789 29.336 596.003 25.8232 596.129 24.5604C596.39 21.9595 596.931 13.7611 597.304 6.76671C597.442 4.17778 597.648 1.95804 597.764 1.83314C598.044 1.53099 616.02 1.42998 616.576 1.72753C617.044 1.97733 617.021 2.97102 616.427 8.14428C616.246 9.72299 615.993 12.4956 615.863 14.3067C615.734 16.1177 615.534 18.0298 615.418 18.5542C615.302 19.0795 615.141 20.6453 615.06 22.0348C614.978 23.4244 614.713 26.2117 614.47 28.2312C614.227 30.2498 614.025 32.5228 614.021 33.2823C614.017 34.0409 613.914 35.3863 613.793 36.2698C613.671 37.1533 613.463 39.013 613.33 40.4025C613.197 41.7921 612.936 44.1367 612.75 45.6135C612.565 47.0902 612.314 49.8509 612.193 51.7474C612.072 53.6438 611.873 55.8452 611.75 56.6387C611.627 57.4322 611.463 59.1146 611.385 60.3774C611.306 61.6402 611.097 63.8094 610.919 65.1989C610.741 66.5884 610.493 69.0157 610.368 70.5944C610.243 72.1731 610.041 74.1881 609.921 75.0716C609.799 75.955 609.637 77.609 609.558 78.7451C609.479 79.8811 609.266 82.1541 609.084 83.7962C608.902 85.4383 608.647 88.3303 608.517 90.2249C608.388 92.1195 608.178 94.2887 608.053 95.0464C607.927 95.8041 607.673 98.1285 607.491 100.212C606.783 108.26 606.202 113.665 605.992 114.161L605.773 114.677H592.135C581.501 114.677 578.447 114.614 578.267 114.39ZM618.668 114.403C618.453 114.188 618.391 101.516 618.391 58.03V1.93415L618.941 1.72479C619.667 1.44927 652.586 1.47496 653.117 1.75231C653.489 1.94609 653.519 2.60733 653.519 10.6322C653.519 17.07 653.448 19.3734 653.244 19.5782C653.042 19.7802 651.118 19.8537 646.02 19.8537C639.384 19.8537 639.06 19.8739 638.833 20.2982C638.471 20.9741 638.507 46.9956 638.871 47.3593C639.07 47.5586 640.715 47.6348 644.827 47.6348C649.119 47.6348 650.553 47.7046 650.693 47.9214C650.955 48.3273 650.803 64.6773 650.534 64.9463C650.415 65.0657 647.809 65.2072 644.743 65.2605C639.994 65.344 639.127 65.4129 638.882 65.7243C638.66 66.009 638.595 69.4345 638.595 81.0714C638.595 89.3111 638.675 96.1017 638.774 96.1623C638.872 96.2229 641.997 96.2991 645.719 96.3312C649.441 96.3624 652.719 96.4718 653.005 96.5737L653.525 96.7592L653.464 105.66L653.404 114.562L636.174 114.621C622.964 114.666 618.88 114.615 618.668 114.403ZM656.55 114.401C656.337 114.188 656.274 101.354 656.274 58.03V1.93415L656.811 1.72938C657.515 1.46213 675.553 1.48602 676.076 1.75511C676.458 1.95073 676.479 4.43311 676.479 49.0069C676.479 80.0859 676.557 96.1007 676.708 96.1944C676.834 96.2725 679.842 96.3266 683.392 96.3165C687.946 96.3028 689.941 96.3744 690.166 96.5608C690.426 96.7766 690.484 98.3581 690.484 105.307C690.484 110.714 690.398 113.95 690.246 114.232C690.015 114.666 689.586 114.677 673.417 114.677C660.818 114.677 656.759 114.611 656.55 114.401ZM740.123 114.401C739.91 114.188 739.847 101.354 739.847 58.0282C739.847 4.81791 739.868 1.92222 740.249 1.7661C740.47 1.67518 746.695 1.60079 754.082 1.60079C767.364 1.60079 767.539 1.60722 769.81 2.13897C773.312 2.96 776.183 4.45054 778.035 6.41037C778.908 7.33427 781.165 11.084 781.185 11.6415C781.19 11.8013 781.345 12.3459 781.53 12.851C782.433 15.3215 782.548 18.1023 782.548 37.303C782.547 59.9237 782.463 60.9358 780.191 65.5066C778.44 69.0295 775.544 71.5073 771.735 72.7425C769.596 73.4368 765.14 74.0384 762.143 74.0384C760.716 74.0384 759.815 74.1375 759.638 74.3139C759.428 74.5242 759.363 79.2888 759.363 94.3576C759.363 109.426 759.298 114.191 759.087 114.401C758.883 114.606 756.46 114.677 749.605 114.677C742.75 114.677 740.328 114.606 740.123 114.401ZM761.746 56.9601C762.174 56.781 762.749 56.2539 763.058 55.7543L763.61 54.8671L763.677 37.9174L763.742 20.9686L763.241 20.1577C762.374 18.7553 760.404 17.9857 759.638 18.7516C759.429 18.961 759.363 23.5025 759.363 37.7898C759.363 48.1087 759.425 56.7149 759.502 56.9151C759.676 57.3678 760.719 57.389 761.746 56.9601ZM785.124 114.401C784.911 114.188 784.848 101.354 784.848 58.03V1.93415L785.441 1.70825C786.181 1.42722 818.08 1.47957 818.656 1.76335C819.028 1.94611 819.058 2.58804 819.058 10.319C819.058 15.1929 818.964 18.9215 818.834 19.265L818.61 19.8537H811.931C807.766 19.8537 805.085 19.9427 804.808 20.0915C804.377 20.322 804.364 20.7124 804.367 33.5798C804.369 41.5156 804.458 46.969 804.588 47.1756C804.769 47.4612 805.775 47.5393 810.497 47.6348L816.188 47.7496L816.249 56.2924C816.307 64.6984 816.301 64.8398 815.838 65.0869C815.529 65.2522 813.581 65.3238 810.172 65.2953C805.379 65.2558 804.952 65.2853 804.67 65.6719C804.423 66.0099 804.364 68.9083 804.364 80.8362C804.364 88.9474 804.426 95.7462 804.503 95.9464C804.625 96.266 805.458 96.3092 811.489 96.3092C817.408 96.3092 818.386 96.3579 818.697 96.6701C819.012 96.9851 819.058 98.1138 819.058 105.578C819.058 111.92 818.987 114.197 818.782 114.401C818.573 114.611 814.522 114.677 801.953 114.677C789.384 114.677 785.333 114.611 785.124 114.401ZM822.28 114.232C822.118 113.93 822.043 96.0208 822.043 58.0098C822.043 6.35068 822.071 2.20786 822.423 1.91582C822.738 1.65591 825.146 1.60813 836.256 1.64211C844.533 1.66782 850.063 1.77436 850.627 1.91946C851.132 2.04803 852.152 2.30705 852.892 2.4944C855.21 3.07941 858.059 4.74994 860.197 6.7759C861.078 7.61163 862.778 10.4522 863.32 11.9932C864.599 15.6319 864.633 16.1278 864.633 30.9891C864.633 43.582 864.597 44.9127 864.211 46.4868C863.59 49.0179 862.912 50.8427 862.198 51.8998C861.268 53.2774 859.051 55.2262 857.498 56.0316C855.955 56.8324 855.648 57.4082 856.639 57.647C859.168 58.255 862.049 60.9707 863.213 63.8434C864.638 67.3617 864.581 66.3873 864.755 90.2249C864.868 105.656 864.993 112.33 865.182 113.038C865.64 114.75 866.048 114.677 856.115 114.677H847.309L846.974 114.161C846.772 113.849 846.539 112.501 846.387 110.774C846.249 109.195 846.027 107.077 845.894 106.067C845.744 104.938 845.637 97.4195 845.614 86.5514C845.577 69.1103 845.57 68.8605 845.097 67.9541C844.434 66.6821 843.316 65.9621 842.14 66.0494L841.214 66.1173L841.096 90.3397C841.032 103.662 840.954 114.588 840.925 114.62C840.894 114.651 836.74 114.677 831.694 114.677C822.857 114.677 822.509 114.66 822.28 114.232ZM843.092 48.6689C844.008 48.3971 844.39 48.1243 844.913 47.3676L845.576 46.4106V33.6487V20.8869L845.055 20.0493C844.29 18.8178 842.085 18.0408 841.375 18.7516C841.166 18.9601 841.099 22.6033 841.099 33.7443C841.099 48.2364 841.134 49.0124 841.792 49.0124C841.871 49.0124 842.456 48.8572 843.092 48.6689Z" fill="#FBF9F6"/>
  </g>
  <defs>
    <clipPath id="clip"><rect fill="white" width="865.369" height="268.188"/></clipPath>
  </defs>
</svg>
