<svg xmlns="http://www.w3.org/2000/svg" fill="none" viewBox="0 0 450 427.455" preserveAspectRatio="none">
  <g clip-path="url(#clip)">
  <path clip-rule="evenodd" fill-rule="evenodd" d="M261.03 483.265C260.658 483.024 259.482 482.825 258.417 482.821C256.968 482.816 256.202 482.536 255.374 481.707C254.291 480.625 254.268 480.448 254.268 473.338C254.268 469.343 254.463 465.71 254.701 465.264C255.79 463.228 260.069 462.97 261.757 464.838C262.53 465.693 262.608 466.588 262.608 474.598C262.608 480.081 262.437 483.47 262.157 483.558C261.909 483.637 261.402 483.505 261.03 483.265ZM259.352 479.653C260.003 478.892 260.128 477.769 260.128 472.681C260.128 466.908 260.081 466.591 259.144 466.089C258.306 465.641 258.038 465.713 257.341 466.574C256.647 467.431 256.522 468.446 256.522 473.201C256.522 480.198 257.322 482.023 259.352 479.653ZM4.05746 473.366V463.879H7.66409C11.19 463.879 11.2707 463.904 11.2707 464.983C11.2707 465.996 11.0773 466.097 8.90387 466.223L6.53702 466.359L6.39276 468.119C6.13443 471.277 6.53792 471.994 8.57432 471.994C9.56163 471.994 10.3993 472.197 10.4367 472.445C10.6499 473.868 10.4755 474.036 8.56575 474.248L6.53702 474.474L6.39952 476.877C6.22685 479.897 6.75432 480.56 9.32855 480.56C11.1499 480.56 11.3203 480.653 11.1896 481.574C11.0561 482.513 10.7847 482.599 7.55139 482.72L4.05746 482.852V473.366ZM16.9322 482.279C16.4061 480.663 13.991 464.67 14.2178 464.303C14.537 463.787 16.091 463.741 16.3985 464.239C16.5206 464.436 16.971 467.073 17.3993 470.099C17.8271 473.125 18.3181 475.601 18.4903 475.601C18.6621 475.601 19.1535 473.42 19.5818 470.754C20.6962 463.82 20.6759 463.879 21.9139 463.879C23.3426 463.879 23.3097 464.713 21.4883 474.699L20.0493 482.589L18.5872 482.73C17.6738 482.819 17.0531 482.65 16.9322 482.279ZM26.3564 482.256C26.231 481.929 26.1832 477.71 26.2509 472.883L26.3735 464.105H29.9801C33.2861 464.105 33.5868 464.18 33.5868 465.006C33.5868 465.777 33.2405 465.928 31.1992 466.045L28.8111 466.182L28.945 468.976L29.0785 471.769L31.0224 471.909C32.7306 472.032 32.9493 472.168 32.8258 473.036C32.7099 473.849 32.3452 474.047 30.7492 474.163L28.8129 474.302L28.9459 477.319L29.0785 480.335L31.3326 480.56C33.2112 480.748 33.5868 480.936 33.5868 481.687C33.5868 482.5 33.2423 482.602 30.0861 482.72C27.5033 482.818 26.5254 482.696 26.3564 482.256ZM36.8796 482.275C36.7678 481.951 36.6921 477.731 36.7106 472.896L36.7448 464.105L39.7866 463.971C42.5235 463.851 42.9415 463.951 43.9558 464.965C44.9206 465.93 45.0829 466.504 45.0829 468.943C45.0829 470.657 44.8313 472.153 44.4517 472.695C43.9108 473.467 43.9108 473.719 44.4517 474.459C45.3895 475.742 45.3291 482.297 44.3765 482.663C43.1791 483.122 42.6394 482.027 42.455 478.762C42.2711 475.508 41.7157 474.502 40.2581 474.779C39.576 474.909 39.4119 475.539 39.2221 478.761C39.0174 482.234 38.9083 482.601 38.0396 482.725C37.5135 482.8 36.9914 482.597 36.8796 482.275ZM41.5651 471.882C43.4865 470.361 42.5849 465.912 40.4182 466.221C39.5828 466.34 39.4282 466.697 39.3091 468.785C39.1049 472.368 39.7794 473.294 41.5651 471.882ZM51.2444 482.513C51.0789 482.348 50.9437 480.757 50.9437 478.978C50.9437 476.428 50.5609 474.564 49.1354 470.176C47.3249 464.602 47.3005 463.639 48.9799 463.95C49.5732 464.06 50.1304 465.058 50.8959 467.384C51.4896 469.187 52.0983 470.542 52.2484 470.396C52.3985 470.249 52.9481 468.774 53.4692 467.117C54.2969 464.487 54.5683 464.087 55.6107 463.962C56.2675 463.884 56.8018 463.985 56.7986 464.188C56.7954 464.39 55.9867 467.092 55.0011 470.191C53.5576 474.732 53.2086 476.504 53.2037 479.32C53.1987 482.406 53.1014 482.814 52.3715 482.814C51.9166 482.814 51.4094 482.679 51.2444 482.513ZM66.0343 482.269C65.9058 481.934 65.8562 477.71 65.9238 472.883L66.0465 464.105L69.0895 463.971C71.8274 463.851 72.2454 463.951 73.2597 464.965C74.2452 465.951 74.3868 466.485 74.3868 469.219C74.3868 473.125 73.6154 474.275 70.7396 474.66L68.7514 474.925L68.526 478.757C68.3168 482.31 68.2267 482.599 67.2844 482.733C66.7254 482.812 66.1628 482.604 66.0343 482.269ZM71.5182 471.287C72.89 469.193 71.2364 465.516 69.2636 466.273C68.6969 466.491 68.526 467.168 68.526 469.2C68.526 470.654 68.6613 471.979 68.8267 472.144C69.4845 472.803 70.7995 472.384 71.5182 471.287ZM77.8609 482.532C77.686 482.357 77.5426 478.088 77.5426 473.046V463.879H78.6697H79.7967V471.946C79.7967 480.927 79.6597 480.56 83.0206 480.56C84.6274 480.56 84.8032 480.668 84.6747 481.574C84.5426 482.502 84.2581 482.6 81.3548 482.72C79.6083 482.791 78.0362 482.706 77.8609 482.532ZM87.308 482.481C87.0988 482.142 89.8723 465.904 90.389 464.443C90.6058 463.83 93.1318 463.658 93.4866 464.232C93.8238 464.778 96.4774 480.209 96.4774 481.624C96.4774 482.665 96.3061 482.852 95.463 482.733C94.7133 482.626 94.34 482.15 94.0326 480.904C93.6007 479.155 92.6152 478.491 91.1455 478.957C90.6644 479.11 90.1491 479.919 89.9057 480.904C89.605 482.121 89.22 482.627 88.5176 482.727C87.9833 482.803 87.4387 482.692 87.308 482.481ZM92.8708 475.439C92.8708 473.444 92.2982 470.191 91.947 470.191C91.5728 470.191 90.6734 475.597 90.9538 476.164C91.0454 476.35 91.5142 476.503 91.9957 476.503C92.6147 476.503 92.8708 476.191 92.8708 475.439ZM101.756 482.533C101.58 482.357 101.437 480.675 101.437 478.794C101.437 476.074 101.08 474.25 99.6923 469.869C98.7329 466.84 98.0567 464.254 98.1892 464.121C98.3222 463.988 98.9033 463.879 99.4799 463.879C100.397 463.879 100.655 464.306 101.524 467.261C102.071 469.12 102.65 470.642 102.81 470.642C102.97 470.642 103.543 469.12 104.083 467.261C104.964 464.228 105.181 463.879 106.182 463.879C107.591 463.879 107.578 464.105 105.871 469.289C104.846 472.403 104.386 474.802 104.188 478.08C103.941 482.17 103.83 482.601 102.996 482.72C102.49 482.793 101.932 482.708 101.756 482.533ZM113.067 482.275C112.954 481.951 112.924 480.876 112.999 479.884C113.076 478.892 113.021 475.404 112.878 472.132L112.618 466.184L111.197 466.046C110.124 465.942 109.777 465.688 109.777 465.006C109.777 464.175 110.12 464.095 114.172 463.976L118.568 463.847V464.99C118.568 465.995 118.378 466.133 117.001 466.133H115.433L115.31 474.361C115.19 482.359 115.16 482.592 114.23 482.725C113.704 482.8 113.18 482.597 113.067 482.275ZM121.622 479.694C121.497 477.952 121.498 473.67 121.623 470.18C121.844 464.043 121.883 463.838 122.802 463.969C123.668 464.093 123.764 464.434 123.883 467.824L124.014 471.543H125.781H127.548L127.679 467.824C127.807 464.192 127.837 464.105 128.937 464.105H130.064V473.347V482.589H128.937C127.825 482.589 127.808 482.533 127.68 478.392L127.55 474.196L125.877 474.335L124.203 474.474L123.978 478.531C123.772 482.232 123.669 482.6 122.8 482.724C121.926 482.849 121.83 482.601 121.622 479.694ZM133.896 473.378V463.879H136.766C138.986 463.879 139.904 464.091 140.823 464.814C141.896 465.657 142.011 466.042 142.011 468.771C142.011 470.632 141.769 472.14 141.38 472.695C140.839 473.467 140.839 473.719 141.38 474.459C142.318 475.742 142.257 482.297 141.305 482.663C140.121 483.117 139.652 482.128 139.411 478.676C139.172 475.258 138.868 474.718 137.182 474.706C136.239 474.7 136.178 474.911 136.055 478.644C135.933 482.346 135.862 482.598 134.911 482.733L133.896 482.877V473.378ZM138.855 471.543C140.677 469.722 139.585 465.901 137.334 466.222C136.499 466.341 136.358 466.702 136.238 469.022C136.145 470.847 136.286 471.803 136.689 472.058C137.559 472.61 137.861 472.538 138.855 471.543ZM146.657 481.727L145.392 480.639L145.259 473.95C145.144 468.223 145.241 467.035 145.935 465.693C146.895 463.835 148.889 463.076 151.14 463.711C153.543 464.389 154.183 466.273 154.18 472.671C154.178 478.757 153.699 481.118 152.263 482.125C150.749 483.184 148.137 482.999 146.657 481.727ZM150.938 480.019C151.306 479.651 151.479 477.502 151.479 473.289C151.479 468.263 151.346 466.966 150.77 466.391C150.38 466.001 149.888 465.683 149.675 465.683C149.463 465.683 148.97 466.001 148.58 466.391C148.005 466.966 147.872 468.263 147.872 473.289C147.872 479.601 148.11 480.56 149.675 480.56C150.072 480.56 150.64 480.317 150.938 480.019ZM158.629 481.953C157.579 481.103 157.565 480.981 157.565 472.598V464.105H158.692H159.819L159.943 471.736C160.07 479.536 160.295 480.56 161.887 480.56C163.359 480.56 163.651 479.038 163.651 471.348V463.879H164.778H165.905V472.24C165.905 480.516 165.894 480.612 164.798 481.707C163.385 483.121 160.228 483.247 158.629 481.953ZM170.618 481.707C169.536 480.625 169.512 480.445 169.512 473.392C169.512 466.422 169.548 466.142 170.6 464.919C171.496 463.877 172.05 463.654 173.743 463.654C176.482 463.654 177.754 464.879 177.811 467.57C177.849 469.355 177.759 469.515 176.725 469.515C175.783 469.515 175.575 469.274 175.457 468.05C175.277 466.188 174.081 465.464 172.737 466.406C171.827 467.043 171.766 467.457 171.766 472.951C171.766 478.995 172.122 480.56 173.495 480.56C174.847 480.56 175.372 479.576 175.372 477.046C175.372 474.994 175.232 474.578 174.471 474.379C173.195 474.046 173.32 472.525 174.65 472.191C175.245 472.042 176.209 471.987 176.792 472.07C177.764 472.207 177.864 472.464 177.991 475.15C178.265 480.898 177.189 482.814 173.689 482.814C172.205 482.814 171.454 482.544 170.618 481.707ZM181.459 481.829C181.318 481.255 181.26 477.032 181.331 472.445L181.459 464.105H182.586C183.687 464.105 183.716 464.191 183.844 467.845C183.985 471.868 184.291 472.343 186.401 471.813C187.451 471.55 187.516 471.342 187.64 467.82C187.767 464.193 187.797 464.105 188.897 464.105H190.024V473.347V482.589H188.897C187.786 482.589 187.768 482.532 187.64 478.419L187.511 474.248H185.742H183.972L183.843 478.419C183.721 482.334 183.652 482.597 182.714 482.731C181.983 482.835 181.647 482.593 181.459 481.829ZM199.918 482.238C199.797 481.92 199.752 477.71 199.82 472.883C199.94 464.281 199.962 464.102 200.914 463.966C201.824 463.837 201.905 464.068 202.173 467.573C202.393 470.454 202.274 482.076 202.017 482.701C201.856 483.097 200.1 482.709 199.918 482.238ZM206.659 481.682C205.741 480.764 205.553 480.187 205.665 478.639C205.777 477.089 205.97 476.728 206.687 476.728C207.311 476.728 207.653 477.135 207.854 478.12C208.237 479.991 208.637 480.56 209.572 480.56C210.79 480.56 211.439 479.628 211.439 477.878C211.439 476.489 211.053 475.92 208.508 473.556C205.633 470.885 205.578 470.791 205.578 468.509C205.578 465.226 206.949 463.654 209.81 463.654C212.414 463.654 213.653 464.776 213.808 467.275C213.909 468.913 213.816 469.076 212.709 469.204C211.636 469.328 211.484 469.176 211.357 467.851C211.238 466.611 211.009 466.335 210.004 466.219C209.155 466.121 208.648 466.354 208.302 466.999C207.509 468.482 208.228 470.061 210.603 472.05C213.202 474.226 214.144 475.831 214.144 478.088C214.144 481.205 212.669 482.778 209.728 482.8C208.249 482.811 207.524 482.546 206.659 481.682ZM224.538 481.938C223.3 480.699 223.101 479.026 223.252 471.093L223.386 464.105H224.513H225.64L225.865 471.946C226.061 478.772 226.193 479.852 226.88 480.284C227.454 480.646 227.883 480.646 228.458 480.284C229.145 479.852 229.276 478.772 229.472 471.946L229.697 464.105H230.824H231.952L232.088 470.642C232.252 478.515 231.98 480.739 230.71 481.922C229.39 483.152 225.762 483.161 224.538 481.938ZM235.559 481.829C235.417 481.255 235.359 477.032 235.43 472.445L235.558 464.105H237.122H238.686L240.052 468.463C240.804 470.86 241.571 472.973 241.757 473.159C241.943 473.345 242.095 471.333 242.095 468.688C242.095 463.917 242.104 463.879 243.174 463.879C243.767 463.879 244.333 464.133 244.43 464.443C244.528 464.753 244.531 469.025 244.437 473.936L244.265 482.866L243.086 482.727C241.999 482.6 241.776 482.167 240.224 477.179C239.298 474.203 238.488 471.667 238.423 471.543C238.359 471.419 238.195 473.854 238.059 476.953C237.823 482.34 237.768 482.595 236.814 482.731C236.083 482.835 235.747 482.593 235.559 481.829ZM248.667 482.284C248.167 480.696 247.941 474.032 248.223 469.21C248.523 464.084 248.581 463.84 249.487 463.969C250.416 464.102 250.436 464.294 250.436 473.34C250.436 481.784 250.368 482.59 249.645 482.729C249.211 482.812 248.77 482.612 248.667 482.284ZM267.307 481.651C266.233 480.509 266.215 480.346 266.215 472.297V464.105H267.342H268.469L268.694 471.946C268.89 478.772 269.021 479.852 269.708 480.284C270.283 480.646 270.712 480.646 271.286 480.284C271.973 479.852 272.105 478.772 272.301 471.946L272.526 464.105H273.653H274.78V472.297C274.78 480.346 274.761 480.509 273.687 481.651C272.816 482.578 272.168 482.814 270.497 482.814C268.827 482.814 268.178 482.578 267.307 481.651ZM278.643 481.766C278.415 481.168 278.264 476.95 278.308 472.392L278.387 464.105H281.994C285.391 464.105 285.609 464.164 285.744 465.119C285.879 466.068 285.724 466.133 283.356 466.133H280.824L280.958 468.951L281.092 471.769L283.036 471.909C284.744 472.032 284.963 472.168 284.839 473.036C284.728 473.817 284.321 474.07 282.895 474.248L281.092 474.474V477.404V480.335L283.487 480.472C285.662 480.597 285.869 480.7 285.741 481.599C285.613 482.499 285.306 482.6 282.328 482.721C279.228 482.847 279.034 482.797 278.643 481.766ZM288.981 481.268C288.981 479.841 289.113 479.658 290.137 479.658C291.169 479.658 291.277 479.815 291.151 481.124C291.043 482.247 290.773 482.623 289.996 482.733C289.106 482.859 288.981 482.678 288.981 481.268ZM81.3196 455.877C81.3679 453.604 81.4855 453.285 82.2763 453.285C82.9737 453.285 83.2113 453.634 83.3249 454.828C83.4854 456.511 82.669 458.469 81.807 458.469C81.4409 458.469 81.2827 457.627 81.3196 455.877ZM261.625 457.516C261.762 456.991 261.635 456.179 261.343 455.711C260.676 454.643 261.412 453.285 262.657 453.285C263.724 453.285 264.039 455.295 263.264 457.165C262.627 458.703 261.237 459 261.625 457.516ZM4.05746 446.779V437.28H5.56413C6.94818 437.28 7.11588 437.436 7.62938 439.196C7.93684 440.25 8.62797 442.533 9.16581 444.268L10.1437 447.424L10.3691 442.465C10.5837 437.744 10.6432 437.499 11.6088 437.362L12.6232 437.218V446.746V456.275L11.3961 456.132C10.25 455.999 10.0706 455.661 8.68657 451.031C7.87102 448.303 7.05457 445.767 6.87199 445.395C6.6894 445.023 6.43784 447.255 6.31296 450.354C6.09476 455.776 6.04787 455.995 5.07183 456.134L4.05746 456.278V446.779ZM17.3366 455.108C16.2528 454.025 16.2298 453.85 16.2298 446.734V439.465L17.5476 438.147C18.9686 436.726 20.7499 436.444 22.6961 437.33C24.494 438.15 24.7956 439.54 24.7956 447.015C24.7956 453.832 24.7685 454.029 23.6888 455.108C22.8354 455.962 22.1091 456.215 20.5127 456.215C18.9163 456.215 18.1901 455.962 17.3366 455.108ZM22.0875 452.842C22.706 451.215 22.1059 440.108 21.3661 439.494C20.3734 438.671 19.0511 439.445 18.7694 441.015C18.3514 443.347 18.5079 452.262 18.9826 453.149C19.6435 454.384 21.574 454.193 22.0875 452.842ZM34.579 455.93C34.4055 455.756 34.263 451.489 34.263 446.447V437.28H35.8116H37.3598L38.8547 442.127L40.3492 446.973L40.5746 442.24L40.8 437.506L42.0488 437.362L43.2981 437.219L43.1759 446.604L43.0542 455.99H41.9325C40.7153 455.99 40.4006 455.316 38.2438 448.1C37.0938 444.252 37.0667 444.3 36.6204 451.025C36.3589 454.965 36.1488 456.007 35.5934 456.113C35.2093 456.186 34.7531 456.104 34.579 455.93ZM47.2023 455.93C47.0287 455.756 46.8862 451.489 46.8862 446.447V437.28H50.042C52.5833 437.28 53.3714 437.454 54.0882 438.171C55.2572 439.34 55.6107 440.882 55.3442 443.654C55.0733 446.471 53.9331 447.716 51.3021 448.067L49.3658 448.326L49.1404 452.153C48.965 455.131 48.7599 456.011 48.2166 456.114C47.8325 456.187 47.3763 456.104 47.2023 455.93ZM52.2804 444.974C52.9661 443.693 52.8525 440.634 52.0955 440.006C51.7371 439.709 50.9766 439.532 50.4049 439.613C49.488 439.743 49.3495 440.045 49.2274 442.186C49.1512 443.52 49.1958 444.889 49.3261 445.229C49.6832 446.159 51.7412 445.982 52.2804 444.974ZM59.4468 455.355C58.4171 454.522 58.3779 454.248 58.2394 447.01L58.0961 439.526L59.4445 438.178C62.5295 435.093 67.0676 437.406 66.6425 441.848C66.532 443.006 66.2876 443.367 65.6141 443.367C64.9739 443.367 64.6457 442.95 64.4212 441.851C63.9992 439.789 62.8979 438.716 61.8677 439.365C61.1978 439.787 61.0698 440.765 60.962 446.284C60.8317 452.964 61.058 453.961 62.7045 453.961C63.7396 453.961 64.4686 452.656 64.4686 450.803C64.4686 449.596 64.616 449.411 65.4829 449.534C66.3945 449.664 66.495 449.923 66.4747 452.103C66.4567 454.077 66.2588 454.685 65.4108 455.372C64.0105 456.505 60.8583 456.496 59.4468 455.355ZM70.7856 455.094C70.0417 454.302 69.7203 453.407 69.6923 452.05C69.6562 450.291 69.7482 450.129 70.7802 450.129C71.717 450.129 71.9451 450.388 72.1326 451.66C72.5754 454.666 75.3655 454.703 75.6604 451.707C75.7893 450.392 75.4498 449.86 72.73 447.119C69.695 444.061 69.6531 443.985 69.6531 441.598C69.6531 438.743 70.5651 437.446 72.8783 437.012C74.6496 436.68 76.9277 437.484 77.5597 438.665C77.7982 439.111 77.9934 440.199 77.9934 441.083C77.9934 442.497 77.8577 442.69 76.8663 442.69C75.9845 442.69 75.7393 442.46 75.7393 441.633C75.7393 440.054 74.2592 438.879 73.0717 439.514C71.4744 440.369 71.8121 442.727 73.8102 444.668C74.7326 445.564 75.6293 446.297 75.8019 446.297C75.9751 446.297 76.539 446.98 77.0548 447.815C78.4208 450.025 78.3658 453.905 76.9502 455.235C75.4169 456.676 72.2021 456.602 70.7856 455.094ZM93.1868 455.93C93.0132 455.756 92.8708 451.476 92.8708 446.419V437.223L94.3229 437.365C95.739 437.502 95.8088 437.614 97.1406 441.873C97.8917 444.275 98.6581 446.389 98.8443 446.569C99.0305 446.75 99.1824 444.734 99.1824 442.089V437.28H100.309H101.437V446.748V456.215H100.295C98.961 456.215 98.8546 455.995 97.0779 449.567C96.3755 447.026 95.6551 444.947 95.477 444.946C95.2985 444.945 95.0956 447.427 95.0262 450.462C94.9216 455.018 94.7778 456.002 94.2012 456.112C93.8171 456.186 93.3608 456.104 93.1868 455.93ZM106.15 455.108C105.07 454.029 105.043 453.832 105.043 447.015C105.043 439.54 105.345 438.15 107.143 437.33C109.104 436.436 110.869 436.725 112.321 438.178L113.67 439.526L113.526 447.01C113.388 454.248 113.349 454.522 112.319 455.355C110.72 456.648 107.563 456.522 106.15 455.108ZM110.337 453.398C110.915 452.665 111.421 443.372 110.991 441.381C110.516 439.182 109.296 438.551 108.171 439.923C107.41 440.849 107.297 441.714 107.297 446.602C107.297 449.69 107.507 452.61 107.764 453.089C108.293 454.077 109.67 454.242 110.337 453.398ZM123.377 455.915C123.212 455.75 123.076 451.489 123.076 446.447V437.28H126.182C130.317 437.28 131.253 438.007 131.537 441.438C131.913 445.962 130.492 448.1 127.113 448.1H125.781V451.445C125.781 453.284 125.658 455.11 125.508 455.502C125.232 456.221 123.934 456.472 123.377 455.915ZM128.396 445.305C129.098 444.604 129.098 440.777 128.396 440.076C128.099 439.778 127.388 439.535 126.818 439.535C125.845 439.535 125.781 439.711 125.781 442.39C125.781 443.96 125.917 445.38 126.082 445.545C126.56 446.024 127.807 445.894 128.396 445.305ZM134.66 449.362C134.506 445.568 134.503 441.298 134.652 439.873L134.924 437.28H137.984C140.753 437.28 141.133 437.394 141.978 438.468C143.1 439.894 143.264 443.86 142.279 445.764C141.734 446.817 141.734 447.112 142.279 447.857C142.703 448.437 142.913 449.963 142.913 452.469C142.913 456.116 142.884 456.215 141.838 456.215C140.559 456.215 140.223 455.277 140.214 451.684C140.207 448.974 139.693 448.1 138.107 448.1C137.135 448.1 137.081 448.287 136.957 452.045C136.838 455.654 136.746 456.001 135.884 456.125C134.972 456.255 134.931 456.027 134.66 449.362ZM139.336 445.38C140.011 445.018 140.208 444.427 140.208 442.765C140.208 440.388 139.648 439.535 138.089 439.535C137.115 439.535 137.052 439.709 137.052 442.428C137.052 445.04 137.24 445.54 138.322 445.811C138.4 445.83 138.856 445.636 139.336 445.38ZM146.414 455.67C146.296 455.35 146.262 452.349 146.34 449.002C146.417 445.655 146.488 441.648 146.5 440.098L146.519 437.28H150.158C153.672 437.28 153.79 437.315 153.652 438.295C153.529 439.155 153.165 439.343 151.253 439.535L148.999 439.76V442.465V445.17L150.915 445.308C152.595 445.43 152.831 445.58 152.831 446.522C152.831 447.465 152.595 447.615 150.915 447.736L148.999 447.875V450.805V453.736L151.394 453.873C153.569 453.998 153.776 454.101 153.648 455C153.519 455.907 153.219 456.001 150.068 456.121C147.576 456.215 146.57 456.091 146.414 455.67ZM156.889 446.779V437.28H158.223C159.713 437.28 159.708 437.268 161.199 444.381C161.627 446.426 162.115 448.1 162.282 448.1C162.449 448.1 162.923 446.196 163.336 443.868C164.35 438.146 164.715 437.28 166.119 437.28H167.258V446.748C167.258 455.884 167.226 456.215 166.364 456.215C165.283 456.215 165.045 455.342 164.892 450.805L164.778 447.424L163.876 451.707C163.109 455.349 162.843 455.99 162.093 455.99C161.368 455.99 161.109 455.47 160.634 453.059C159.584 447.74 159.398 447.599 159.15 451.932C158.933 455.715 158.848 456 157.903 456.134L156.889 456.278V446.779ZM170.621 455.652C170.503 455.342 171.067 451.132 171.875 446.297L173.344 437.506L174.979 437.369L176.614 437.233L177.159 440.3C180.089 456.802 180.017 455.99 178.545 455.99C177.634 455.99 177.363 455.687 177.035 454.299C176.671 452.76 176.5 452.609 175.12 452.609C173.733 452.609 173.563 452.762 173.118 454.412C172.758 455.75 172.401 456.215 171.734 456.215C171.24 456.215 170.739 455.962 170.621 455.652ZM175.975 449.566C176.2 449.193 175.451 443.972 175.126 443.646C174.707 443.227 174.508 443.927 174.206 446.875C173.912 449.741 173.946 449.904 174.833 449.904C175.348 449.904 175.862 449.751 175.975 449.566ZM182.924 455.957C182.738 455.768 182.586 451.489 182.586 446.447V437.28H185.742C188.283 437.28 189.071 437.454 189.788 438.171C191.089 439.472 191.237 440.554 191.074 447.583C190.893 455.362 190.615 455.839 186.089 456.123C184.534 456.221 183.11 456.146 182.924 455.957ZM187.738 453.253C188.311 452.679 188.447 451.398 188.447 446.545C188.447 440.085 188.187 439.317 186.104 439.613C185.081 439.758 185.064 439.858 184.94 446.276C184.871 449.86 184.915 453.055 185.038 453.377C185.347 454.181 186.88 454.111 187.738 453.253ZM194.516 455.658C194.39 455.33 194.342 451.111 194.41 446.284L194.533 437.506L198.286 437.374C201.972 437.245 202.036 437.261 201.893 438.276C201.764 439.183 201.455 439.326 199.358 439.446L196.97 439.583L197.104 442.377L197.238 445.17L199.154 445.308C200.847 445.431 201.07 445.575 201.07 446.548C201.07 447.554 200.893 447.649 199.02 447.649H196.971L197.104 450.693L197.238 453.736L199.492 453.961C201.37 454.149 201.746 454.337 201.746 455.088C201.746 455.901 201.402 456.003 198.245 456.121C195.662 456.219 194.685 456.097 194.516 455.658ZM211.189 455.639C211.067 455.321 211.023 451.111 211.091 446.284L211.213 437.506H212.34H213.468L213.693 445.621L213.918 453.736L216.173 453.961C218.314 454.175 218.485 454.323 218.269 455.764C218.164 456.462 211.459 456.342 211.189 455.639ZM221.658 455.915C221.492 455.75 221.357 451.476 221.357 446.417V437.22L222.597 437.363L223.837 437.506L223.965 445.846C224.035 450.433 223.981 454.643 223.843 455.201C223.606 456.167 222.327 456.584 221.658 455.915ZM227.669 446.751V437.223L229.114 437.365C230.52 437.502 230.599 437.628 231.975 441.907C232.753 444.327 233.523 446.44 233.685 446.603C233.847 446.765 233.98 444.734 233.98 442.089V437.28H235.116H236.253L236.131 446.635L236.009 455.99H234.89C233.853 455.99 233.647 455.59 232.096 450.58C231.175 447.604 230.37 445.068 230.306 444.945C230.243 444.821 230.08 447.255 229.944 450.354C229.707 455.769 229.658 455.996 228.683 456.134L227.669 456.278V446.751ZM240.159 455.932C239.984 455.757 239.841 451.489 239.841 446.447V437.28H243.421C247.067 437.28 247.722 437.544 247.233 438.818C247.033 439.339 246.351 439.535 244.73 439.535H242.503L242.637 442.352L242.771 445.17L244.575 445.395C246.003 445.574 246.378 445.809 246.378 446.522C246.378 447.262 246.031 447.449 244.442 447.564L242.506 447.703L242.639 450.72L242.771 453.736L245.026 453.961C246.904 454.149 247.28 454.337 247.28 455.088C247.28 455.899 246.936 456.003 243.878 456.12C242.007 456.191 240.334 456.107 240.159 455.932ZM251.24 455.337C250.172 454.342 249.422 450.962 250.115 450.269C251.016 449.368 252.232 450.09 252.464 451.665C252.736 453.507 253.9 454.414 255.057 453.685C257.004 452.459 256.288 450.176 252.915 446.855C250.293 444.274 250.21 444.119 250.21 441.834C250.21 440.536 250.405 439.111 250.644 438.665C251.748 436.602 256.281 436.366 257.636 438.3C258.015 438.842 258.325 440.051 258.325 440.988C258.325 442.503 258.201 442.69 257.198 442.69C256.305 442.69 256.071 442.463 256.071 441.595C256.071 440.525 255.036 439.084 254.268 439.084C253.452 439.084 252.464 440.555 252.464 441.77C252.464 442.732 253.173 443.744 255.395 445.955C258.316 448.862 258.325 448.878 258.325 451.436C258.325 453.559 258.134 454.193 257.218 455.108C255.792 456.535 252.655 456.655 251.24 455.337ZM0.563536 319.766C0.231275 319.632 0 318.716 0 317.532C0 315.093 3.81402 273.792 6.30259 249.285C7.29712 239.49 8.34259 229.042 8.62616 226.067C8.90928 223.092 9.31188 220.198 9.52106 219.636L9.90066 218.616L24.2235 218.735L38.5459 218.854L38.8799 220.432C39.0634 221.3 39.732 227.589 40.3654 234.407C40.9988 241.226 42.0173 251.573 42.6286 257.4C43.9955 270.424 47.1058 301.759 48.0088 311.597C48.4975 316.926 48.5421 319.023 48.1765 319.464C47.4457 320.344 30.5378 320.333 29.6564 319.451C29.2309 319.026 28.8084 315.84 28.2774 309.048C27.8563 303.664 27.396 299.071 27.254 298.842C26.9109 298.287 21.3165 298.305 20.9721 298.862C20.8233 299.103 20.3775 303.718 19.9812 309.119C19.5849 314.519 19.0611 319.191 18.8172 319.501C18.488 319.919 16.1473 320.056 9.75053 320.029C5.00736 320.01 0.873707 319.891 0.563536 319.766ZM25.8979 277.011C25.8641 273.361 24.2807 248.657 24.0653 248.42C23.971 248.317 23.82 248.317 23.7294 248.42C23.4445 248.746 21.6975 279.219 21.9414 279.613C22.069 279.82 23.0171 279.928 24.0481 279.852L25.9227 279.716L25.8979 277.011ZM50.6038 319.692C50.1547 319.407 50.0619 309.032 50.1529 269.319L50.2674 219.305L60.2785 219.183L70.2901 219.062L70.7224 220.761C70.9605 221.696 72.5001 229.764 74.1438 238.69C75.7875 247.617 77.3055 255.529 77.5169 256.273C77.7459 257.078 77.9199 249.915 77.9474 238.564C77.9831 223.755 78.1192 219.457 78.557 219.301C79.8387 218.844 96.0104 218.792 96.4616 219.244C96.7777 219.56 96.9282 235.812 96.9282 269.614C96.9282 314.704 96.8593 319.544 96.215 319.791C95.8228 319.942 91.374 320.065 86.3292 320.065C75.9268 320.065 76.0481 320.104 75.5269 316.593C75.3507 315.403 74.1262 308.952 72.8062 302.257C71.4862 295.562 69.9326 287.65 69.3533 284.675L68.3006 279.265L68.1829 299.303C68.0932 314.646 67.9345 319.424 67.5067 319.696C66.7741 320.162 51.3373 320.158 50.6038 319.692ZM100.144 319.46C99.7076 318.935 99.5223 308.905 99.3158 274.679C99.1693 250.422 99.2013 227.989 99.3871 224.827L99.7238 219.079H115.315C133.485 219.079 134.76 219.269 138.368 222.514C140.853 224.747 142.198 227.492 142.886 231.732C143.65 236.441 143.493 301.803 142.708 306.21C141.877 310.872 140.643 313.265 137.67 315.982C133.696 319.614 132.977 319.744 115.61 319.956C102.753 320.112 100.628 320.044 100.144 319.46ZM122.61 301.16C123.23 300 123.256 238.094 122.637 236.465C122.299 235.576 121.882 235.309 120.833 235.309H119.47V268.67V302.032H120.806C121.667 302.032 122.309 301.721 122.61 301.16ZM14.445 213.142C7.17359 212.104 2.801 207.832 1.37142 200.37C0.999488 198.426 0.891739 186.747 0.990471 158.884L1.12707 120.102L2.61255 117.085C4.32345 113.61 6.35263 111.738 9.91824 110.343C12.0547 109.507 13.565 109.345 20.8387 109.176C26.1278 109.053 30.4017 109.176 32.2848 109.503C39.508 110.761 43.4018 114.76 44.601 122.154C45.2889 126.393 45.2398 150.667 44.5419 151.365C43.725 152.182 25.5399 152.126 24.8583 151.305C24.5274 150.907 24.3191 146.555 24.2393 138.393C24.1329 127.475 24.0341 126.027 23.3683 125.607C22.8232 125.263 22.4211 125.296 21.9031 125.726C21.2629 126.258 21.189 129.862 21.189 160.49C21.189 179.284 21.312 194.981 21.4626 195.374C21.8174 196.298 23.7163 196.298 24.0711 195.374C24.2217 194.981 24.3448 188.53 24.3448 181.037C24.3448 171.042 24.489 167.27 24.8858 166.873C25.6508 166.108 43.7769 166.108 44.5419 166.873C45.2402 167.572 45.2907 194.985 44.6019 199.243C43.6164 205.335 40.4385 209.878 35.6948 211.978C32.4534 213.412 20.8058 214.051 14.445 213.142ZM419.002 213.196C412.045 212.288 407.393 208.319 405.912 202.031C405.096 198.562 405.031 172.638 405.836 171.832C406.62 171.048 423.491 171.069 424.12 171.855C424.375 172.173 424.71 177.431 424.888 183.915C425.125 192.541 425.354 195.566 425.806 196.033C426.582 196.834 428.599 196.356 428.908 195.297C429.035 194.863 429.2 189.944 429.277 184.365C429.404 175.03 429.347 174.122 428.563 172.965C428.094 172.274 425.558 170.157 422.928 168.261C411.476 160.008 408.247 156.825 406.335 151.906C405.643 150.128 405.545 148.094 405.533 135.45C405.519 119.623 405.628 118.777 408.156 115.09C409.288 113.439 410.399 112.525 412.724 111.331L415.796 109.753L425.761 109.598C439.122 109.389 441.922 110.031 445.747 114.181C448.835 117.53 449.141 119.15 449.367 133.324C449.514 142.57 449.426 145.788 449.014 146.285C448.267 147.184 430.18 147.277 429.861 146.383C429.751 146.073 429.504 141.378 429.312 135.949C429.006 127.271 428.869 126.019 428.175 125.582C427.601 125.221 427.171 125.221 426.597 125.583C425.894 126.026 425.795 127.085 425.692 135.274C425.587 143.614 425.655 144.595 426.427 145.854C426.895 146.616 430.154 149.424 433.669 152.094C443.076 159.236 445.039 160.989 446.642 163.678C449.337 168.197 449.56 170.061 449.383 186.532C449.232 200.572 449.176 201.392 448.208 203.817C446.001 209.348 441.785 212.347 435.027 213.195C430.748 213.731 423.107 213.732 419.002 213.196ZM247.204 212.396C242.898 210.885 240.092 208.051 238.358 203.46L237.361 200.821V160.922C237.361 122.146 237.387 120.955 238.262 118.593C239.398 115.529 242.036 112.506 244.795 111.108C248.139 109.414 252.015 108.956 261.159 109.177C268.35 109.351 269.707 109.504 272.075 110.412C275.922 111.887 278.698 114.836 280.02 118.853C280.959 121.705 281.045 122.913 281.21 135.676C281.326 144.649 281.223 149.857 280.913 150.666L280.438 151.906H271.015C263.497 151.906 261.485 151.778 261.069 151.276C260.697 150.829 260.564 147.167 260.609 138.643C260.674 126.428 260.536 125.307 258.962 125.307C258.629 125.307 258.147 125.699 257.89 126.179C257.58 126.758 257.423 138.4 257.423 160.806C257.423 196.593 257.413 196.415 259.482 196.018C260.315 195.858 260.365 195.224 260.609 181.634C260.749 173.815 261.015 167.173 261.199 166.875C261.443 166.48 264.144 166.332 271.152 166.332C279.506 166.332 280.806 166.426 281.044 167.045C281.518 168.281 281.34 194.956 280.834 198.599C279.88 205.456 277.595 209.174 272.921 211.478L269.845 212.993L259.689 213.103C250.856 213.199 249.23 213.107 247.204 212.396ZM47.1955 212.475C47.0255 212.305 46.8862 189.301 46.8862 161.353C46.8862 118.747 46.9863 110.456 47.507 110.025C47.9403 109.665 50.9775 109.546 57.538 109.631L66.9481 109.753L67.1952 129.139C67.3309 139.801 67.4832 148.575 67.5333 148.637C67.5833 148.699 68.4074 148.75 69.365 148.75H71.1052L71.3897 146.383C71.5461 145.081 71.676 136.38 71.6778 127.046C71.6814 111.989 71.7621 110.044 72.395 109.801C73.4576 109.394 90.7514 109.484 91.4074 109.901C91.8564 110.185 91.9493 120.786 91.8582 161.401L91.7437 212.542H81.8273H71.9108L71.5375 209.837C71.332 208.349 71.2634 198.568 71.3852 188.102C71.5069 177.635 71.4983 168.658 71.3662 168.153C71.1764 167.427 70.7576 167.234 69.3749 167.234C68.4124 167.234 67.5784 167.284 67.522 167.347C67.4661 167.409 67.3137 177.603 67.1839 190.001L66.9481 212.542L57.2264 212.663C51.8792 212.73 47.3655 212.645 47.1955 212.475ZM93.4605 212.275C93.1895 212.004 93.0462 211.04 93.1417 210.134C93.2373 209.227 93.7337 203.514 94.2449 197.439C95.0907 187.387 98.2505 153.918 100.544 130.717C102.276 113.202 102.655 110.341 103.299 109.933C103.638 109.718 110.028 109.539 117.499 109.534C127.83 109.53 131.189 109.663 131.533 110.091C131.781 110.401 133.139 122.523 134.55 137.028C135.961 151.534 137.487 167.155 137.94 171.742C140.614 198.806 141.7 211.303 141.436 211.99C141.168 212.69 140.244 212.768 132.162 212.768C125.526 212.768 123.068 212.621 122.731 212.204C122.48 211.894 121.929 207.177 121.505 201.722C120.621 190.351 120.681 190.493 116.878 190.791C115.576 190.893 114.375 191.113 114.209 191.279C114.042 191.446 113.585 196.095 113.193 201.611C112.801 207.127 112.316 211.894 112.116 212.204C111.635 212.95 94.2016 213.016 93.4605 212.275ZM118.677 172.08C119.351 171.561 119.336 170.295 118.489 155.963C117.299 135.821 117.197 135.605 116.151 151.004C114.79 171.063 114.766 171.793 115.458 172.231C116.362 172.803 117.827 172.735 118.677 172.08ZM143.222 212.475C143.052 212.305 142.913 189.301 142.913 161.353C142.913 117.542 143.003 110.465 143.566 109.998C144.056 109.591 148.135 109.499 159.908 109.63C178.282 109.834 178.991 109.963 182.831 113.795C186.697 117.652 186.869 118.63 186.869 136.803C186.869 150.417 186.778 152.392 186.055 154.463C185.209 156.89 182.302 160.072 180.373 160.684C179.037 161.108 179.264 161.49 181.9 163.253C183.563 164.366 184.496 165.445 185.506 167.426L186.869 170.098L187.094 191.021C187.258 206.236 187.181 212.058 186.811 212.365C186.521 212.605 182.173 212.734 176.668 212.664L167.032 212.542L166.734 210.288C166.569 209.048 166.417 200.086 166.396 190.371C166.361 174.95 166.266 172.618 165.648 172C165.258 171.61 164.55 171.291 164.074 171.291C163.236 171.291 163.206 171.925 163.092 191.917L162.975 212.542L153.253 212.663C147.906 212.73 143.392 212.645 143.222 212.475ZM165.815 152.266C166.208 151.873 166.356 148.447 166.356 139.68C166.356 133.055 166.233 127.314 166.082 126.922C165.92 126.499 165.278 126.208 164.504 126.208H163.2V139.508V152.807H164.237C164.807 152.807 165.517 152.564 165.815 152.266ZM189.005 212.204C188.527 211.61 190.169 192.292 194.072 152.582C195.194 141.176 196.579 127.011 197.15 121.105C197.925 113.102 198.356 110.26 198.841 109.953C199.763 109.37 226.636 109.402 226.998 109.987C227.154 110.24 228.17 119.725 229.256 131.063C230.342 142.403 231.639 155.636 232.139 160.471C235.004 188.203 236.945 210.988 236.535 212.059C236.3 212.671 235.026 212.768 227.218 212.768C219.967 212.768 218.126 212.645 217.936 212.149C217.805 211.808 217.334 207.021 216.889 201.509C216.292 194.106 215.916 191.385 215.451 191.09C214.509 190.494 210.816 190.595 209.976 191.24C209.381 191.698 209.104 193.707 208.507 201.928C208.102 207.496 207.671 212.213 207.55 212.41C207.159 213.041 189.522 212.846 189.005 212.204ZM214.6 170.052C214.604 167.816 213.403 147.929 212.963 142.953C212.823 141.376 212.554 140.26 212.364 140.473C212.066 140.807 210.499 166.625 210.527 170.728C210.537 172.162 210.58 172.193 212.566 172.193H214.595L214.6 170.052ZM292.646 212.161C292.284 211.725 292.109 199.706 292.027 169.67L291.912 127.786L287.629 127.561L283.346 127.335L283.223 118.803C283.129 112.278 283.235 110.184 283.674 109.906C284.655 109.283 321.172 109.439 321.802 110.069C322.416 110.683 322.58 126.039 321.983 126.979C321.762 127.326 320.085 127.572 317.368 127.656L313.101 127.786L313.277 169.59C313.418 202.833 313.337 211.535 312.884 212.081C312.09 213.038 293.434 213.111 292.646 212.161ZM324.452 212.473C324.284 212.304 324.146 189.204 324.146 161.138V110.109L327.189 109.822C332.882 109.284 355.022 109.476 355.614 110.069C356.286 110.74 356.372 124.677 355.715 126.405C355.277 127.557 355.258 127.561 349.863 127.561C344.625 127.561 344.442 127.593 344.202 128.575C344.065 129.133 344.01 133.85 344.08 139.057L344.208 148.524L349.167 148.75L354.126 148.975V157.992V167.008L349.409 167.138C346.331 167.223 344.57 167.457 344.344 167.814C343.931 168.464 343.961 191.202 344.377 193.157L344.666 194.509L350.297 194.734L355.93 194.96V203.751V212.542L340.344 212.661C331.772 212.726 324.621 212.641 324.452 212.473ZM358.718 212.476C358.548 212.305 358.409 189.196 358.409 161.121C358.409 114.99 358.478 110.049 359.122 109.801C359.514 109.651 366.158 109.531 373.887 109.535C389.444 109.544 392.671 109.919 396.267 112.131C398.457 113.478 400.882 116.679 401.748 119.366C402.096 120.445 402.35 126.087 402.474 135.519C402.722 154.324 402.184 156.77 397.068 160.081C395.89 160.843 394.926 161.624 394.926 161.816C394.926 162.008 395.542 162.42 396.294 162.732C398.284 163.556 401.021 166.893 401.741 169.371C402.231 171.058 402.365 175.904 402.365 192.029V212.542H392.447H382.528L382.235 210.063C382.074 208.699 381.921 199.753 381.897 190.183C381.854 173.611 381.811 172.746 380.984 171.998C380.506 171.566 379.746 171.284 379.293 171.371C378.516 171.52 378.459 172.644 378.246 192.035L378.02 212.542L368.524 212.663C363.301 212.73 358.888 212.646 358.718 212.476ZM381.386 151.935C382.083 150.633 382.014 127.453 381.311 126.749C381.014 126.452 380.202 126.208 379.508 126.208H378.246V139.207C378.246 146.357 378.381 152.342 378.546 152.507C379.169 153.13 380.937 152.774 381.386 151.935ZM12.5033 103.646C6.60555 102.19 2.56702 97.5956 1.33716 90.9409C1.04097 89.34 0.921945 74.6647 1.00219 49.7279L1.12707 11.0017L2.6112 7.98749C4.52227 4.10586 6.92383 2.03024 10.9019 0.822019C13.6498 -0.0124652 14.8805 -0.0845979 23.9864 0.0583149C33.3798 0.205285 34.1918 0.285078 36.3941 1.2742C39.1468 2.51037 42.0538 5.47908 43.4324 8.46267C44.3728 10.4977 44.4067 11.1244 44.4067 26.5752V42.5796L34.9965 42.7018C28.436 42.7865 25.3988 42.6675 24.9656 42.3082C24.4665 41.8939 24.3448 39.4224 24.3448 29.7125C24.3448 23.0686 24.2217 17.3115 24.0711 16.9193C23.7474 16.0754 22.4937 15.9834 21.73 16.7471C21.3188 17.1583 21.189 25.5211 21.189 51.6314C21.189 82.4162 21.2629 86.0355 21.9031 86.567C22.4211 86.9966 22.8232 87.0295 23.3683 86.686C24.0355 86.2654 24.1446 84.609 24.3448 71.8348L24.5702 57.457H34.4884H44.4067V74.8139V92.1708L43.0136 95.1012C41.0822 99.1632 39.645 100.697 36.1623 102.413L33.1585 103.892L23.6798 103.979C18.4664 104.026 13.4374 103.877 12.5033 103.646ZM57.6741 103.501C53.4688 102.367 50.1313 99.7244 48.2707 96.0551C46.4264 92.4188 46.3741 91.06 46.5206 50.4691L46.6608 11.4724L47.695 8.9144C48.9979 5.69052 51.647 2.93821 54.9299 1.39818C57.4685 0.207539 57.5325 0.201675 68.3006 0.201675C78.4019 0.201675 79.2589 0.26569 81.2042 1.16509C85.8518 3.3142 88.7673 7.38428 89.7181 13.0503C90.0544 15.0565 90.1613 27.8515 90.0567 53.6249C89.9183 87.5845 89.829 91.4833 89.1402 93.4584C87.4067 98.4297 84.0692 101.794 79.4577 103.218C76.9696 103.987 75.3227 104.113 68.1406 104.088C62.993 104.069 58.936 103.841 57.6741 103.501ZM68.9245 86.3731C69.2947 85.9268 69.402 76.3886 69.3177 51.3212L69.2023 16.8823H68.0752H66.9481L66.8327 51.5678C66.7168 86.3623 66.738 86.9452 68.1329 86.9795C68.2884 86.9831 68.6446 86.7104 68.9245 86.3731ZM92.6318 103.114C92.5115 102.798 92.4655 79.6152 92.5295 51.5962L92.6454 0.652504L104.788 0.532134C111.792 0.462706 117.106 0.58849 117.347 0.828782C117.679 1.16059 120.591 25.2759 122.024 39.5509C122.18 41.1085 122.437 42.4633 122.596 42.5611C122.897 42.7473 124.794 26.0752 126.256 10.3778C126.728 5.31228 127.284 0.99829 127.492 0.790458C127.699 0.583077 133.739 0.46676 140.914 0.532581L153.958 0.652504L154.327 51.5281C154.531 79.5093 154.586 102.692 154.451 103.044C154.247 103.575 152.632 103.665 145.065 103.564L135.925 103.442L135.7 80.9001C135.576 68.5023 135.324 59.2715 135.14 60.3874C134.957 61.5032 133.688 71.5152 132.321 82.6358C130.954 93.7568 129.723 103.038 129.585 103.261C129.273 103.767 116.451 103.803 116.14 103.299C116.015 103.097 114.678 93.8154 113.17 82.6736C111.662 71.5318 110.281 61.706 110.102 60.8382C109.923 59.9703 109.675 69.2011 109.551 81.3509L109.326 103.442L101.088 103.565C94.744 103.659 92.8 103.556 92.6318 103.114ZM157.97 103.143C157.563 102.484 157.128 3.13387 157.526 1.54966L157.807 0.42709L173.465 0.432497C190.093 0.437907 192.142 0.646643 195.406 2.66365C197.467 3.93724 199.375 6.42221 200.438 9.21826C201.231 11.3038 201.295 12.8898 201.295 30.4072C201.295 49.2848 201.292 49.3502 200.224 52.047C199.49 53.8995 198.401 55.4882 196.771 57.0877C193.505 60.2927 190.29 61.289 183.215 61.289C180.389 61.289 178.032 61.34 177.976 61.4017C177.92 61.4635 177.768 70.948 177.638 82.478L177.401 103.442L167.853 103.563C160.794 103.653 158.218 103.543 157.97 103.143ZM180.767 43.2856C181.055 42.7464 181.233 37.7873 181.233 30.2977C181.233 17.2119 181.101 16.4239 178.954 16.7268L177.852 16.8823L177.732 29.951C177.666 37.1386 177.711 43.2757 177.831 43.5886C178.173 44.4803 180.241 44.2671 180.767 43.2856ZM204.477 103.109C204.059 101.757 203.826 58.2982 204.088 30.5884L204.373 0.42709H214.416C219.94 0.42709 224.553 0.57947 224.667 0.765212C224.816 1.00641 225.527 80.0908 225.426 85.0567C225.418 85.4548 227.001 85.6414 231.163 85.733L236.911 85.8592V94.6504V103.442L220.781 103.56C208.103 103.653 204.615 103.556 204.477 103.109ZM239.947 103.109C239.285 102.297 238.986 1.55326 239.644 0.895048C239.969 0.569549 245.26 0.453689 256.099 0.533936L272.075 0.652504L272.198 8.93423C272.284 14.6607 272.162 17.4076 271.805 17.8381C271.419 18.3029 269.941 18.4603 265.961 18.4603C262.58 18.4603 260.521 18.641 260.327 18.9548C260.159 19.2271 260.169 23.9879 260.35 29.5349L260.679 39.6199L265.475 39.747L270.272 39.8746L270.395 48.6329C270.489 55.3385 270.383 57.4768 269.944 57.7554C269.628 57.9556 267.392 58.1224 264.975 58.1264L260.579 58.1332L260.525 60.2746C260.48 62.0685 260.513 83.8003 260.563 84.8448C260.572 85.031 262.963 85.1861 265.876 85.1897C268.79 85.1938 271.432 85.3606 271.747 85.5607C272.186 85.8394 272.292 87.9776 272.198 94.6833L272.075 103.442L256.244 103.56C243.923 103.652 240.309 103.552 239.947 103.109ZM273.784 102.908C273.624 102.49 275.192 90.1853 277.27 75.5641L281.047 48.98L280.26 43.5259C279.828 40.5256 278.28 30.4636 276.821 21.1652C275.362 11.8669 274.103 3.44764 274.023 2.45582L273.879 0.652504L283.47 0.530779C290.899 0.436555 293.108 0.537992 293.274 0.981608C293.483 1.54199 296.646 29.7193 296.646 31.0235C296.646 34.7401 298.505 20.9024 299.872 7.01325C300.186 3.81687 300.668 0.976648 300.943 0.701642C301.284 0.359463 304.316 0.243149 310.54 0.332413L319.638 0.463157V1.54605C319.638 2.14159 318.838 7.45912 317.86 13.3623C316.882 19.2654 315.218 29.6408 314.162 36.4186L312.241 48.7411L314.637 64.5954C315.955 73.3149 317.514 83.5938 318.102 87.4371C319.87 98.986 320.248 102.15 319.95 102.927C319.7 103.58 318.576 103.667 310.4 103.667C301.209 103.667 301.131 103.659 300.739 102.653C300.521 102.094 299.919 97.0736 299.402 91.4946C297.956 75.8891 296.96 67.1498 296.629 67.1498C296.464 67.1498 296.192 68.7223 296.026 70.6437C295.097 81.3789 292.754 102.621 292.445 103.103C292.176 103.524 289.79 103.667 283.08 103.667C275.054 103.667 274.044 103.584 273.784 102.908Z" fill="#FBF9F6"/>
  <path clip-rule="evenodd" fill-rule="evenodd" d="M93.9983 426.754C88.5703 425.365 84.9375 421.949 83.1229 416.529C82.3556 414.237 82.2866 411.54 82.1478 378.447C82.0418 353.27 82.15 341.774 82.5161 339.225C83.7018 330.974 87.8278 326.782 96.027 325.499C101.015 324.719 113.974 325.309 117.082 326.459C120.167 327.6 123.61 330.733 124.778 333.464C126.467 337.41 126.733 340.402 126.592 353.877L126.458 366.725L117.216 366.998C112.133 367.148 107.521 367.103 106.967 366.899C105.964 366.529 105.96 366.485 105.84 354.503C105.735 344.011 105.627 342.42 104.992 342.019C104.592 341.767 103.933 341.688 103.527 341.844C102.853 342.102 102.789 345.031 102.789 375.672C102.789 405.73 102.864 409.28 103.504 409.811C104.022 410.241 104.424 410.274 104.969 409.93C105.638 409.508 105.733 407.987 105.839 396.018C105.905 388.627 106.145 382.356 106.372 382.082C106.84 381.519 125.248 381.445 126.151 382.003C126.826 382.42 126.901 410.275 126.237 413.888C125.535 417.703 123.201 421.88 120.726 423.747C116.787 426.721 115.346 427.042 105.269 427.195C99.0083 427.289 95.5635 427.154 93.9983 426.754ZM161.623 426.732C158.052 425.784 157.031 425.258 154.829 423.228C150.508 419.245 150.139 417.453 150.132 400.451C150.129 392.965 150.28 386.745 150.469 386.629C150.657 386.513 154.926 386.351 159.955 386.27C167.675 386.144 169.167 386.226 169.525 386.793C169.759 387.162 169.952 392.28 169.956 398.2C169.96 404.726 170.146 409.279 170.43 409.809C170.968 410.815 172.771 410.967 173.516 410.069C173.852 409.664 174.062 406.028 174.135 399.343C174.234 390.281 174.162 389.101 173.442 388C172.999 387.325 169.654 384.594 166.009 381.933C154.453 373.498 151.646 370.185 150.603 363.756C149.903 359.446 150.003 339.357 150.74 336.228C151.974 330.984 155.223 327.553 160.261 326.171C161.506 325.83 165.872 325.432 169.963 325.288C184.041 324.791 189.24 326.548 192.504 332.903L194.082 335.975V348.871V361.766H184.389H174.697L174.471 352.073C174.347 346.742 174.082 342.127 173.881 341.817C173.303 340.923 171.404 341.148 170.854 342.175C170.53 342.78 170.408 346.133 170.5 351.92L170.639 360.744L172.594 362.478C173.668 363.431 177.337 366.343 180.745 368.95C188.093 374.57 191.218 377.744 192.867 381.263L194.082 383.857L194.228 398.058C194.326 407.57 194.201 413.152 193.85 414.964C192.804 420.369 189.727 424.183 184.876 426.088C182.628 426.97 181.381 427.089 173.119 427.203C166.511 427.294 163.234 427.159 161.623 426.732ZM228.694 426.734C222.861 425.271 218.812 420.635 217.772 414.226C217.137 410.309 217.141 342.499 217.777 338.578C218.426 334.579 219.719 331.803 221.947 329.622C225.717 325.931 230.271 324.905 241.464 325.226C251.356 325.51 255.193 326.973 258.284 331.639C261.33 336.238 261.209 334.582 261.376 373.902C261.549 414.705 261.46 416.028 258.201 420.905C256.642 423.237 253.427 425.655 250.741 426.516C248.262 427.311 231.65 427.475 228.694 426.734ZM240.521 408.765C240.656 408.207 240.71 393.166 240.642 375.34C240.525 344.84 240.47 342.9 239.716 342.43C239.095 342.042 238.817 342.082 238.483 342.606C237.994 343.373 237.852 408.993 238.339 409.479C239.009 410.149 240.287 409.731 240.521 408.765ZM323.869 426.747C319.099 425.544 315.06 422.122 313.491 417.954C312.817 416.166 312.682 413.825 312.553 401.665C312.469 393.854 312.562 387.223 312.759 386.929C313.159 386.335 331.282 385.956 332.2 386.523C332.561 386.747 332.712 390.206 332.712 398.22C332.712 410.17 332.795 410.681 334.741 410.681C336.664 410.681 336.77 410.101 336.77 399.523C336.77 391.72 336.626 389.169 336.132 388.214C335.775 387.523 332.359 384.715 328.355 381.821C317.767 374.168 315.383 371.737 313.553 366.725C312.859 364.821 312.7 362.633 312.534 352.624C312.265 336.459 313.046 332.674 317.419 328.93C319.837 326.861 322.454 325.989 327.753 325.486C333.32 324.958 345.83 325.581 348.334 326.511C351.136 327.552 353.698 329.403 354.906 331.259C357.231 334.832 357.282 335.215 357.282 348.918V361.766L347.252 361.887C339.385 361.983 337.22 361.885 337.217 361.437C337.147 352.135 336.671 342.354 336.265 341.865C335.517 340.964 334.167 341.121 333.603 342.175C333.28 342.779 333.158 346.108 333.249 351.833C333.414 362.186 332.648 360.754 341.622 367.478C353.006 376.008 354.797 377.818 356.646 382.664C357.571 385.086 357.616 385.9 357.575 399.478C357.531 413.985 357.294 416.583 355.732 419.644C354.475 422.107 351.263 424.843 348.229 426.033C345.777 426.994 344.774 427.089 335.868 427.204C329.069 427.291 325.486 427.155 323.869 426.747ZM129.266 426.419C128.51 425.979 128.47 423.365 128.499 376.598C128.516 349.451 128.643 326.945 128.782 326.583C128.992 326.035 130.642 325.925 138.679 325.925H148.323V376.193C148.323 403.84 148.171 426.471 147.985 426.485C143.368 426.821 129.875 426.774 129.266 426.419ZM196.164 426.299C195.793 425.851 195.687 412.321 195.771 375.919L195.886 326.151H205.578H215.271L215.386 376.09L215.501 426.03L214.342 426.47C213.705 426.713 209.469 426.911 204.928 426.911C198.524 426.911 196.558 426.773 196.164 426.299ZM265.088 426.517L263.51 426.235V376.193V326.151L273.397 326.029C278.834 325.962 283.454 326.078 283.663 326.286C283.871 326.495 284.529 329.39 285.125 332.72C285.72 336.049 287.126 343.643 288.248 349.594C289.371 355.545 290.452 361.428 290.65 362.668C290.875 364.073 291.095 357.62 291.236 345.536L291.461 326.151L300.816 326.029L310.171 325.907V376.135C310.171 421.521 310.102 426.39 309.458 426.637C308.341 427.066 290.634 426.944 289.937 426.503C289.319 426.111 287.9 419.501 283.803 397.91C282.728 392.25 281.702 387.483 281.522 387.316C281.341 387.149 281.327 395.777 281.491 406.49C281.774 425.013 281.749 425.988 280.971 426.405C280.076 426.883 267.628 426.971 265.088 426.517ZM1.65133 420.743C1.14505 410.815 1.29517 326.465 1.81949 326.141C2.64721 325.63 26.3689 325.418 30.902 325.882C38.1378 326.622 41.9888 329.218 44.2907 334.906L45.3087 337.421L45.4534 372.811C45.5544 397.452 45.444 409.229 45.0905 411.583C44.4098 416.115 42.4739 420.025 39.6571 422.557C35.7299 426.088 35.2872 426.164 17.5412 426.354L1.94617 426.522L1.65133 420.743ZM24.1463 408.238C24.9984 407.615 25.0214 406.754 25.0214 375.622C25.0214 341.272 25.0809 342.155 22.7605 342.155C22.1974 342.155 21.6109 342.483 21.4571 342.884C21.1082 343.792 21.1492 403.805 21.5009 406.736C21.7786 409.055 22.4823 409.455 24.1463 408.238ZM47.5867 415.083C47.4195 408.818 47.346 386.246 47.4231 364.922L47.5629 326.151H63.7927H80.0226V334.716V343.282L74.1618 343.508L68.301 343.733L68.1797 353.764L68.0585 363.795H72.5383C75.0026 363.795 77.3392 363.918 77.7314 364.069C78.3477 364.305 78.4447 365.524 78.4447 373.037C78.4447 380.549 78.3477 381.769 77.7314 382.005C77.3392 382.156 75.003 382.279 72.5401 382.279H68.0621L68.1815 395.466L68.301 408.652L73.7109 408.692C76.6864 408.714 79.3788 408.765 79.6944 408.805C80.1402 408.862 80.2403 410.801 80.1452 417.556L80.0226 426.235L63.9564 426.353L47.8906 426.471L47.5867 415.083ZM207.418 320.27C206.075 319.898 204.306 319.179 203.487 318.673C201.199 317.259 198.505 313.933 197.366 311.114L196.336 308.568V269.572V230.575L197.414 227.87C198.872 224.211 202.195 220.905 205.804 219.521C208.121 218.632 209.579 218.454 215.963 218.28C228.297 217.944 233.348 219.292 236.685 223.807C240.301 228.701 240.05 225.586 240.204 267.543C240.347 306.657 240.29 308.081 238.389 312.522C237.233 315.223 233.403 318.791 230.503 319.87C227.474 320.996 211.069 321.28 207.418 320.27ZM219.901 271.125C219.968 253.896 219.863 238.842 219.666 237.671C219.297 235.467 218.07 234.531 217.248 235.828C217.036 236.162 216.86 251.387 216.856 269.662C216.85 300.839 216.898 302.916 217.638 303.336C218.208 303.659 218.615 303.598 219.103 303.117C219.689 302.539 219.796 298.263 219.901 271.125ZM253.939 320.272C251.018 319.485 248.602 317.988 246.632 315.745C244.638 313.473 243.59 311.006 242.997 307.188C242.435 303.561 242.55 219.827 243.118 219.258C243.523 218.854 261.732 218.677 262.37 219.071C262.637 219.236 262.905 235 263.072 260.346C263.22 282.901 263.434 301.812 263.547 302.369C263.77 303.471 265.423 303.808 265.758 302.82C265.863 302.51 266.171 283.598 266.443 260.793C266.729 236.75 267.11 219.222 267.35 219.074C267.654 218.886 283.649 218.871 286.4 219.055C286.592 219.068 286.693 239.316 286.625 264.049C286.507 307.251 286.468 309.099 285.636 311.048C283.485 316.087 280.782 318.575 275.755 320.144C273.585 320.822 271.646 320.961 264.71 320.936C258.977 320.916 255.546 320.705 253.939 320.272ZM298.64 320.06C293.152 317.897 290.114 313.221 289.396 305.832C288.851 300.223 288.912 237.067 289.466 232.961C290.251 227.152 292.218 223.479 295.744 221.238C299.134 219.084 301.653 218.536 309.276 218.296C320.657 217.936 325.539 219.129 329.346 223.199C333.348 227.478 333.388 227.68 333.388 243.649V257.625H323.47H313.552L313.307 246.354C313.172 240.155 313.02 235.02 312.969 234.942C312.918 234.864 312.217 234.864 311.411 234.942L309.945 235.083L309.607 244.776C309.421 250.107 309.32 265.241 309.382 278.406C309.474 297.908 309.609 302.483 310.113 303.089C310.89 304.025 311.708 304.037 312.618 303.126C313.221 302.524 313.327 300.88 313.327 292.112V281.807L312.312 281.663C311.344 281.525 311.28 281.255 310.913 275.739C310.701 272.549 310.701 268.813 310.913 267.399L311.298 264.838H322.343H333.388L333.505 292.611L333.621 320.384L330.574 320.672C322.864 321.4 321.374 321.014 320.55 318.073C320.232 316.937 319.831 316.007 319.658 316.007C319.486 316.007 318.853 316.534 318.251 317.177C317.651 317.821 316.246 318.886 315.13 319.544C313.239 320.66 312.688 320.748 307.015 320.852C301.819 320.946 300.594 320.83 298.64 320.06ZM337.412 320.511L336.093 320.281V269.792V219.304L345.561 219.079C350.768 218.955 355.28 219.029 355.587 219.243C356.013 219.539 356.173 224.139 356.263 238.628L356.381 257.625L358.297 257.763L360.213 257.902V239.203C360.213 228.919 360.336 220.184 360.486 219.792C360.725 219.172 362.046 219.079 370.63 219.079H380.5L380.517 220.319C380.754 237.451 380.355 320.326 380.034 320.524C379.797 320.671 375.426 320.766 370.322 320.734C362.814 320.688 360.964 320.554 360.634 320.032C360.406 319.672 360.224 309.907 360.22 297.861L360.213 276.334H358.458C357.273 276.334 356.614 276.566 356.429 277.047C356.278 277.439 356.155 287.285 356.155 298.926C356.155 315.458 356.032 320.134 355.592 320.282C354.727 320.572 338.906 320.771 337.412 320.511ZM163.922 319.688C163.788 319.471 163.538 300.709 163.366 277.994L163.054 236.693L158.957 236.564L154.86 236.436L154.738 227.817L154.616 219.197L157.356 218.887C160.336 218.55 192.373 218.618 193.293 218.964C193.717 219.122 193.857 221.292 193.857 227.693C193.857 234.181 193.723 236.222 193.293 236.258C192.983 236.285 192.426 236.351 192.054 236.406C191.682 236.462 189.908 236.542 188.111 236.584L184.845 236.661L184.73 278.25L184.615 319.839L174.391 319.96C168.767 320.027 164.056 319.904 163.922 319.688Z" fill="#BD3133"/>
  </g>
  <defs>
    <clipPath id="clip"><rect fill="white" width="450" height="427.455"/></clipPath>
  </defs>
</svg>
