<svg xmlns="http://www.w3.org/2000/svg" fill="none" viewBox="0 0 400.072 641.676" preserveAspectRatio="none">
  <path clip-rule="evenodd" fill-rule="evenodd" d="M179.281 641.279C175.26 640.062 175.044 639.164 175.044 623.709C175.044 610.156 175.087 609.712 176.58 607.975C178.437 605.816 183.033 605.071 186.808 606.317C189.829 607.314 191.198 610.038 191.198 615.05V618.437H188.169H185.14V615.49C185.14 612.353 183.882 610.597 182.12 611.273C181.263 611.602 181.101 613.582 181.101 623.745C181.101 636.335 181.304 637.19 183.962 635.823C185.561 635.001 185.713 627.187 184.13 627.187C183.401 627.187 183.121 626.44 183.121 624.495V621.803H187.159H191.198V628.77C191.198 636.742 190.483 639.473 188.114 640.552C185.609 641.693 181.708 642.014 179.281 641.279ZM257.177 641.322C252.579 640.212 252.449 639.685 252.449 622.026V606.244L255.197 606.451L257.945 606.658L257.866 620.925C257.792 634.133 257.879 635.241 259.025 635.854C261.849 637.366 262.104 636.184 262.222 621.016L262.334 606.658L265.133 606.451L267.931 606.244V622.131V638.018L266.278 639.67C265.369 640.579 264.083 641.326 263.418 641.332C262.753 641.337 261.603 641.464 260.863 641.614C260.123 641.764 258.464 641.633 257.177 641.322ZM61.8702 640.037C60.3207 638.785 60.2722 638.421 59.9444 625.552C59.5863 611.493 59.8293 609.263 61.926 607.365C63.6613 605.794 68.7687 605.237 71.4079 606.33C74.3251 607.538 75.4256 610.122 75.4256 615.761V620.556L72.565 620.318L69.7043 620.082L69.503 615.86C69.3543 612.746 69.0198 611.531 68.2275 611.226C65.9155 610.339 65.3292 612.832 65.3292 623.559C65.3292 629.196 65.5129 634.287 65.7378 634.873C65.9626 635.458 66.8712 635.938 67.757 635.938C69.2998 635.938 69.3678 635.742 69.3678 631.31V626.683L71.4712 626.262C75.468 625.462 75.4256 625.409 75.4256 631.26C75.4256 636.904 74.4045 640.122 72.3664 640.904C71.7673 641.134 69.5179 641.322 67.368 641.322C64.5248 641.322 63.0259 640.972 61.8702 640.037ZM78.118 623.822V606.244L80.9786 606.451L83.8393 606.658L83.9726 612.716C84.0459 616.048 84.122 619.152 84.1408 619.615C84.161 620.094 85.0468 620.456 86.1951 620.456H88.2144V613.389V606.321H90.9068H93.5992V623.86V641.4L90.7385 641.192L87.8778 640.986L88.1101 633.703L88.3416 626.419L86.0908 626.635L83.8393 626.851V633.918V640.986L80.9786 641.192L78.118 641.4V623.822ZM95.6507 639.808C95.6689 638.975 96.1037 635.265 96.6173 631.562C97.1309 627.86 98.0806 620.654 98.7268 615.548L99.9027 606.264L103.986 606.461L108.071 606.658L110.205 621.466C111.379 629.611 112.364 637.41 112.393 638.798C112.445 641.302 112.424 641.322 109.761 641.322C107.15 641.322 107.065 641.249 106.646 638.63C106.245 636.123 106.064 635.938 104.005 635.938C101.951 635.938 101.762 636.127 101.34 638.63C100.9 641.235 100.799 641.322 98.2516 641.322C95.9597 641.322 95.6225 641.126 95.6507 639.808ZM105.244 630.048C105.4 629.771 105.177 626.666 104.749 623.149C103.897 616.143 103.465 616.663 102.653 625.673C102.237 630.282 102.289 630.553 103.587 630.553C104.344 630.553 105.09 630.325 105.244 630.048ZM114.465 623.822V606.321H117.481H120.497L120.678 620.961L120.859 635.601H123.215C125.506 635.601 125.577 635.68 125.778 638.462L125.985 641.322H120.225H114.465V623.822ZM127.927 623.822V606.321H130.942H133.959L134.14 620.961L134.321 635.601L136.677 635.632C138.958 635.662 139.04 635.755 139.24 638.493L139.447 641.322H133.687H127.927V623.822ZM141.389 623.847V606.321H147.447H153.505V609.014V611.706H150.476H147.447V616.043V620.379L150.307 620.586C153.084 620.787 153.174 620.867 153.377 623.317C153.575 625.715 153.482 625.845 151.526 625.925C150.393 625.972 149.088 626.047 148.625 626.094C148.058 626.15 147.719 627.757 147.586 631.019L147.389 635.862L150.573 636.068C153.723 636.272 153.756 636.298 153.754 638.63L153.752 640.986L147.571 641.18L141.389 641.373V623.847ZM156.197 623.822V606.321H159.467H162.736L163.909 611.874C166.89 625.978 166.82 625.892 166.898 615.576L166.966 606.321H169.659H172.351V623.822V641.322H169.384H166.417L164.062 631.731L161.708 622.139L161.645 631.731L161.582 641.322H158.889H156.197V623.822ZM193.89 623.822V606.321H199.948H206.006V609.014V611.706H202.977H199.948V616.081V620.456H202.64H205.333V623.149V625.841H202.64H199.948V630.889V635.938H202.977H206.006V638.63V641.322H199.948H193.89V623.822ZM221.438 640.818C221.411 640.54 221.428 638.19 221.477 635.596C221.542 632.115 220.846 627.974 218.82 619.779C217.31 613.673 215.908 608.147 215.707 607.499C215.394 606.498 215.791 606.321 218.365 606.321H221.392L222.122 609.855C222.524 611.799 223.094 614.752 223.391 616.418C224.005 619.873 224.148 619.594 225.883 611.538L227.007 606.321H229.708C232.913 606.321 232.944 605.173 229.328 620.301C227.565 627.676 226.872 632.095 226.872 635.95V641.322H224.179C222.699 641.322 221.465 641.095 221.438 640.818ZM235.57 639.355L233.603 637.387V623.829C233.603 615.405 233.878 609.757 234.33 608.913C235.874 606.027 241.799 604.836 245.961 606.575C249.513 608.059 249.865 609.809 249.63 624.793L249.42 638.076L247.532 639.7C245.988 641.026 244.903 641.322 241.59 641.322C238.009 641.322 237.31 641.094 235.57 639.355ZM243.546 623.732C243.703 613.609 243.579 611.804 242.705 611.469C242.141 611.253 241.226 611.25 240.67 611.462C239.827 611.786 239.661 613.76 239.661 623.445C239.661 629.822 239.875 635.255 240.138 635.518C240.4 635.779 241.233 635.906 241.989 635.798C243.305 635.609 243.371 635.098 243.546 623.732ZM271.072 640.873C270.825 640.627 270.623 632.752 270.623 623.373V606.321H276.643C282.013 606.321 282.865 606.494 284.526 607.923C286.168 609.336 286.419 610.087 286.658 614.308C286.963 619.712 286.575 621.908 285.045 623.439C284.084 624.399 284.115 624.657 285.383 626.269C286.579 627.79 286.777 628.985 286.777 634.682V641.322H283.748H280.719V635.01C280.719 628.443 279.968 626.557 277.699 627.428C276.884 627.741 276.681 629.164 276.681 634.571V641.322H274.101C272.681 641.322 271.318 641.12 271.072 640.873ZM279.998 621.525C280.472 620.953 280.706 618.874 280.585 616.308C280.391 612.213 280.309 612.034 278.532 611.83L276.681 611.617V616.598C276.681 619.337 276.883 621.78 277.13 622.027C277.867 622.764 279.156 622.538 279.998 621.525ZM297.418 640.818C297.304 640.54 297.3 632.665 297.411 623.317L297.613 606.321H301.606C306.255 606.321 305.67 605.135 307.418 618.101L308.598 626.851L310.09 616.754C310.911 611.201 311.604 606.583 311.632 606.49C311.66 606.397 313.499 606.321 315.72 606.321H319.759V623.822V641.322H317.066H314.374V631.114C314.374 625.499 314.215 621.064 314.021 621.259C313.689 621.59 311.019 638.652 311.012 640.481C311.01 641.009 310.036 641.322 308.398 641.322H305.787L305.065 636.442C304.668 633.759 304.134 629.51 303.879 627C303.073 619.079 302.258 621.352 302.258 631.523V641.322H299.942C298.668 641.322 297.533 641.095 297.418 640.818ZM322.451 623.822V606.321H325.48H328.509V623.822V641.322H325.48H322.451V623.822ZM331.201 623.785V606.247L334.333 606.453L337.465 606.658L339.67 615.745L341.874 624.832L341.922 615.576L341.971 606.321H344.663H347.356V623.822V641.322H344.379H341.403L339.062 631.731L336.721 622.139L336.653 631.731L336.586 641.322H333.894H331.201V623.785ZM350.048 623.822V606.321H355.389C365.749 606.321 366.202 607.056 366.202 623.822C366.202 637.468 365.753 639.297 362.084 640.577C360.906 640.986 357.717 641.322 354.996 641.322H350.048V623.822ZM359.32 635.372C359.973 634.958 360.134 632.099 359.993 623.436L359.808 612.043L357.957 611.83L356.106 611.617V623.777C356.106 634.914 356.205 635.937 357.284 635.927C357.931 635.921 358.848 635.672 359.32 635.372ZM81.4969 597.418C78.4821 595.824 78.1388 594.104 78.1281 580.542C78.1173 566.753 78.5198 564.87 81.8012 563.375C84.9108 561.958 89.9106 562.358 92.047 564.194L93.9357 565.817L94.141 579.931C94.3456 594.002 94.3416 594.05 92.7282 595.925C91.3631 597.513 90.4888 597.846 87.1381 598.054C84.6975 598.205 82.5227 597.96 81.4969 597.418ZM87.8778 580.407V568.292H86.1951H84.5124L84.3273 579.709C84.2256 585.989 84.2997 591.538 84.4922 592.04C84.6854 592.543 85.5261 592.857 86.3607 592.738C87.8704 592.524 87.8778 592.466 87.8778 580.407ZM184.315 597.755C181.834 597.494 181.793 597.442 180.405 592.652C177.189 581.551 177.175 581.54 177.116 589.999L177.063 597.571H174.034H171.005V580.407V563.243H174.034H177.063V570.109C177.063 573.956 177.316 576.693 177.638 576.335C177.954 575.984 178.919 573.201 179.78 570.152C180.642 567.103 181.549 564.281 181.796 563.882C182.042 563.483 183.471 563.251 184.97 563.368L187.695 563.58L185.128 571.535L182.561 579.491L185.197 588.253C187.96 597.438 188.149 598.315 187.328 598.131C187.05 598.069 185.695 597.9 184.315 597.755ZM189.85 580.576L189.852 563.243H195.909H201.967V565.936V568.628H198.938H195.909V572.965V577.301L198.77 577.508C201.547 577.709 201.637 577.789 201.839 580.239L202.049 582.763H198.979H195.909V587.438V592.112L199.107 592.318C202.261 592.52 202.307 592.556 202.51 595L202.716 597.477L196.282 597.692L189.849 597.908L189.85 580.576ZM232.27 597.38C229.261 595.858 228.912 594.113 228.901 580.542C228.89 566.087 229.281 564.559 233.334 563.221C237.06 561.991 241.661 562.749 243.509 564.897C245.001 566.632 245.045 567.083 245.045 580.497V594.309L243.078 596.277C241.392 597.963 240.598 598.243 237.525 598.234C235.553 598.229 233.188 597.844 232.27 597.38ZM238.651 580.407V568.292H236.968H235.285L235.1 579.709C234.999 585.989 235.073 591.538 235.265 592.04C235.459 592.543 236.299 592.857 237.134 592.738C238.644 592.524 238.651 592.466 238.651 580.407ZM59.9444 580.407V563.243H66.0326C71.5997 563.243 72.2627 563.385 73.7732 564.896C74.6818 565.805 75.437 567.243 75.4512 568.093C75.5144 571.875 75.5272 580.977 75.4788 587.337C75.4296 593.761 75.3051 594.387 73.7732 595.919C72.2627 597.43 71.5997 597.571 66.0326 597.571H59.9444V580.407ZM69.6323 591.122C70.1647 589.735 70.1647 571.08 69.6323 569.693C69.4075 569.107 68.4988 568.628 67.613 568.628H66.0023V580.407V592.186H67.613C68.4988 592.186 69.4075 591.707 69.6323 591.122ZM96.9646 580.407V563.243H100.197H103.43L105.404 571.994C106.49 576.806 107.61 580.744 107.892 580.744C108.176 580.744 108.407 576.806 108.407 571.994V563.243H110.763H113.119L113.187 569.133C113.225 572.372 113.301 580.095 113.355 586.295L113.455 597.567L110.325 597.569L107.194 597.571L105.362 589.662C102.684 578.097 102.446 577.989 102.395 588.316L102.349 597.571H99.657H96.9646V580.407ZM128.457 583.1L128.651 568.628H126.27C123.94 568.628 123.888 568.57 123.888 565.936V563.243H131.292H138.696V565.936C138.696 568.564 138.641 568.628 136.341 568.628H133.985V583.1V597.571L131.124 597.572L128.264 597.573L128.457 583.1ZM148.823 585.421C148.779 578.738 148.948 571.014 149.197 568.257L149.652 563.243H152.251H154.851V577.677V592.109L157.711 592.316C160.488 592.517 160.578 592.597 160.781 595.047L160.99 597.571H154.947H148.904L148.823 585.421ZM162.255 580.407V563.243H165.284H168.313V580.407V597.571H165.284H162.255V580.407ZM217.326 583.1L217.54 568.628H215.138C212.785 568.628 212.737 568.574 212.737 565.936V563.243H220.141H227.545V565.936C227.545 568.564 227.489 568.628 225.189 568.628H222.833V583.1V597.571L219.973 597.572L217.112 597.573L217.326 583.1ZM116.506 573.894C116.517 573.404 116.972 572.415 117.516 571.697C118.852 569.929 118.759 569.301 117.157 569.301C116.01 569.301 115.811 568.852 115.811 566.272V563.243H118.84H121.869V566.509C121.869 568.796 121.408 570.459 120.331 572.058C118.757 574.393 116.468 575.492 116.506 573.894ZM63.3712 525.53C60.1295 524.153 59.9889 523.44 59.966 508.335L59.9444 494.15L61.6366 492.56C62.9013 491.372 64.3115 490.899 67.2219 490.689C70.6857 490.438 71.3527 490.607 73.2704 492.22C75.361 493.98 75.4256 494.194 75.4256 499.359V504.684H72.429H69.4317L69.2318 500.484C69.0655 496.998 68.8158 496.243 67.7658 496.043C67.0698 495.91 66.2412 496.21 65.9249 496.709C65.6085 497.208 65.3453 502.501 65.3393 508.472C65.3312 517.268 65.519 519.485 66.3301 520.158C68.4382 521.908 69.3678 520.475 69.3678 515.475V510.742H72.3967H75.4256V516.426C75.4256 523.804 74.2457 525.468 68.6947 525.918C66.6586 526.084 64.263 525.909 63.3712 525.53ZM81.332 525.174C80.323 524.627 79.1875 523.598 78.8079 522.889C77.9282 521.246 77.8891 496.625 78.7621 494.327C80.01 491.045 86.391 489.441 90.5891 491.354C93.8617 492.844 94.2722 494.745 94.2722 508.386C94.2722 522.397 93.8394 524.193 90.1536 525.477C87.229 526.497 83.5357 526.37 81.332 525.174ZM87.4753 519.908C88.0064 519.269 88.1895 515.426 88.0629 507.624L87.8778 496.271H86.1951H84.5124L84.3273 507.688C84.2256 513.968 84.2916 519.496 84.474 519.972C84.9115 521.112 86.5047 521.077 87.4753 519.908ZM137.687 525.628C136.946 525.302 135.735 524.363 134.994 523.541C133.775 522.187 133.627 520.921 133.427 510.101C133.17 496.233 133.72 493.088 136.668 491.564C137.747 491.006 140.154 490.549 142.018 490.549C144.811 490.549 145.793 490.895 147.604 492.513L149.803 494.477V508.316V522.154L148.068 523.889C146.748 525.209 145.461 525.695 142.683 525.921C140.675 526.085 138.427 525.953 137.687 525.628ZM143.255 508.531C143.413 498.288 143.291 496.52 142.405 496.18C141.837 495.962 140.921 496.157 140.37 496.614C139.56 497.287 139.37 499.518 139.37 508.334C139.37 519.469 139.729 521.127 142.048 520.681C142.91 520.515 143.101 518.596 143.255 508.531ZM217.112 525.587C216.372 525.284 215.16 524.363 214.42 523.54C213.16 522.14 213.078 521.152 213.146 508.258L213.219 494.473L215.013 492.68C216.585 491.107 217.342 490.886 221.151 490.886C225 490.886 225.707 491.098 227.361 492.751L229.228 494.615L229.449 506.617C229.716 521.118 229.185 523.869 225.844 525.265C223.346 526.308 219.244 526.459 217.112 525.587ZM222.699 520.031C223.26 519.469 223.506 515.906 223.506 508.334C223.506 499.22 223.333 497.301 222.44 496.56C221.667 495.918 221.066 495.87 220.253 496.382C219.294 496.986 219.104 498.681 218.946 508.033C218.762 518.897 219.088 520.838 221.098 520.838C221.534 520.838 222.254 520.475 222.699 520.031ZM253.968 525.116C251.455 523.877 250.225 520.554 250.561 515.918C250.766 513.111 250.779 513.098 253.459 513.098H256.151L256.488 516.8C256.798 520.21 256.957 520.502 258.507 520.502C260.096 520.502 260.19 520.297 260.19 516.84C260.19 513.214 260.154 513.15 256.488 510.181C254.452 508.532 252.418 506.545 251.968 505.765C251.519 504.986 251.14 502.053 251.127 499.248C251.105 494.621 251.264 493.998 252.84 492.517C254.304 491.142 255.253 490.886 258.879 490.886C264.673 490.886 265.921 492.099 266.411 498.212L266.769 502.665H263.685H260.601L260.395 499.474C260.234 496.979 259.914 496.23 258.925 496.042C257.312 495.735 256.512 497.008 256.498 499.899C256.49 501.697 257.007 502.624 258.936 504.274C266.573 510.804 266.15 510.202 266.453 514.964C266.833 520.931 265.732 524.067 262.831 525.279C259.879 526.512 256.681 526.453 253.968 525.116ZM368.558 525.623C367.818 525.3 366.606 524.363 365.866 523.541C364.644 522.185 364.499 520.918 364.294 509.834C364.028 495.358 364.457 493.231 367.985 491.557C371.509 489.884 376.524 490.469 378.883 492.827L380.674 494.617V508.386V522.153L378.867 523.961C377.448 525.38 376.29 525.816 373.482 525.99C371.514 526.111 369.299 525.947 368.558 525.623ZM374.02 520.04C374.292 519.601 374.597 514.49 374.7 508.681C374.844 500.482 374.676 497.837 373.949 496.858C373.203 495.853 372.765 495.749 371.795 496.343C370.714 497.005 370.557 498.317 370.392 508.033C370.206 519.017 370.526 520.838 372.639 520.838C373.128 520.838 373.749 520.48 374.02 520.04ZM387.741 525.748C387.186 525.545 386.05 524.759 385.217 524.001C383.729 522.647 383.703 522.348 383.703 506.923V491.222H386.395H389.088V505.275C389.088 517.276 389.243 519.457 390.154 520.212C390.927 520.854 391.528 520.903 392.341 520.39C393.32 519.773 393.486 517.876 393.644 505.453L393.826 491.222L396.673 491.222L399.521 491.22L399.148 507.544C398.944 516.522 398.716 523.908 398.643 523.959C395.904 525.852 390.465 526.744 387.741 525.748ZM96.9646 508.386V491.222H102.985C108.378 491.222 109.202 491.391 110.894 492.846C112.702 494.403 112.782 494.727 112.782 500.516C112.782 505.303 112.54 506.83 111.618 507.848C110.515 509.068 110.515 509.195 111.618 510.298C112.538 511.217 112.83 512.937 113.012 518.505L113.241 525.55H110.151H107.061V519.884C107.061 513.109 106.743 512.088 104.633 512.088C103.042 512.088 103.022 512.168 103.022 518.819V525.55H99.9935H96.9646V508.386ZM106.399 505.337C106.801 504.586 107.039 502.39 106.927 500.457C106.739 497.183 106.599 496.929 104.873 496.731L103.022 496.518V501.611C103.022 506.224 103.147 506.703 104.345 506.703C105.072 506.703 105.997 506.089 106.399 505.337ZM115.811 508.386V491.222H121.899C127.467 491.222 128.13 491.364 129.64 492.875C131.204 494.438 131.292 494.942 131.292 502.328C131.292 509.714 131.204 510.218 129.64 511.782C128.371 513.052 127.279 513.434 124.928 513.434H121.869V519.492V525.55H118.84H115.811V508.386ZM125.235 502.328C125.235 496.674 125.215 496.607 123.552 496.607C121.889 496.607 121.869 496.674 121.869 502.328C121.869 507.982 121.889 508.05 123.552 508.05C125.215 508.05 125.235 507.982 125.235 502.328ZM152.607 525.101C152.36 524.855 152.158 517.131 152.158 507.937V491.222H158.462C163.82 491.222 165.032 491.432 166.539 492.618C168.227 493.945 168.313 494.313 168.313 500.254C168.313 505.651 168.13 506.66 166.959 507.72L165.605 508.945L166.959 510.206C168.119 511.287 168.313 512.323 168.313 517.444C168.313 520.731 168.496 523.9 168.721 524.485C169.056 525.359 168.587 525.55 166.101 525.55C162.404 525.55 162.255 525.248 162.255 517.754C162.255 512.228 162.215 512.088 160.645 512.088C159.086 512.088 159.019 512.304 158.553 518.819L158.071 525.55H155.564C154.184 525.55 152.854 525.348 152.607 525.101ZM162.115 501.542C162.292 497.189 162.177 496.673 160.943 496.281C160.19 496.042 159.344 495.988 159.064 496.161C158.783 496.333 158.653 498.794 158.776 501.628C158.985 506.476 159.085 506.77 160.458 506.575C161.779 506.386 161.937 505.907 162.115 501.542ZM170.678 523.026C173.185 505.534 175.044 492.236 175.044 491.784C175.044 491.475 176.855 491.222 179.069 491.222C182.694 491.222 183.129 491.373 183.438 492.737C183.881 494.691 187.832 523.406 187.832 524.669C187.832 525.38 187.095 525.574 184.972 525.42C182.266 525.225 182.093 525.086 181.774 522.858C181.463 520.678 181.262 520.502 179.082 520.502C176.845 520.502 176.716 520.63 176.518 523.026C176.31 525.533 176.289 525.55 173.312 525.55H170.316L170.678 523.026ZM180.362 511.583C180.072 509.825 179.817 507.117 179.796 505.565C179.72 500.279 178.62 502.024 178.002 508.411L177.385 514.781H179.137C180.851 514.781 180.877 514.713 180.362 511.583ZM191.871 511.079V496.607H189.852C187.945 496.607 187.832 496.458 187.832 493.915V491.222H195.277H202.722L202.513 493.746C202.322 496.051 202.113 496.289 200.116 496.481L197.929 496.693V511.121V525.55H194.9H191.871V511.079ZM204.424 519.389C203.867 511.548 203.867 502.941 204.422 496.372L204.857 491.222H207.392C209.807 491.222 209.943 491.341 210.289 493.746C210.58 495.77 210.438 523.133 210.127 525.045C210.081 525.323 208.878 525.55 207.453 525.55H204.861L204.424 519.389ZM232.257 508.386V491.222H235.22H238.183L239.975 499.131C240.961 503.481 241.975 507.494 242.228 508.05C242.482 508.605 242.774 505.046 242.877 500.141L243.065 491.222H245.738H248.411V508.423V525.624L245.228 525.419L242.045 525.214L240.224 517.81C239.222 513.737 238.383 509.724 238.359 508.891C238.335 508.058 238.012 507.377 237.641 507.377C237.226 507.377 236.968 510.854 236.968 516.463V525.55H234.612H232.257V508.386ZM282.066 511.121V496.693L279.878 496.481C277.881 496.289 277.672 496.051 277.482 493.746L277.272 491.222H285.054H292.835V493.915C292.835 496.543 292.779 496.607 290.479 496.607H288.123V511.079V525.55H285.094H282.066V511.121ZM294.854 508.386V491.222H300.912H306.97V493.915V496.607H303.941H300.912V500.982V505.357H303.941H306.97V508.05V510.742H303.941H300.912V515.454V520.165H304.278H307.643V522.858V525.55H301.249H294.854V508.386ZM310.189 517.978C310.084 513.813 310.091 506.089 310.202 500.814L310.405 491.222H312.978C315.339 491.222 315.588 491.402 315.985 493.39C316.224 494.583 316.222 498.168 315.981 501.358C315.74 504.548 315.763 510.084 316.031 513.661L316.519 520.165H319.148C321.767 520.165 321.778 520.176 321.778 522.858V525.55H316.079H310.38L310.189 517.978ZM323.797 508.386V491.222H326.813H329.828L330.01 505.526L330.192 519.829L333.052 520.035C335.899 520.242 335.913 520.256 335.913 522.896V525.55H329.855H323.797V508.386ZM351.394 519.462C351.394 514.593 350.855 511.23 348.702 502.665C347.221 496.775 346.01 491.791 346.01 491.589C346.01 491.387 347.335 491.222 348.955 491.222H351.9L353.075 497.269C353.721 500.596 354.516 503.152 354.841 502.951C355.166 502.75 355.433 502.133 355.433 501.58C355.433 501.027 355.911 498.47 356.496 495.898L357.56 491.222H360.198C361.861 491.222 362.836 491.533 362.836 492.064C362.835 492.527 361.629 497.6 360.155 503.338C358.043 511.563 357.474 515.018 357.464 519.661L357.452 525.55H354.423H351.394V519.462ZM97.8006 482.852C96.5951 482.306 95.3075 481.069 94.94 480.103C94.5704 479.13 94.2722 471.606 94.2722 463.245V448.144H97.3012H100.33V462.997V477.85L102.181 477.637L104.032 477.424L104.214 462.784L104.395 448.144H107.411H110.427V462.852C110.427 478.104 110.035 480.88 107.671 482.356C105.49 483.717 100.29 483.979 97.8006 482.852ZM117.439 483.095C113.863 482.056 112.782 480.217 112.782 475.166V470.693H115.475H118.167L118.368 474.167C118.702 479.93 122.542 479.724 122.542 473.944C122.542 470.76 121.615 469.509 116.83 466.229C113.573 463.998 112.782 462.101 112.782 456.523C112.782 450.923 113.754 449.286 117.798 448.074C120.922 447.139 125.441 448.261 126.892 450.332C127.556 451.28 127.927 453.324 127.927 456.035V460.26H125.235H122.542V457.313C122.542 454.15 121.393 452.564 119.599 453.253C118.795 453.561 118.504 454.544 118.504 456.945C118.504 460.126 118.606 460.293 122.157 462.917C127.465 466.837 127.927 467.731 127.927 474.058C127.927 480.402 127.08 482.083 123.364 483.116C120.495 483.912 120.251 483.911 117.439 483.095ZM305.203 483.379C304.416 483.211 303.053 482.309 302.174 481.374C300.638 479.74 300.567 479.217 300.35 467.852C300.092 454.304 300.382 451.978 302.609 449.752C303.978 448.383 304.873 448.144 308.653 448.144C312.465 448.144 313.321 448.376 314.741 449.797C316.159 451.214 316.393 452.074 316.393 455.855V460.26H313.364H310.336V456.85C310.336 453.527 310.288 453.445 308.485 453.653L306.633 453.866L306.448 465.219C306.271 476.128 306.603 478.434 308.351 478.434C309.916 478.434 311.009 476.094 311.009 472.742C311.009 469.733 310.795 469.111 309.662 468.815C308.631 468.546 308.316 467.897 308.316 466.045V463.625H312.355H316.393V471.334C316.393 479.222 315.71 482.195 313.767 482.757C311.836 483.316 306.666 483.691 305.203 483.379ZM63.3099 468.337V453.529H61.2906C59.3837 453.529 59.2713 453.38 59.2713 450.837V448.144H66.6754H74.0794V450.837C74.0794 453.465 74.0235 453.529 71.7236 453.529H69.3678V468.337V483.145H66.3388H63.3099V468.337ZM75.9284 482.751C75.7117 482.534 75.6625 474.734 75.82 465.419L76.1054 448.481L80.9739 448.28C90.2 447.899 91.5799 449.114 91.5799 457.62C91.5799 462.303 91.3315 463.783 90.342 465.005C89.1399 466.489 89.1399 466.57 90.342 467.772C91.3584 468.789 91.5799 470.082 91.5799 475.013C91.5799 478.314 91.7636 481.495 91.9884 482.08C92.3236 482.954 91.8538 483.145 89.3748 483.145C85.7657 483.145 85.5449 482.675 85.5314 474.972C85.5214 469.609 84.9001 468.516 82.4056 469.473C81.4922 469.824 81.3744 470.597 81.7009 474.097C81.9169 476.41 81.9169 479.391 81.7002 480.723C81.3313 482.997 81.155 483.145 78.8153 483.145C77.4442 483.145 76.1458 482.967 75.9284 482.751ZM85.1855 458.914C85.1855 453.978 85.1478 453.866 83.5027 453.866C81.9041 453.866 81.8099 454.082 81.6174 458.17C81.3684 463.449 81.7116 464.455 83.6683 464.177C85.0885 463.975 85.1855 463.64 85.1855 458.914ZM133.985 468.375V453.529H131.629C129.329 453.529 129.273 453.465 129.273 450.837V448.144H136.677H144.081V450.837C144.081 453.376 143.967 453.529 142.075 453.529H140.069L139.888 468.169L139.706 482.809L136.845 483.015L133.985 483.223V468.375ZM154.334 465.813L154.514 448.481L160.74 448.287L166.966 448.094V450.811V453.529H163.601H160.235V457.866V462.202L163.096 462.409C165.873 462.61 165.963 462.69 166.165 465.14C166.364 467.537 166.271 467.668 164.314 467.748C163.182 467.795 161.876 467.87 161.413 467.916C160.828 467.975 160.572 469.436 160.572 472.712V477.424L163.769 477.629L166.966 477.834V480.49V483.145H160.561H154.155L154.334 465.813ZM172.737 481.664C172.555 480.813 171.627 473.756 170.674 465.981C169.721 458.207 168.776 451.014 168.574 449.995C168.216 448.198 168.293 448.144 171.2 448.144C174.704 448.144 174.481 447.492 175.796 461.599C176.228 466.23 176.796 470.262 177.058 470.559C177.321 470.855 177.727 469.038 177.961 466.52C178.196 464.002 178.738 458.838 179.164 455.043L179.94 448.144H182.427C183.796 448.144 185.053 448.282 185.221 448.449C185.388 448.617 184.43 456.417 183.09 465.781L180.656 482.809L176.861 483.01C173.37 483.195 173.04 483.087 172.737 481.664ZM187.159 465.619V448.094L193.385 448.287L199.611 448.481L199.82 451.005L200.03 453.529H196.593H193.156L193.354 458.031L193.554 462.533L196.246 462.575C198.846 462.614 198.945 462.699 199.142 465.058C199.345 467.481 199.322 467.504 196.282 467.96L193.217 468.42V473.09V477.76H196.583H199.948V480.453V483.145H193.554H187.159V465.619ZM201.967 465.579V448.014L208.344 448.247C216.94 448.562 217.69 449.265 218.025 457.323C218.231 462.264 218.072 463.361 216.93 464.906C215.622 466.676 215.62 466.744 216.858 468.272C217.903 469.563 218.122 470.981 218.122 476.489V483.145H215.117H212.112L211.92 476.583L211.727 470.02L209.876 469.807L208.025 469.594V476.37V483.145H204.996H201.967V465.579ZM211.727 458.914C211.727 453.907 211.712 453.864 209.876 453.653L208.025 453.44V458.914V464.388L209.876 464.175C211.712 463.964 211.727 463.92 211.727 458.914ZM224.838 477.592C224.827 473.324 224.151 469.353 221.92 460.43C220.323 454.045 219.168 448.669 219.354 448.482C219.54 448.296 220.817 448.144 222.192 448.144C224.573 448.144 224.727 448.281 225.406 451.005C225.799 452.578 226.329 455.455 226.583 457.399C226.837 459.343 227.261 460.933 227.524 460.933C227.787 460.933 228.392 458.737 228.87 456.053C230.214 448.488 230.422 448.144 233.658 448.144C235.905 448.144 236.362 448.347 236.035 449.198C235.813 449.777 234.417 455.201 232.934 461.252C230.916 469.485 230.237 473.623 230.237 477.699V483.145H227.545H224.853L224.838 477.592ZM241.68 468.337V453.529H239.284C236.926 453.529 236.89 453.488 237.096 451.005L237.305 448.481H244.709H252.113L252.322 451.005C252.527 453.488 252.492 453.529 250.134 453.529H247.738V468.337V483.145H244.709H241.68V468.337ZM254.125 482.304C253.96 481.841 253.893 474.042 253.978 464.972L254.132 448.481L256.993 448.274L259.853 448.067V455.173V462.279H261.873H263.892L263.976 456.221C264.023 452.89 264.098 449.785 264.144 449.322C264.194 448.831 265.42 448.395 267.089 448.274L269.95 448.067V465.645V483.223L267.089 483.015C264.476 482.827 264.249 482.665 264.464 481.147C264.594 480.233 264.491 476.976 264.235 473.911L263.771 468.337H261.812H259.853V475.741V483.145H257.14C255.579 483.145 254.298 482.788 254.125 482.304ZM272.642 465.645V448.144H275.671H278.7V465.645V483.145H275.671H272.642V465.645ZM281.392 465.608V448.07L284.59 448.276L287.787 448.481L289.582 455.212C290.569 458.914 291.402 462.758 291.433 463.754C291.463 464.75 291.818 465.769 292.22 466.017C292.699 466.313 292.908 465.688 292.825 464.206C292.756 462.961 292.729 458.838 292.767 455.043L292.835 448.144H295.191H297.547V465.645V483.145H294.643H291.739L289.859 474.9C288.825 470.365 287.718 466.2 287.399 465.645C287.052 465.042 286.81 468.36 286.797 473.89L286.777 483.145H284.085H281.392V465.608ZM172.661 409.448C172.492 408.704 172.277 405.672 172.184 402.71C172.017 397.384 171.994 397.324 170.164 397.113L168.313 396.9V403.676V410.451H165.284H162.255V393.287V376.123H168.679C174.604 376.123 175.233 376.252 176.757 377.776C178.262 379.28 178.409 379.958 178.409 385.366C178.409 389.72 178.122 391.715 177.332 392.842C176.372 394.214 176.365 394.501 177.271 395.516C177.997 396.328 178.352 398.607 178.516 403.498L178.746 410.344L175.857 410.573C173.413 410.767 172.922 410.594 172.661 409.448ZM172.015 386.556C172.015 381.916 171.986 381.841 170.164 381.632L168.313 381.418V386.556V391.694L170.164 391.48C171.986 391.271 172.015 391.196 172.015 386.556ZM252.143 410.489C252.02 410.283 251.382 406.025 250.725 401.028C250.069 396.03 249.279 391.653 248.971 391.301C248.663 390.949 248.411 395.115 248.411 400.556V410.451H245.718H243.026V393.287V376.123H247.401C249.808 376.123 251.777 376.199 251.778 376.291C251.788 377.379 254.566 395.292 254.753 395.479C255.045 395.77 255.492 393.035 256.489 384.873C257.637 375.468 257.208 376.123 262.222 376.123H266.584V393.287V410.451H263.555H260.527V400.579C260.527 395.15 260.391 390.842 260.226 391.007C260.003 391.23 257.161 408.941 257.161 410.108C257.161 410.492 252.363 410.856 252.143 410.489ZM275.166 410.593L269.277 410.398V393.261V376.123H275.671H282.066V378.816V381.508H278.7H275.335V385.883V390.258H278.364H281.392V392.912C281.392 395.553 281.378 395.566 278.532 395.773L275.671 395.979L275.473 400.484L275.275 404.99L278.502 405.196C281.628 405.396 281.736 405.474 281.946 407.676C282.066 408.926 281.914 410.138 281.61 410.368C281.305 410.599 278.405 410.7 275.166 410.593ZM59.9444 393.325V376.123H62.6368H65.3292V392.614C65.3292 401.684 65.4052 409.332 65.4975 409.61C65.5897 409.888 64.3788 410.207 62.8051 410.321L59.9444 410.528V393.325ZM68.3581 393.455V376.46L71.5338 376.256C74.5176 376.063 74.7377 376.165 75.1934 377.939C75.4606 378.976 76.4985 383.157 77.5007 387.229L79.3235 394.633L79.3935 385.378L79.4642 376.123H82.1565H84.8489V393.287V410.451H81.6416H78.4343L76.4797 401.67C75.4047 396.841 74.315 392.759 74.0579 392.601C73.8001 392.442 73.7382 396.393 73.9192 401.381L74.249 410.451H71.3036H68.3581V393.455ZM96.2915 393.287V376.123H102.686H109.08V378.816V381.508H105.715H102.349V385.883V390.258H105.378H108.407V392.951V395.643H105.378H102.349V400.318V404.992L105.547 405.197C108.713 405.401 108.746 405.427 108.952 407.927L109.162 410.451H102.726H96.2915V393.287ZM111.239 393.455L111.436 376.46L114.598 376.256C118.224 376.022 117.8 375.215 120.528 387.544C121.303 391.049 122.074 394.052 122.24 394.219C122.406 394.385 122.542 390.381 122.542 385.322V376.123H125.235H127.927V393.287V410.451H124.705H121.483L119.552 401.869C118.49 397.149 117.365 392.999 117.052 392.648C116.74 392.296 116.484 396.158 116.484 401.23V410.451H113.763H111.042L111.239 393.455ZM134.658 395.979V381.508H132.302C130.002 381.508 129.946 381.444 129.946 378.816V376.123H137.238C141.249 376.123 144.672 376.265 144.846 376.439C145.02 376.613 145.037 377.825 144.884 379.131C144.639 381.239 144.387 381.508 142.662 381.508H140.716V395.979V410.451H137.687H134.658V395.979ZM147.24 409.946C147.083 409.668 146.989 402.02 147.032 392.951L147.11 376.46L153.336 376.266L159.562 376.073V378.754V381.434L156.365 381.639L153.168 381.844V385.883V389.922L156.029 390.128C158.868 390.334 158.889 390.355 158.889 392.951C158.889 395.546 158.868 395.567 156.029 395.773L153.168 395.979V400.63V405.28L156.533 405.342L159.899 405.403L160.108 407.927L160.317 410.451H153.921C150.404 410.451 147.398 410.224 147.24 409.946ZM185.14 395.979V381.508H182.784C180.484 381.508 180.428 381.444 180.428 378.816V376.123H188.169H195.909V378.816C195.909 381.444 195.854 381.508 193.554 381.508H191.198V395.979V410.451H188.169H185.14V395.979ZM195.24 409.985C195.241 409.686 196.301 402.217 197.596 393.388C198.889 384.558 199.948 377.062 199.948 376.729C199.948 376.396 201.724 376.123 203.896 376.123H207.843L209.016 383.695C209.661 387.861 210.588 393.691 211.078 396.653C211.566 399.614 212.179 403.93 212.439 406.244L212.91 410.451H210.203C207.339 410.451 206.679 409.748 206.679 406.694C206.679 405.248 206.383 405.066 204.027 405.066C201.449 405.066 201.37 405.136 201.166 407.59C200.964 410.04 200.874 410.12 198.097 410.321C196.524 410.436 195.238 410.284 195.24 409.985ZM205.328 397.83C205.318 393.828 204.442 386.948 203.979 387.234C203.711 387.4 203.284 389.739 203.031 392.431C202.779 395.123 202.416 397.856 202.224 398.504C201.957 399.41 202.275 399.681 203.605 399.681C205.042 399.681 205.332 399.37 205.328 397.83ZM214.756 393.287V376.123H217.785H220.814V393.287V410.451H217.785H214.756V393.287ZM223.506 393.287V376.123H226.794H230.081L232.347 385.042L234.612 393.96L234.8 385.042L234.988 376.123H237.661H240.334V393.287V410.451H237.086H233.838L231.931 401.869C230.883 397.149 229.779 392.833 229.479 392.277C229.176 391.719 228.923 395.553 228.911 400.859L228.891 410.451H226.199H223.506V393.287ZM284.498 396.146C284.541 388.28 284.616 380.541 284.666 378.947L284.758 376.049L287.934 376.254L291.109 376.46L293.242 385.21L295.376 393.96L295.451 385.042L295.527 376.123H298.22H300.912V393.287V410.451H297.896C295.17 410.451 294.834 410.273 294.404 408.6C294.142 407.582 293.108 403.417 292.106 399.345L290.283 391.941L290.213 401.196L290.143 410.451L287.282 410.449L284.421 410.446L284.498 396.146ZM308.161 396.148L307.98 381.844L305.792 381.634C303.73 381.435 303.605 381.27 303.605 378.773V376.123H311.009H318.413V378.816C318.413 381.444 318.357 381.508 316.057 381.508H313.701V395.979V410.451H311.022H308.343L308.161 396.148ZM234.528 368.961C231.497 368.296 230.138 365.841 230.051 360.879L229.97 356.267L232.796 356.06L235.622 355.853V359.175C235.622 361.306 235.983 362.797 236.632 363.334C238.304 364.722 239.661 362.984 239.661 359.456C239.661 356.781 239.362 356.163 237.186 354.322C230.132 348.356 230.237 348.534 230.237 342.573C230.237 337.84 230.439 336.924 231.841 335.295C233.256 333.65 233.918 333.429 237.506 333.407C240.898 333.386 241.855 333.651 243.307 335.013C244.821 336.435 245.045 337.195 245.045 340.903V345.161H242.39H239.735L239.529 341.97C239.368 339.475 239.048 338.726 238.059 338.538C236.474 338.237 235.646 339.497 235.632 342.225C235.621 344.601 236.598 345.894 241.102 349.461C245.102 352.627 245.939 354.707 245.605 360.637C245.383 364.567 245.055 365.65 243.671 367.034C241.985 368.719 237.618 369.64 234.528 368.961ZM251.325 368.448C248.439 367.143 247.738 365.56 247.738 360.35V355.93H250.43H253.122V359.214C253.122 362.714 254.201 364.326 256.066 363.61C256.889 363.295 257.161 362.292 257.161 359.572V355.953L252.855 352.57C250.487 350.708 248.367 348.709 248.144 348.128C247.475 346.385 247.685 337.766 248.431 336.374C250.048 333.352 255.241 332.225 259.448 333.982C262.026 335.06 263.219 337.67 263.219 342.232V345.161H260.227H257.235L257.03 341.964C256.862 339.349 256.592 338.766 255.552 338.766C253.722 338.766 252.863 340.541 253.376 343.269C253.724 345.128 254.69 346.313 257.869 348.781C260.097 350.511 262.238 352.751 262.626 353.76C263.014 354.769 263.226 357.789 263.094 360.472C262.89 364.659 262.608 365.598 261.097 367.108C258.949 369.257 254.471 369.871 251.325 368.448ZM337.58 368.453C336.46 367.965 335.173 366.751 334.719 365.755C333.622 363.347 333.573 339.198 334.66 336.811C336.808 332.097 346.68 331.85 349.059 336.45C350.506 339.248 350.488 363.223 349.037 366.029C347.464 369.072 341.766 370.277 337.58 368.453ZM343.837 351.128C343.994 341.006 343.87 339.201 342.996 338.865C342.432 338.649 341.517 338.647 340.961 338.859C340.118 339.183 339.952 341.157 339.952 350.842C339.952 357.219 340.166 362.652 340.429 362.914C340.691 363.176 341.524 363.303 342.28 363.194C343.596 363.006 343.662 362.495 343.837 351.128ZM59.9444 351.219V333.718H65.2976C74.4476 333.718 75.4256 334.855 75.4256 345.491C75.4256 351.808 75.2762 352.664 73.8889 354.277C72.7628 355.585 71.5035 356.159 69.1773 356.42L66.0023 356.778V362.749V368.719H62.9734H59.9444V351.219ZM69.0312 345.161C69.0312 339.74 68.9518 339.428 67.5167 339.224C66.0406 339.015 66.0023 339.166 66.0023 345.161C66.0023 351.155 66.0406 351.307 67.5167 351.098C68.9518 350.894 69.0312 350.581 69.0312 345.161ZM78.118 351.257V333.718H84.2061C89.7733 333.718 90.4363 333.86 91.9467 335.371C93.4686 336.892 93.5992 337.527 93.5992 343.399C93.5992 348.373 93.3595 350.016 92.5121 350.863C91.5112 351.864 91.524 352.061 92.6804 353.336C93.6974 354.459 93.9795 356.049 94.1652 361.72L94.3948 368.719H91.3887C88.5604 368.719 88.3578 368.595 87.962 366.616C87.7304 365.459 87.5413 362.43 87.5413 359.885C87.5413 355.415 87.4848 355.257 85.8828 355.257C84.2472 355.257 84.2223 355.346 84.0318 361.82L83.8393 368.383L80.9786 368.589L78.118 368.797V351.257ZM87.2048 344.488C87.2048 339.765 87.1072 339.425 85.6903 339.224C84.2263 339.017 84.1758 339.191 84.1758 344.488C84.1758 349.784 84.2263 349.959 85.6903 349.751C87.1072 349.55 87.2048 349.21 87.2048 344.488ZM96.9646 351.219V333.668L103.191 333.861L109.417 334.055L109.626 336.579L109.835 339.103H106.428H103.022V343.478C103.022 348.212 102.743 347.909 107.342 348.151C108.39 348.207 108.627 348.721 108.606 350.897C108.589 352.711 108.304 353.51 107.724 353.374C107.253 353.264 106.002 353.364 104.945 353.596C103.058 354.01 103.022 354.104 103.022 358.64V363.26L106.22 363.466C109.386 363.669 109.417 363.694 109.417 366.027V368.383L103.191 368.576L96.9646 368.77V351.219ZM111.773 351.219V333.718H118.167H124.561V336.411V339.103H121.165H117.769L117.968 343.646L118.167 348.19L121.066 348.398C123.964 348.607 123.964 348.608 123.758 351.091C123.559 353.495 123.466 353.577 120.859 353.628L118.167 353.683L117.977 361.201L117.786 368.719H114.779H111.773V351.219ZM126.581 351.219V333.668L132.762 333.861L138.944 334.055L138.946 336.411C138.948 338.739 138.911 338.769 135.793 338.972L132.639 339.177V343.476V347.776L135.499 347.983C138.353 348.189 138.36 348.196 138.36 350.882C138.36 353.568 138.353 353.575 135.499 353.781L132.639 353.988V358.661V363.334H136.044H139.451L139.242 365.858L139.033 368.383L132.807 368.576L126.581 368.77V351.219ZM141.389 351.219V333.718H147.499C153.354 333.718 153.69 333.8 155.576 335.686C157.439 337.549 157.543 337.953 157.543 343.335C157.543 347.971 157.299 349.329 156.216 350.704C154.896 352.383 154.896 352.397 156.216 353.592C157.375 354.64 157.543 355.682 157.543 361.794V368.797L154.682 368.589L151.822 368.383L151.485 361.988C151.149 355.607 151.145 355.593 149.298 355.381L147.447 355.168V361.944V368.719H144.418H141.389V351.219ZM150.764 348.921C151.238 348.35 151.472 346.271 151.351 343.705C151.157 339.61 151.075 339.431 149.298 339.227L147.447 339.013V343.994C147.447 346.734 147.649 349.177 147.896 349.424C148.633 350.161 149.922 349.935 150.764 348.921ZM167.64 367.9C167.64 367.098 171.349 340.211 172.054 335.906C172.412 333.723 172.421 333.718 176.42 333.718C179.174 333.718 180.43 333.981 180.435 334.56C180.439 335.023 181.499 342.822 182.791 351.892C184.083 360.962 185.14 368.458 185.14 368.551C185.14 368.644 183.795 368.719 182.151 368.719C179.184 368.719 179.162 368.702 178.954 366.195C178.758 363.821 178.599 363.659 176.287 363.466C173.891 363.266 173.817 363.331 173.367 365.99C172.92 368.636 172.826 368.719 170.273 368.719C168.653 368.719 167.64 368.404 167.64 367.9ZM177.416 353.398C177.164 350.895 176.734 347.791 176.46 346.499C175.999 344.321 175.927 344.468 175.468 348.526C175.195 350.933 174.798 354.038 174.585 355.426C174.218 357.82 174.292 357.95 176.036 357.95H177.873L177.416 353.398ZM195.236 351.219V333.718H201.002C204.173 333.718 207.379 334.045 208.126 334.445C210.287 335.602 211.391 339.223 211.391 345.161C211.391 353.869 209.531 356.603 203.606 356.603H201.294V362.661V368.719H198.265H195.236V351.219ZM204.996 345.161V339.44L203.145 339.227L201.294 339.013V345.161V351.308L203.145 351.095L204.996 350.882V345.161ZM211.388 367.205C211.387 366.372 212.353 358.483 213.536 349.675L215.687 333.661L219.746 333.858L223.806 334.055L225.976 349.199C227.169 357.529 228.161 365.328 228.182 366.532C228.217 368.629 228.111 368.719 225.612 368.719C223.092 368.719 222.991 368.63 222.575 366.027C222.168 363.484 222.013 363.334 219.804 363.334C217.595 363.334 217.44 363.484 217.034 366.027C216.618 368.63 216.517 368.719 213.997 368.719C211.743 368.719 211.39 368.514 211.388 367.205ZM221.222 355.215C220.981 353.71 220.591 350.627 220.354 348.362C219.816 343.216 219.1 344.744 218.425 352.478L217.948 357.95H219.804C221.596 357.95 221.645 357.857 221.222 355.215ZM265.911 351.219V333.718H268.553H271.195L271.414 347.012C271.534 354.323 271.53 362.198 271.404 364.512L271.176 368.719H268.544H265.911V351.219ZM277.743 366.227C277.515 364.821 276.576 357.765 275.655 350.546C274.734 343.327 273.807 336.588 273.595 335.569C273.22 333.771 273.294 333.718 276.175 333.718H279.14L279.92 339.944C280.35 343.368 280.9 348.535 281.143 351.425C281.386 354.316 281.798 356.436 282.059 356.137C282.319 355.838 282.899 351.808 283.346 347.18C284.712 333.054 284.506 333.718 287.536 333.718C290.761 333.718 290.738 332.546 287.915 352.901L285.768 368.383L281.962 368.582L278.156 368.782L277.743 366.227ZM292.162 351.219V333.718H298.556H304.951V336.411V339.103H301.554H298.159L298.357 343.646L298.556 348.19H301.249H303.941V350.882C303.941 353.568 303.934 353.575 301.08 353.781L298.22 353.988V358.661V363.334H301.585H304.951V366.027V368.719H298.556H292.162V351.219ZM315.72 351.257V333.718H321.808C327.376 333.718 328.039 333.86 329.549 335.371C331.057 336.878 331.201 337.549 331.201 343.037C331.201 347.872 330.959 349.349 329.964 350.579C328.761 352.063 328.761 352.144 329.964 353.346C330.98 354.363 331.201 355.656 331.201 360.587C331.201 363.888 331.385 367.069 331.61 367.654C331.945 368.528 331.475 368.719 328.996 368.719C325.383 368.719 325.166 368.255 325.153 360.474L325.144 355.257H323.051H320.958L321.2 361.82L321.442 368.383L318.581 368.589L315.72 368.797V351.257ZM325.004 344.319L325.2 339.103H323.125H321.049L321.39 344.319C321.578 347.189 321.742 349.633 321.755 349.751C321.768 349.869 322.46 349.869 323.293 349.751C324.694 349.552 324.822 349.147 325.004 344.319ZM352.74 351.219V333.718H355.769H358.798V348.526V363.334H361.491H364.183V366.027V368.719H358.462H352.74V351.219ZM366.202 351.219V333.718H372.597H378.991V336.411V339.103H375.595H372.199L372.397 343.63L372.597 348.158L375.289 348.219C377.964 348.279 377.981 348.296 377.981 350.927C377.981 352.551 377.656 353.607 377.14 353.659C376.677 353.705 375.376 353.78 374.249 353.827L372.199 353.911L372.397 358.454L372.597 362.998L375.794 363.203L378.991 363.408V366.064V368.719H372.597H366.202V351.219ZM139.615 306.735C135.616 305.575 131.107 301.932 129.301 298.4L127.59 295.054L127.4 258.76C127.23 226.423 127.331 222.101 128.325 219.105C129.84 214.546 133.134 211.111 138.184 208.825C141.939 207.125 143.169 206.915 149.466 206.898C161.94 206.863 168.476 210.383 171.587 218.813C172.985 222.6 173.024 223.65 173.024 256.798C173.024 296.415 172.978 296.809 167.648 302.138C163.291 306.495 159.956 307.482 149.851 307.407C145.382 307.373 140.776 307.071 139.615 306.735ZM151.822 257.668C151.822 226.604 151.785 225.698 150.52 225.454C147.54 224.88 147.447 225.872 147.447 257.989C147.447 289.985 147.472 290.254 150.468 289.824C151.803 289.633 151.822 289.18 151.822 257.668ZM188.501 306.839C183.885 305.434 180.338 302.469 177.981 298.044C176.8 295.826 176.716 293.134 176.539 252.106L176.352 208.523L185.121 208.41C189.944 208.349 194.421 208.273 195.068 208.242C196.174 208.189 196.267 210.655 196.583 248.498C196.889 285.163 197.021 288.875 198.041 289.518C198.854 290.032 199.455 289.983 200.228 289.341C201.179 288.552 201.294 284.134 201.294 248.49V208.523L204.155 208.469C205.728 208.439 210.271 208.341 214.251 208.251L221.487 208.086V250.25C221.487 298.242 221.576 297.317 216.456 302.437C212.436 306.457 208.692 307.484 198.311 307.41C193.844 307.378 189.429 307.121 188.501 306.839ZM5.87275 306.345C5.62572 306.099 5.42379 283.988 5.42379 257.21V208.523H14.4554C19.4228 208.523 23.9662 208.339 24.5518 208.114C25.517 207.744 25.6166 212.349 25.6166 257.25V306.794H15.9692C10.6625 306.794 6.1191 306.593 5.87275 306.345ZM29.2493 305.847C28.7755 304.611 29.2049 209.421 29.6868 208.939C29.8894 208.737 37.6886 208.404 47.019 208.198L63.983 207.825V216.9V225.976L57.0838 226.168L50.1846 226.36V236.456V246.552L56.4107 246.746L62.6368 246.94V255.976V265.012L56.4107 265.205L50.1846 265.399L50.0069 286.097L49.8285 306.794H39.7206C31.6529 306.794 29.5394 306.603 29.2493 305.847ZM92.9261 290.33C92.9261 276.088 92.7396 273.066 91.5435 267.949C89.2086 257.963 78.8241 208.938 79.0051 208.758C79.0987 208.664 83.7047 208.542 89.2409 208.486L99.307 208.385L101.297 224.608C102.392 233.531 103.531 240.831 103.828 240.831C104.125 240.831 104.369 239.816 104.369 238.575C104.369 235.869 107.733 208.976 108.12 208.587C108.6 208.104 126.454 208.171 126.94 208.657C127.376 209.093 124.992 222.437 122.817 231.744C122.297 233.966 120.054 244.051 117.833 254.157L113.792 272.532V289.663V306.794H103.359H92.9261V290.33ZM57.9252 203.458C52.8049 202.048 49.3466 199.416 46.8891 195.061L44.7998 191.359L44.6093 155.085C44.3973 114.75 44.3764 114.973 48.8316 109.768C50.1186 108.265 52.7087 106.367 54.6983 105.469C57.8915 104.029 59.2067 103.863 67.3485 103.868C77.558 103.875 79.4857 104.411 84.021 108.508C85.4985 109.843 87.4249 112.523 88.3019 114.463L89.8971 117.991L90.0943 152.241C90.2256 175.036 90.0472 187.667 89.5606 190.012C88.24 196.374 84.3912 200.674 77.9733 202.96C73.8082 204.443 62.517 204.724 57.9252 203.458ZM69.0312 154.011C69.0312 123.78 68.9659 122.036 67.821 121.815C64.6595 121.207 64.6561 121.24 64.6561 153.693C64.6561 170.461 64.8459 184.677 65.0788 185.282C65.3541 186 66.116 186.312 67.2664 186.179L69.0312 185.974V154.011ZM216.596 203.752C210.021 202.202 204.765 197.505 203.015 191.613C202.126 188.619 201.967 182.822 201.967 153.307C201.967 128.713 202.196 117.859 202.747 116.241C205.839 107.169 213.579 103.07 226.487 103.668C237.145 104.161 242.406 107.139 245.852 114.626C247.395 117.978 247.402 118.132 247.611 152.319C247.796 182.555 247.688 187.142 246.708 190.804C245.434 195.565 242.215 199.801 238.389 201.753C233.574 204.21 222.753 205.202 216.596 203.752ZM226.535 154.011C226.535 123.78 226.47 122.036 225.325 121.815C222.162 121.206 222.16 121.221 222.16 153.95C222.16 186.351 222.183 186.598 225.181 186.168C226.516 185.977 226.535 185.523 226.535 154.011ZM264.902 203.583C258.811 201.996 255.364 199.4 252.694 194.388C251.513 192.17 251.429 189.477 251.253 148.449L251.066 104.866H261.181H271.296V144.524C271.296 166.335 271.48 184.66 271.705 185.246C271.929 185.831 272.806 186.311 273.652 186.311C274.498 186.311 275.374 185.831 275.599 185.246C275.824 184.66 276.008 166.335 276.008 144.524V104.866H286.104H296.201V147.151C296.201 194.894 296.324 193.626 291.17 198.78C289.536 200.415 286.986 202.067 285.049 202.747C280.678 204.281 269.382 204.75 264.902 203.583ZM6.09689 154.002V104.866H23.9339H41.7709V113.869V122.871L39.6675 123.292C38.5104 123.524 35.1995 123.713 32.3099 123.713H27.055L27.1775 134.314L27.2994 144.915L34.1986 145.107L41.0978 145.299V154.339V163.378L34.1986 163.57L27.2994 163.762L27.121 183.45L26.9426 203.138H16.5198H6.09689V154.002ZM93.5992 154.002V104.866H108.958C126.231 104.866 129.418 105.41 133.234 109.011C137.792 113.313 138.324 115.582 138.579 131.848C138.847 148.914 138.511 150.777 134.514 154.388C132.513 156.196 131.974 157.034 132.663 157.263C134.574 157.901 137.253 161.238 137.929 163.824C138.307 165.27 138.711 174.708 138.825 184.797L139.033 203.139H129.481C122.575 203.138 119.781 202.905 119.392 202.297C119.097 201.833 118.7 193.493 118.511 183.762C118.224 169.027 117.998 165.961 117.157 165.43C114.201 163.563 113.947 165.184 114.2 184.291C114.301 191.88 114.223 199.226 114.028 200.614L113.674 203.138H103.636H93.5992V154.002ZM117.696 147.81C118.262 147.243 118.504 143.522 118.504 135.381C118.504 124.58 118.411 123.711 117.202 123.063C114.536 121.637 114.465 121.96 114.465 135.492C114.465 147.682 114.551 148.617 115.677 148.617C116.343 148.617 117.252 148.254 117.696 147.81ZM168.088 202.689C167.841 202.443 167.639 194.946 167.639 186.03C167.638 171.268 167.494 169.219 166.029 163.089C164.454 156.497 163.162 150.364 160.215 135.492C159.034 129.529 156.333 117.217 153.829 106.381L153.479 104.866H163.912C174.182 104.866 174.35 104.89 174.683 106.381C174.869 107.214 175.806 114.707 176.765 123.034C177.725 131.36 178.619 138.282 178.752 138.415C179.102 138.765 179.596 135.229 180.429 126.405C180.832 122.148 181.639 115.56 182.225 111.765L183.29 104.866H192.628C201.94 104.866 201.967 104.871 201.967 106.423C201.967 108.045 198.387 126.077 192.588 153.665L189.191 169.82L189.185 186.479L189.179 203.138H178.858C173.181 203.138 168.335 202.936 168.088 202.689ZM128.937 99.9223C124.637 98.8076 121.996 97.3968 119.717 94.9979C116.201 91.2959 115.59 88.6998 115.275 76.0913L114.985 64.4805H124.485C129.71 64.4805 134.212 64.4044 134.49 64.3122C134.767 64.22 135.079 68.1273 135.182 72.9958C135.387 82.6796 135.92 84.1395 138.709 82.6473C140.082 81.9129 140.142 81.4808 139.93 73.9193C139.664 64.4441 139.99 64.9617 130.071 58.2907C126.252 55.7228 121.96 52.4193 120.534 50.9493C116.36 46.6489 115.811 44.0372 115.815 28.5184C115.817 21.0874 116.132 13.8799 116.515 12.5008C117.528 8.8546 121.096 4.54074 124.568 2.76781C128.838 0.586985 136.757 -0.38429 143.09 0.49679C148.888 1.30316 152.244 2.82098 155.327 6.03299C158.9 9.7552 159.562 12.7552 159.562 25.2081V36.2482L150.307 36.0611L141.052 35.874L140.716 27.5316C140.446 20.8357 140.164 19.054 139.293 18.5061C138.695 18.1298 137.711 18.0127 137.105 18.2449C136.186 18.5976 136.004 19.791 136.004 25.4417C136.004 35.0494 136.413 35.773 145.149 41.6343C153.451 47.2042 157.736 51.306 159.009 54.901C160.312 58.5774 160.246 84.4855 158.924 89.0464C157.73 93.1617 153.062 98.0908 149.129 99.3865C145.262 100.661 133.039 100.986 128.937 99.9223ZM213.594 99.9048C208.746 98.669 205.08 96.0621 202.846 92.2604C200.992 89.1063 200.954 88.8263 200.736 76.7644L200.514 64.4805L202.082 64.4475C202.945 64.4293 207.361 64.3539 211.895 64.2792L220.141 64.1439V72.6781C220.141 79.5342 220.349 81.4196 221.197 82.2683C221.995 83.0653 222.572 83.1541 223.553 82.6291C224.715 82.0072 224.853 81.1564 224.853 74.5971C224.853 70.5619 224.567 66.5092 224.218 65.5911C223.823 64.5518 220.536 61.8561 215.513 58.4516C207.051 52.7161 203.855 49.6811 202.073 45.683C200.464 42.0765 200.083 17.5422 201.555 12.4752C202.747 8.37738 205.942 4.64844 210.064 2.54569C216.329 -0.650163 229.82 -0.536409 236.289 2.76781C239.76 4.54074 243.329 8.8546 244.341 12.5008C244.724 13.8799 245.039 19.7857 245.041 25.6254L245.045 36.2428L235.454 36.0308L225.862 35.8181L225.526 27.0961C225.209 18.8911 225.106 18.3614 223.784 18.1729C221.212 17.8054 220.636 19.5184 220.923 26.6734C221.116 31.482 221.51 33.7894 222.358 35.0837C223.001 36.0644 226.679 38.9823 230.533 41.5677C234.386 44.153 238.652 47.4128 240.013 48.8115C244.639 53.5669 244.686 53.7769 244.922 70.6366C245.05 79.823 244.856 86.9154 244.433 88.4884C243.311 92.6501 240.036 96.5063 235.902 98.5289C232.704 100.093 231.205 100.365 224.662 100.568C219.831 100.717 215.845 100.479 213.594 99.9048ZM10.8085 59.4498V19.3831H5.40427H0L0.187793 10.4646L0.375586 1.54614H20.905H41.4343L41.6221 10.4646L41.8099 19.3831H36.7422H31.6745L31.5903 58.4226C31.5439 79.8943 31.4685 97.8404 31.4221 98.3035C31.3595 98.9267 28.6812 99.1926 21.0732 99.3306L10.8085 99.5164V59.4498ZM43.9537 50.5138L44.1267 1.54614H53.8866H63.6465L63.8248 21.5707L64.0032 41.5953H66.25H68.4974L68.9323 36.4454C69.1719 33.613 69.3678 24.5263 69.3678 16.2526V1.2096H79.1276H88.8875V50.3455V99.4814H79.1377H69.3879L69.2096 79.7934L69.0312 60.1054L66.5071 59.8967L63.983 59.6874V79.5847V99.4814H53.8819H43.7814L43.9537 50.5138ZM92.253 50.3455V1.2096H102.349H112.446V50.3455V99.4814H102.349H92.253V50.3455ZM177.226 50.5138L177.399 1.54614L187.328 1.3597L197.256 1.17392L197.341 10.783C197.388 16.0682 197.414 24.6333 197.398 29.8161C197.382 34.9989 197.343 52.7935 197.312 69.3604L197.256 99.4814H187.155H177.054L177.226 50.5138Z" fill="#FBF9F5"/>
  <path clip-rule="evenodd" fill-rule="evenodd" d="M9.12669 592.86L6.48143 590.151L11.6925 584.909L16.9043 579.667L11.6858 574.499L6.4673 569.331L9.11929 566.616L11.7713 563.9L17.0113 569.109L22.2514 574.318L27.4914 569.109L32.7314 563.9L35.376 566.608L38.0213 569.317L32.8338 574.536L27.6455 579.754L32.8385 584.947L38.0314 590.141L35.3814 592.855L32.7314 595.569L27.4914 590.36L22.2514 585.151L17.0113 590.36L11.7713 595.569L9.12669 592.86ZM8.79284 478.074L6.4397 475.767L11.8056 470.369L17.1715 464.972L11.8285 459.597L6.48614 454.223L8.77938 451.856C10.0408 450.555 11.3344 449.49 11.6548 449.49C11.9746 449.49 14.566 451.767 17.4125 454.551L22.5879 459.611L27.4059 454.382L32.2239 449.154L34.9863 451.823L37.7494 454.492L32.5403 459.732L27.3312 464.972L32.5746 470.246L37.8187 475.52L35.3525 477.987C33.9962 479.343 32.7712 480.453 32.6298 480.453C32.4891 480.453 30.1219 478.106 27.3702 475.236L22.3671 470.02L17.5242 475.236C14.8608 478.106 12.336 480.437 11.9133 480.417C11.4913 480.398 10.0865 479.343 8.79284 478.074ZM9.10314 363.311L6.43432 360.578L11.6508 355.479C14.5195 352.675 16.8666 350.2 16.8666 349.981C16.8666 349.763 14.5195 347.406 11.6501 344.744L6.43364 339.905L9.10246 337.14L11.7713 334.374L17.0106 339.583L22.25 344.792L27.1468 339.928C29.8398 337.253 32.2589 335.064 32.5228 335.064C32.7866 335.064 34.0514 336.201 35.3336 337.588L37.6646 340.113L32.6567 345.169L27.6489 350.226L32.8169 355.444L37.9856 360.663L35.3585 363.353L32.7314 366.044L27.4914 360.834L22.2514 355.625L17.0113 360.834L11.7713 366.044L9.10314 363.311ZM322.575 99.5473C318.533 98.1513 314.95 95.0429 312.801 91.0676C311.369 88.419 311.342 87.7991 311.149 52.8022C310.931 13.3434 310.985 12.7437 315.228 7.18057C319.574 1.48283 328.366 -1.03118 338.981 0.38905C345.852 1.3085 350.542 3.60981 353.116 7.32394C356.739 12.5519 356.718 12.2995 356.75 50.3939C356.783 90.7769 356.871 90.0297 351.45 95.4515C349.078 97.8235 347.421 98.8015 344.283 99.6819C338.602 101.276 327.378 101.206 322.575 99.5473ZM335.529 82.2696C336.459 81.3394 336.586 77.5768 336.586 51.0993C336.586 19.2478 336.491 18.2409 333.513 18.8143C332.252 19.0573 332.206 20.0279 332.036 50.2775C331.865 80.8945 332.004 83.3271 333.928 83.3271C334.227 83.3271 334.947 82.8512 335.529 82.2696ZM262.546 50.3273V1.17253L272.108 1.35965L281.671 1.5461L282.25 4.23848C282.569 5.71929 284.295 14.1464 286.086 22.9646C287.877 31.7835 289.522 39.1795 289.742 39.3996C289.963 39.6197 290.143 31.1172 290.143 20.5052V1.20955H298.893H307.643V50.3454V99.4813L298.388 99.4793L289.133 99.4773L285.869 83.9719C284.073 75.4438 282.278 66.3584 281.879 63.7811C280.705 56.2 279.855 58.2031 280.082 68.0142C280.196 72.919 280.234 82.0058 280.168 88.207L280.047 99.4813H271.296H262.546V50.3273ZM368.895 59.4322V19.3831H363.847H358.799V10.2963V1.20955H379.288C390.558 1.20955 399.871 1.43706 399.986 1.71437C400.1 1.99169 400.101 6.08074 399.987 10.8011L399.781 19.3831H394.771H389.761V59.4322V99.4813H379.328H368.895V59.4322Z" fill="#BC3034"/>
</svg>
