<svg xmlns="http://www.w3.org/2000/svg" fill="none" viewBox="0 0 258.215 142.298" preserveAspectRatio="none">
  <path clip-rule="evenodd" fill-rule="evenodd" d="M63.0872 141.974C59.3915 141.028 56.9181 138.703 55.6826 135.013C55.1602 133.452 55.1132 131.616 55.0187 109.084C54.9466 91.9422 55.0202 84.115 55.2695 82.3792C56.0768 76.7614 58.886 73.9077 64.4685 73.0341C67.8643 72.5027 76.6882 72.9048 78.8037 73.6873C80.9044 74.4645 83.2483 76.5975 84.0439 78.4567C85.1938 81.1434 85.3749 83.1806 85.2791 92.3551L85.1876 101.103L78.8951 101.289C75.4343 101.391 72.2942 101.361 71.9169 101.222C71.234 100.97 71.2312 100.94 71.1496 92.7814C71.0783 85.6381 71.0047 84.5545 70.5725 84.282C70.2999 84.1104 69.8512 84.0564 69.5749 84.1623C69.1163 84.3385 69.0727 86.3327 69.0727 107.195C69.0727 127.66 69.1234 130.077 69.5589 130.438C69.9116 130.731 70.1854 130.753 70.5565 130.519C71.0121 130.232 71.0768 129.197 71.1493 121.048C71.1941 116.015 71.3574 111.746 71.5121 111.559C71.8304 111.175 84.3638 111.125 84.9789 111.505C85.4384 111.789 85.4894 130.755 85.0369 133.214C84.5593 135.812 82.9699 138.655 81.2851 139.927C78.6032 141.952 77.6222 142.17 70.761 142.274C66.4983 142.339 64.1529 142.247 63.0872 141.974ZM109.13 141.959C106.699 141.314 106.004 140.955 104.504 139.573C101.563 136.861 101.311 135.641 101.306 124.066C101.304 118.969 101.407 114.734 101.536 114.655C101.664 114.576 104.57 114.465 107.995 114.41C113.25 114.325 114.266 114.38 114.51 114.766C114.669 115.018 114.801 118.502 114.804 122.533C114.807 126.976 114.933 130.076 115.126 130.437C115.493 131.122 116.72 131.226 117.228 130.614C117.456 130.338 117.599 127.863 117.649 123.311C117.716 117.141 117.667 116.338 117.177 115.588C116.875 115.128 114.598 113.269 112.116 111.458C104.248 105.714 102.337 103.459 101.627 99.0816C101.151 96.1468 101.219 82.4691 101.72 80.3389C102.56 76.7688 104.773 74.4322 108.203 73.4918C109.05 73.2594 112.023 72.9886 114.808 72.8904C124.393 72.5519 127.934 73.748 130.156 78.0748L131.23 80.1667V88.9467V97.7267H124.631H118.031L117.878 91.1273C117.793 87.4976 117.613 84.3553 117.476 84.1441C117.082 83.5358 115.789 83.6886 115.415 84.3879C115.194 84.7998 115.112 87.0826 115.174 91.0232L115.269 97.0308L116.599 98.2111C117.331 98.8603 119.829 100.843 122.149 102.618C127.152 106.444 129.28 108.606 130.403 111.001L131.23 112.767L131.329 122.436C131.396 128.913 131.311 132.713 131.072 133.947C130.36 137.627 128.265 140.224 124.962 141.521C123.431 142.122 122.582 142.202 116.957 142.28C112.458 142.342 110.227 142.25 109.13 141.959ZM154.796 141.96C150.824 140.965 148.068 137.808 147.36 133.444C146.927 130.777 146.93 84.6083 147.363 81.939C147.805 79.2164 148.685 77.3259 150.202 75.8408C152.769 73.3278 155.869 72.6298 163.491 72.8484C170.225 73.0414 172.838 74.0375 174.942 77.2144C177.016 80.3456 176.934 79.2179 177.047 105.99C177.165 133.771 177.105 134.671 174.886 137.992C173.824 139.58 171.636 141.226 169.807 141.812C168.119 142.353 156.808 142.465 154.796 141.96ZM162.848 129.726C162.94 129.347 162.977 119.106 162.931 106.969C162.851 86.2026 162.814 84.8814 162.3 84.5613C161.877 84.2976 161.688 84.3246 161.461 84.6813C161.128 85.2034 161.031 129.881 161.363 130.212C161.819 130.669 162.689 130.384 162.848 129.726ZM219.596 141.97C216.349 141.151 213.599 138.821 212.53 135.983C212.071 134.765 211.98 133.172 211.892 124.892C211.835 119.574 211.898 115.059 212.032 114.859C212.304 114.454 224.644 114.197 225.268 114.583C225.514 114.735 225.617 117.09 225.617 122.546C225.617 130.683 225.674 131.031 226.999 131.031C228.308 131.031 228.38 130.636 228.38 123.434C228.38 118.121 228.282 116.384 227.946 115.734C227.703 115.263 225.377 113.351 222.651 111.381C215.442 106.171 213.819 104.515 212.573 101.103C212.1 99.8066 211.992 98.317 211.879 91.5021C211.696 80.496 212.227 77.9189 215.205 75.3703C216.851 73.9614 218.633 73.3674 222.241 73.0252C226.031 72.6654 234.549 73.0899 236.254 73.7232C238.161 74.4316 239.906 75.692 240.728 76.9554C242.311 79.3883 242.346 79.6492 242.346 88.9786V97.7267L235.517 97.8093C230.16 97.874 228.686 97.8077 228.684 97.5023C228.637 91.169 228.313 84.51 228.037 84.177C227.527 83.5634 226.608 83.6705 226.224 84.3879C226.004 84.7992 225.921 87.066 225.983 90.9634C226.095 98.0125 225.574 97.0379 231.684 101.616C239.435 107.424 240.654 108.656 241.913 111.955C242.543 113.604 242.573 114.158 242.545 123.403C242.516 133.28 242.354 135.049 241.291 137.133C240.435 138.81 238.248 140.673 236.182 141.483C234.513 142.138 233.83 142.203 227.766 142.281C223.137 142.34 220.698 142.247 219.596 141.97ZM87.0996 141.746C86.5849 141.446 86.5572 139.667 86.5772 107.825C86.5886 89.342 86.6751 74.0185 86.7697 73.772C86.913 73.3987 88.0361 73.3241 93.5081 73.3241H100.075V107.549C100.075 126.373 99.9713 141.782 99.8445 141.791C96.7007 142.02 87.5143 141.988 87.0996 141.746ZM132.648 141.664C132.395 141.359 132.323 132.147 132.38 107.363L132.458 73.4776H139.057H145.657L145.735 107.479L145.813 141.481L145.024 141.781C144.591 141.946 141.706 142.081 138.615 142.081C134.254 142.081 132.916 141.987 132.648 141.664ZM179.575 141.813L178.501 141.621V107.549V73.4776L185.232 73.3947C188.934 73.349 192.08 73.4282 192.222 73.57C192.364 73.7121 192.812 75.6834 193.217 77.9502C193.622 80.2173 194.58 85.3873 195.344 89.439C196.108 93.4908 196.844 97.4965 196.979 98.3406C197.132 99.2974 197.282 94.904 197.378 86.6765L197.532 73.4776L203.901 73.3947L210.27 73.3116V107.51C210.27 138.411 210.223 141.727 209.784 141.895C209.024 142.187 196.968 142.103 196.494 141.803C196.073 141.537 195.107 137.036 192.317 122.336C191.586 118.482 190.887 115.236 190.764 115.123C190.641 115.009 190.632 120.883 190.743 128.177C190.936 140.789 190.919 141.453 190.389 141.736C189.779 142.062 181.304 142.122 179.575 141.813ZM0.212076 137.881C-0.13263 131.122 -0.030415 73.6916 0.326568 73.4709C0.89013 73.1228 17.0412 72.9791 20.1276 73.2947C25.0542 73.7987 27.6762 75.5661 29.2435 79.4389L29.9365 81.1514L30.0351 105.247C30.1038 122.024 30.0286 130.042 29.788 131.645C29.3245 134.731 28.0064 137.392 26.0886 139.117C23.4148 141.521 23.1133 141.572 11.0309 141.702L0.412821 141.816L0.212076 137.881ZM15.528 129.367C16.1081 128.943 16.1238 128.357 16.1238 107.161C16.1238 83.7734 16.1643 84.3744 14.5844 84.3744C14.201 84.3744 13.8017 84.5975 13.697 84.8704C13.4594 85.4892 13.4874 126.35 13.7268 128.345C13.9159 129.924 14.395 130.196 15.528 129.367ZM31.4876 134.028C31.3737 129.763 31.3237 114.394 31.3761 99.8754L31.4713 73.4776H42.5215H53.5717V79.3097V85.1417L49.5814 85.2952L45.591 85.4487L45.5085 92.2783L45.4259 99.108H48.4761C50.1538 99.108 51.7448 99.1918 52.0118 99.2943C52.4314 99.4551 52.4974 100.285 52.4974 105.4C52.4974 110.515 52.4314 111.346 52.0118 111.507C51.7448 111.609 50.1541 111.693 48.4773 111.693H45.4283L45.5097 120.671L45.591 129.65L49.2744 129.677C51.3003 129.691 53.1334 129.726 53.3483 129.753C53.6518 129.792 53.72 131.112 53.6552 135.712L53.5717 141.621L42.6329 141.701L31.6945 141.782L31.4876 134.028ZM140.31 69.4735C139.395 69.2202 138.191 68.7309 137.633 68.3865C136.076 67.4239 134.242 65.159 133.466 63.2399L132.765 61.5066V34.9553V8.40412L133.499 6.56242C134.491 4.07152 136.753 1.82035 139.211 0.878009C140.788 0.27301 141.781 0.15176 146.128 0.033277C154.526 -0.195401 157.965 0.722065 160.236 3.79617C162.698 7.12812 162.528 5.0071 162.632 33.5741C162.73 60.2054 162.691 61.1744 161.397 64.1985C160.61 66.0372 158.002 68.4667 156.028 69.2012C153.965 69.9679 142.796 70.1616 140.31 69.4735ZM148.809 36.0131C148.855 24.2827 148.783 14.0327 148.649 13.2358C148.398 11.7349 147.562 11.0979 147.003 11.9807C146.859 12.2082 146.739 22.5745 146.736 35.0167C146.732 56.2439 146.764 57.658 147.268 57.9441C147.656 58.1642 147.933 58.1227 148.266 57.7949C148.665 57.4017 148.737 54.49 148.809 36.0131ZM171.984 69.475C169.995 68.9394 168.35 67.9203 167.009 66.3929C165.651 64.8462 164.938 63.1666 164.534 60.567C164.151 58.0976 164.23 1.08612 164.617 0.699054C164.892 0.42372 177.29 0.303076 177.725 0.571658C177.906 0.684002 178.089 11.4171 178.202 28.6742C178.303 44.0309 178.449 56.9063 178.526 57.286C178.678 58.0359 179.803 58.2655 180.031 57.5929C180.103 57.3818 180.313 44.5052 180.497 28.9784C180.693 12.6087 180.952 0.6745 181.115 0.573513C181.322 0.445821 192.212 0.43538 194.085 0.560923C194.216 0.569825 194.285 14.3553 194.239 31.1952C194.158 60.6093 194.132 61.8678 193.565 63.1948C192.101 66.6256 190.26 68.3199 186.838 69.3881C185.36 69.8495 184.04 69.944 179.317 69.9274C175.415 69.9136 173.078 69.7697 171.984 69.475ZM202.419 69.331C198.683 67.858 196.614 64.6743 196.125 59.6434C195.754 55.8243 195.796 12.8242 196.173 10.0285C196.707 6.07344 198.047 3.57272 200.448 2.04687C202.755 0.580569 204.471 0.207624 209.661 0.0437122C217.41 -0.200927 220.734 0.611268 223.326 3.38242C226.051 6.29538 226.078 6.43319 226.078 17.3057V26.8212H219.325H212.572L212.405 19.1474C212.313 14.9268 212.21 11.4303 212.175 11.3776C212.14 11.3245 211.663 11.3245 211.114 11.3776L210.116 11.4736L209.886 18.0731C209.759 21.7028 209.69 32.0068 209.733 40.9706C209.795 54.2484 209.887 57.363 210.231 57.7762C210.76 58.4131 211.316 58.4211 211.936 57.8014C212.346 57.391 212.419 56.2718 212.419 50.3022V43.2857L211.728 43.1878C211.069 43.0941 211.025 42.91 210.775 39.1547C210.631 36.9828 210.631 34.4391 210.775 33.4762L211.037 31.7324H218.558H226.078L226.157 50.642L226.236 69.5514L224.162 69.7476C218.912 70.2433 217.898 69.9802 217.337 67.978C217.12 67.2042 216.847 66.5712 216.729 66.5712C216.612 66.5712 216.181 66.9297 215.772 67.3678C215.363 67.8061 214.406 68.5311 213.646 68.9793C212.359 69.739 211.984 69.7994 208.121 69.8697C204.584 69.9342 203.749 69.8553 202.419 69.331ZM228.817 69.6377L227.92 69.4811V35.1057V0.73036L234.366 0.576885C237.911 0.492474 240.983 0.542818 241.192 0.688619C241.482 0.890593 241.591 4.02241 241.652 13.8875L241.732 26.8212L243.037 26.9154L244.341 27.0099V14.2788C244.341 7.27699 244.425 1.32952 244.528 1.06247C244.69 0.640108 245.59 0.576885 251.434 0.576885H258.154L258.166 1.421C258.327 13.086 258.056 69.5121 257.837 69.6469C257.675 69.747 254.7 69.8114 251.225 69.7899C246.113 69.7583 244.853 69.6668 244.628 69.312C244.473 69.0664 244.349 62.4179 244.346 54.2165L244.341 39.5596H243.146C242.34 39.5596 241.891 39.7174 241.765 40.0452C241.663 40.3122 241.579 47.0157 241.579 54.9418C241.579 66.1974 241.495 69.3814 241.195 69.4817C240.606 69.6794 229.835 69.8151 228.817 69.6377ZM110.696 69.0772C110.604 68.9298 110.434 56.1552 110.317 40.6895L110.104 12.5697L107.315 12.482L104.526 12.3945L104.442 6.52621L104.359 0.657613L106.225 0.446435C108.254 0.217143 130.067 0.263487 130.693 0.498611C130.981 0.606658 131.077 2.0837 131.077 6.44179C131.077 10.8591 130.985 12.2487 130.693 12.2735C130.482 12.2917 130.102 12.3371 129.849 12.3745C129.596 12.4123 128.388 12.4666 127.165 12.4955L124.941 12.548L124.863 40.8641L124.784 69.1803L117.823 69.2629C113.994 69.308 110.787 69.2245 110.696 69.0772Z" fill="#BD3133"/>
</svg>
