<svg xmlns="http://www.w3.org/2000/svg" fill="none" viewBox="0 0 15.1313 17.6345" preserveAspectRatio="none">
  <path clip-rule="evenodd" fill-rule="evenodd" d="M2.43069 17.3517C1.58926 17.023 0.853807 16.3058 0.374986 15.3476L0 14.5966V8.74584C0 3.06993 0.00860765 2.87679 0.284602 2.28983C0.642373 1.52802 1.39288 0.781807 2.19989 0.3853C3.05961 -0.0375689 5.43704 -0.137102 6.37101 0.210985C7.22212 0.527867 7.82576 1.00293 8.27284 1.70771C8.88186 2.66858 8.97278 3.80215 8.92167 9.82184C8.87863 14.9678 8.86787 15.1513 8.58596 15.6726C8.19967 16.3876 7.53309 17.0085 6.79226 17.3431C5.94222 17.7278 3.40662 17.7326 2.43069 17.3517ZM4.76507 14.3324C4.97436 14.2243 5.19278 14.0274 5.24981 13.8956C5.30738 13.7632 5.38216 11.4461 5.41606 8.74584C5.47524 4.05178 5.46609 3.8226 5.21915 3.51701C4.89635 3.11889 4.31046 3.0979 3.93655 3.47181C3.48947 3.91889 3.419 4.93464 3.5153 9.54639C3.60514 13.8633 3.60945 13.9144 3.91503 14.22C4.28034 14.5853 4.27711 14.5848 4.76507 14.3324ZM11.9081 17.2242C11.6542 16.9703 11.644 16.7378 11.637 10.957C11.6327 7.15227 11.5799 4.8604 11.4928 4.69793C11.3949 4.51447 11.2093 4.44183 10.8391 4.44183C10.165 4.44183 9.98207 4.20081 9.91105 3.21949C9.84326 2.28176 9.95947 2.09077 10.8273 1.71525C11.1603 1.57106 11.7413 1.15303 12.1185 0.78665C12.7764 0.146967 12.8389 0.117921 13.6652 0.0732665C14.2522 0.0415245 14.6223 0.0883361 14.8289 0.220146L15.1313 0.413277V8.6517C15.1313 15.891 15.106 16.9267 14.922 17.1892C14.7305 17.4625 14.6024 17.4884 13.4425 17.4884C12.3595 17.4884 12.1335 17.4496 11.9081 17.2242Z" fill="#BD3133"/>
</svg>
